M48
; DRILL file {KiCad 5.1.6} date Wed May 20 11:34:54 2020
; FORMAT={-:-/ absolute / inch / decimal}
; #@! TF.CreationDate,2020-05-20T11:34:54+02:00
; #@! TF.GenerationSoftware,Kicad,Pcbnew,5.1.6
; #@! TF.FileFunction,Plated,1,2,PTH
FMAT,2
INCH
T1C0.0197
T2C0.0394
T3C0.0512
T4C0.0598
T5C0.1260
%
G90
G05
T1
X8.5055Y-3.0
X8.5332Y-2.9332
X8.5332Y-3.0668
X8.6Y-2.9055
X8.6Y-3.0945
X8.6668Y-2.9332
X8.6668Y-3.0668
X8.6945Y-3.0
X3.6055Y-3.0
X3.6332Y-2.9332
X3.6332Y-3.0668
X3.7Y-2.9055
X3.7Y-3.0945
X3.7668Y-2.9332
X3.7668Y-3.0668
X3.7945Y-3.0
T2
X5.5622Y-3.55
X5.6606Y-3.55
X5.7394Y-3.55
X5.8378Y-3.55
X8.2622Y-3.55
X8.3606Y-3.55
X8.4394Y-3.55
X8.5378Y-3.55
X7.3622Y-3.55
X7.4606Y-3.55
X7.5394Y-3.55
X7.6378Y-3.55
X6.4622Y-3.55
X6.5606Y-3.55
X6.6394Y-3.55
X6.7378Y-3.55
X3.7604Y-3.5465
X3.8589Y-3.5465
X3.9376Y-3.5465
X4.036Y-3.5465
X4.6622Y-3.55
X4.7606Y-3.55
X4.8394Y-3.55
X4.9378Y-3.55
T4
X6.05Y-2.95
X6.25Y-2.95
X3.8Y-3.75
X4.0Y-3.75
X7.4Y-3.75
X7.6Y-3.75
X4.7Y-3.75
X4.9Y-3.75
X8.3Y-3.75
X8.5Y-3.75
X6.5Y-3.75
X6.7Y-3.75
X5.6Y-3.75
X5.8Y-3.75
T5
X8.6Y-3.0
X3.7Y-3.0
T3
G00X6.3244Y-3.637
M15
G01X6.3244Y-3.6764
M16
G05
G00X6.8756Y-3.637
M15
G01X6.8756Y-3.6764
M16
G05
G00X3.6226Y-3.6335
M15
G01X3.6226Y-3.6728
M16
G05
G00X4.1738Y-3.6335
M15
G01X4.1738Y-3.6728
M16
G05
G00X4.5244Y-3.637
M15
G01X4.5244Y-3.6764
M16
G05
G00X5.0756Y-3.637
M15
G01X5.0756Y-3.6764
M16
G05
G00X5.4244Y-3.637
M15
G01X5.4244Y-3.6764
M16
G05
G00X5.9756Y-3.637
M15
G01X5.9756Y-3.6764
M16
G05
G00X8.1244Y-3.637
M15
G01X8.1244Y-3.6764
M16
G05
G00X8.6756Y-3.637
M15
G01X8.6756Y-3.6764
M16
G05
G00X7.2244Y-3.637
M15
G01X7.2244Y-3.6764
M16
G05
G00X7.7756Y-3.637
M15
G01X7.7756Y-3.6764
M16
G05
T0
M30
