G04 #@! TF.GenerationSoftware,KiCad,Pcbnew,5.1.6*
G04 #@! TF.CreationDate,2020-05-20T11:34:49+02:00*
G04 #@! TF.ProjectId,5V_power_dist,35565f70-6f77-4657-925f-646973742e6b,rev?*
G04 #@! TF.SameCoordinates,Original*
G04 #@! TF.FileFunction,Soldermask,Bot*
G04 #@! TF.FilePolarity,Negative*
%FSLAX46Y46*%
G04 Gerber Fmt 4.6, Leading zero omitted, Abs format (unit mm)*
G04 Created by KiCad (PCBNEW 5.1.6) date 2020-05-20 11:34:49*
%MOMM*%
%LPD*%
G01*
G04 APERTURE LIST*
%ADD10C,0.100000*%
G04 APERTURE END LIST*
D10*
G36*
X124762585Y-93728802D02*
G01*
X124912410Y-93758604D01*
X125194674Y-93875521D01*
X125448705Y-94045259D01*
X125664741Y-94261295D01*
X125834479Y-94515326D01*
X125951396Y-94797590D01*
X126011000Y-95097240D01*
X126011000Y-95402760D01*
X125951396Y-95702410D01*
X125834479Y-95984674D01*
X125664741Y-96238705D01*
X125448705Y-96454741D01*
X125194674Y-96624479D01*
X124912410Y-96741396D01*
X124762585Y-96771198D01*
X124612761Y-96801000D01*
X124307239Y-96801000D01*
X124157415Y-96771198D01*
X124007590Y-96741396D01*
X123725326Y-96624479D01*
X123471295Y-96454741D01*
X123255259Y-96238705D01*
X123085521Y-95984674D01*
X122968604Y-95702410D01*
X122909000Y-95402760D01*
X122909000Y-95097240D01*
X122968604Y-94797590D01*
X123085521Y-94515326D01*
X123255259Y-94261295D01*
X123471295Y-94045259D01*
X123725326Y-93875521D01*
X124007590Y-93758604D01*
X124157415Y-93728802D01*
X124307239Y-93699000D01*
X124612761Y-93699000D01*
X124762585Y-93728802D01*
G37*
G36*
X212371000Y-96801000D02*
G01*
X209269000Y-96801000D01*
X209269000Y-93699000D01*
X212371000Y-93699000D01*
X212371000Y-96801000D01*
G37*
G36*
X98071000Y-96801000D02*
G01*
X94969000Y-96801000D01*
X94969000Y-93699000D01*
X98071000Y-93699000D01*
X98071000Y-96801000D01*
G37*
G36*
X101902585Y-93728802D02*
G01*
X102052410Y-93758604D01*
X102334674Y-93875521D01*
X102588705Y-94045259D01*
X102804741Y-94261295D01*
X102974479Y-94515326D01*
X103091396Y-94797590D01*
X103151000Y-95097240D01*
X103151000Y-95402760D01*
X103091396Y-95702410D01*
X102974479Y-95984674D01*
X102804741Y-96238705D01*
X102588705Y-96454741D01*
X102334674Y-96624479D01*
X102052410Y-96741396D01*
X101902585Y-96771198D01*
X101752761Y-96801000D01*
X101447239Y-96801000D01*
X101297415Y-96771198D01*
X101147590Y-96741396D01*
X100865326Y-96624479D01*
X100611295Y-96454741D01*
X100395259Y-96238705D01*
X100225521Y-95984674D01*
X100108604Y-95702410D01*
X100049000Y-95402760D01*
X100049000Y-95097240D01*
X100108604Y-94797590D01*
X100225521Y-94515326D01*
X100395259Y-94261295D01*
X100611295Y-94045259D01*
X100865326Y-93875521D01*
X101147590Y-93758604D01*
X101297415Y-93728802D01*
X101447239Y-93699000D01*
X101752761Y-93699000D01*
X101902585Y-93728802D01*
G37*
G36*
X189511000Y-96801000D02*
G01*
X186409000Y-96801000D01*
X186409000Y-93699000D01*
X189511000Y-93699000D01*
X189511000Y-96801000D01*
G37*
G36*
X193342585Y-93728802D02*
G01*
X193492410Y-93758604D01*
X193774674Y-93875521D01*
X194028705Y-94045259D01*
X194244741Y-94261295D01*
X194414479Y-94515326D01*
X194531396Y-94797590D01*
X194591000Y-95097240D01*
X194591000Y-95402760D01*
X194531396Y-95702410D01*
X194414479Y-95984674D01*
X194244741Y-96238705D01*
X194028705Y-96454741D01*
X193774674Y-96624479D01*
X193492410Y-96741396D01*
X193342585Y-96771198D01*
X193192761Y-96801000D01*
X192887239Y-96801000D01*
X192737415Y-96771198D01*
X192587590Y-96741396D01*
X192305326Y-96624479D01*
X192051295Y-96454741D01*
X191835259Y-96238705D01*
X191665521Y-95984674D01*
X191548604Y-95702410D01*
X191489000Y-95402760D01*
X191489000Y-95097240D01*
X191548604Y-94797590D01*
X191665521Y-94515326D01*
X191835259Y-94261295D01*
X192051295Y-94045259D01*
X192305326Y-93875521D01*
X192587590Y-93758604D01*
X192737415Y-93728802D01*
X192887239Y-93699000D01*
X193192761Y-93699000D01*
X193342585Y-93728802D01*
G37*
G36*
X143791000Y-96801000D02*
G01*
X140689000Y-96801000D01*
X140689000Y-93699000D01*
X143791000Y-93699000D01*
X143791000Y-96801000D01*
G37*
G36*
X147622585Y-93728802D02*
G01*
X147772410Y-93758604D01*
X148054674Y-93875521D01*
X148308705Y-94045259D01*
X148524741Y-94261295D01*
X148694479Y-94515326D01*
X148811396Y-94797590D01*
X148871000Y-95097240D01*
X148871000Y-95402760D01*
X148811396Y-95702410D01*
X148694479Y-95984674D01*
X148524741Y-96238705D01*
X148308705Y-96454741D01*
X148054674Y-96624479D01*
X147772410Y-96741396D01*
X147622585Y-96771198D01*
X147472761Y-96801000D01*
X147167239Y-96801000D01*
X147017415Y-96771198D01*
X146867590Y-96741396D01*
X146585326Y-96624479D01*
X146331295Y-96454741D01*
X146115259Y-96238705D01*
X145945521Y-95984674D01*
X145828604Y-95702410D01*
X145769000Y-95402760D01*
X145769000Y-95097240D01*
X145828604Y-94797590D01*
X145945521Y-94515326D01*
X146115259Y-94261295D01*
X146331295Y-94045259D01*
X146585326Y-93875521D01*
X146867590Y-93758604D01*
X147017415Y-93728802D01*
X147167239Y-93699000D01*
X147472761Y-93699000D01*
X147622585Y-93728802D01*
G37*
G36*
X216202585Y-93728802D02*
G01*
X216352410Y-93758604D01*
X216634674Y-93875521D01*
X216888705Y-94045259D01*
X217104741Y-94261295D01*
X217274479Y-94515326D01*
X217391396Y-94797590D01*
X217451000Y-95097240D01*
X217451000Y-95402760D01*
X217391396Y-95702410D01*
X217274479Y-95984674D01*
X217104741Y-96238705D01*
X216888705Y-96454741D01*
X216634674Y-96624479D01*
X216352410Y-96741396D01*
X216202585Y-96771198D01*
X216052761Y-96801000D01*
X215747239Y-96801000D01*
X215597415Y-96771198D01*
X215447590Y-96741396D01*
X215165326Y-96624479D01*
X214911295Y-96454741D01*
X214695259Y-96238705D01*
X214525521Y-95984674D01*
X214408604Y-95702410D01*
X214349000Y-95402760D01*
X214349000Y-95097240D01*
X214408604Y-94797590D01*
X214525521Y-94515326D01*
X214695259Y-94261295D01*
X214911295Y-94045259D01*
X215165326Y-93875521D01*
X215447590Y-93758604D01*
X215597415Y-93728802D01*
X215747239Y-93699000D01*
X216052761Y-93699000D01*
X216202585Y-93728802D01*
G37*
G36*
X166651000Y-96801000D02*
G01*
X163549000Y-96801000D01*
X163549000Y-93699000D01*
X166651000Y-93699000D01*
X166651000Y-96801000D01*
G37*
G36*
X170482585Y-93728802D02*
G01*
X170632410Y-93758604D01*
X170914674Y-93875521D01*
X171168705Y-94045259D01*
X171384741Y-94261295D01*
X171554479Y-94515326D01*
X171671396Y-94797590D01*
X171731000Y-95097240D01*
X171731000Y-95402760D01*
X171671396Y-95702410D01*
X171554479Y-95984674D01*
X171384741Y-96238705D01*
X171168705Y-96454741D01*
X170914674Y-96624479D01*
X170632410Y-96741396D01*
X170482585Y-96771198D01*
X170332761Y-96801000D01*
X170027239Y-96801000D01*
X169877415Y-96771198D01*
X169727590Y-96741396D01*
X169445326Y-96624479D01*
X169191295Y-96454741D01*
X168975259Y-96238705D01*
X168805521Y-95984674D01*
X168688604Y-95702410D01*
X168629000Y-95402760D01*
X168629000Y-95097240D01*
X168688604Y-94797590D01*
X168805521Y-94515326D01*
X168975259Y-94261295D01*
X169191295Y-94045259D01*
X169445326Y-93875521D01*
X169727590Y-93758604D01*
X169877415Y-93728802D01*
X170027239Y-93699000D01*
X170332761Y-93699000D01*
X170482585Y-93728802D01*
G37*
G36*
X120931000Y-96801000D02*
G01*
X117829000Y-96801000D01*
X117829000Y-93699000D01*
X120931000Y-93699000D01*
X120931000Y-96801000D01*
G37*
G36*
X220566031Y-91344207D02*
G01*
X220764145Y-91404305D01*
X220764148Y-91404306D01*
X220830030Y-91439521D01*
X220946729Y-91501897D01*
X221106765Y-91633235D01*
X221238103Y-91793271D01*
X221238104Y-91793273D01*
X221335694Y-91975851D01*
X221335694Y-91975852D01*
X221335695Y-91975854D01*
X221395793Y-92173968D01*
X221411000Y-92328370D01*
X221411000Y-93431630D01*
X221395793Y-93586032D01*
X221361524Y-93699000D01*
X221335694Y-93784149D01*
X221286854Y-93875521D01*
X221238103Y-93966729D01*
X221106765Y-94126765D01*
X220946729Y-94258103D01*
X220860975Y-94303939D01*
X220764149Y-94355694D01*
X220764146Y-94355695D01*
X220566032Y-94415793D01*
X220360000Y-94436085D01*
X220153969Y-94415793D01*
X219955855Y-94355695D01*
X219955852Y-94355694D01*
X219859026Y-94303939D01*
X219773272Y-94258103D01*
X219613236Y-94126765D01*
X219481898Y-93966729D01*
X219459184Y-93924234D01*
X219384305Y-93784147D01*
X219324207Y-93586030D01*
X219309000Y-93431631D01*
X219309000Y-92328370D01*
X219324207Y-92173971D01*
X219324207Y-92173969D01*
X219384305Y-91975855D01*
X219384306Y-91975852D01*
X219419521Y-91909970D01*
X219481897Y-91793271D01*
X219613235Y-91633235D01*
X219773271Y-91501897D01*
X219859025Y-91456061D01*
X219955851Y-91404306D01*
X219955854Y-91404305D01*
X220153968Y-91344207D01*
X220360000Y-91323915D01*
X220566031Y-91344207D01*
G37*
G36*
X197706031Y-91344207D02*
G01*
X197904145Y-91404305D01*
X197904148Y-91404306D01*
X197970030Y-91439521D01*
X198086729Y-91501897D01*
X198246765Y-91633235D01*
X198378103Y-91793271D01*
X198378104Y-91793273D01*
X198475694Y-91975851D01*
X198475694Y-91975852D01*
X198475695Y-91975854D01*
X198535793Y-92173968D01*
X198551000Y-92328370D01*
X198551000Y-93431630D01*
X198535793Y-93586032D01*
X198501524Y-93699000D01*
X198475694Y-93784149D01*
X198426854Y-93875521D01*
X198378103Y-93966729D01*
X198246765Y-94126765D01*
X198086729Y-94258103D01*
X198000975Y-94303939D01*
X197904149Y-94355694D01*
X197904146Y-94355695D01*
X197706032Y-94415793D01*
X197500000Y-94436085D01*
X197293969Y-94415793D01*
X197095855Y-94355695D01*
X197095852Y-94355694D01*
X196999026Y-94303939D01*
X196913272Y-94258103D01*
X196753236Y-94126765D01*
X196621898Y-93966729D01*
X196599184Y-93924234D01*
X196524305Y-93784147D01*
X196464207Y-93586030D01*
X196449000Y-93431631D01*
X196449000Y-92328370D01*
X196464207Y-92173971D01*
X196464207Y-92173969D01*
X196524305Y-91975855D01*
X196524306Y-91975852D01*
X196559521Y-91909970D01*
X196621897Y-91793271D01*
X196753235Y-91633235D01*
X196913271Y-91501897D01*
X196999025Y-91456061D01*
X197095851Y-91404306D01*
X197095854Y-91404305D01*
X197293968Y-91344207D01*
X197500000Y-91323915D01*
X197706031Y-91344207D01*
G37*
G36*
X183706031Y-91344207D02*
G01*
X183904145Y-91404305D01*
X183904148Y-91404306D01*
X183970030Y-91439521D01*
X184086729Y-91501897D01*
X184246765Y-91633235D01*
X184378103Y-91793271D01*
X184378104Y-91793273D01*
X184475694Y-91975851D01*
X184475694Y-91975852D01*
X184475695Y-91975854D01*
X184535793Y-92173968D01*
X184551000Y-92328370D01*
X184551000Y-93431630D01*
X184535793Y-93586032D01*
X184501524Y-93699000D01*
X184475694Y-93784149D01*
X184426854Y-93875521D01*
X184378103Y-93966729D01*
X184246765Y-94126765D01*
X184086729Y-94258103D01*
X184000975Y-94303939D01*
X183904149Y-94355694D01*
X183904146Y-94355695D01*
X183706032Y-94415793D01*
X183500000Y-94436085D01*
X183293969Y-94415793D01*
X183095855Y-94355695D01*
X183095852Y-94355694D01*
X182999026Y-94303939D01*
X182913272Y-94258103D01*
X182753236Y-94126765D01*
X182621898Y-93966729D01*
X182599184Y-93924235D01*
X182524305Y-93784147D01*
X182464207Y-93586030D01*
X182449000Y-93431631D01*
X182449000Y-92328370D01*
X182464207Y-92173971D01*
X182464207Y-92173969D01*
X182524305Y-91975855D01*
X182524306Y-91975852D01*
X182559521Y-91909970D01*
X182621897Y-91793271D01*
X182753235Y-91633235D01*
X182913271Y-91501897D01*
X182999025Y-91456061D01*
X183095851Y-91404306D01*
X183095854Y-91404305D01*
X183293968Y-91344207D01*
X183500000Y-91323915D01*
X183706031Y-91344207D01*
G37*
G36*
X137986031Y-91344207D02*
G01*
X138184145Y-91404305D01*
X138184148Y-91404306D01*
X138250030Y-91439521D01*
X138366729Y-91501897D01*
X138526765Y-91633235D01*
X138658103Y-91793271D01*
X138658104Y-91793273D01*
X138755694Y-91975851D01*
X138755694Y-91975852D01*
X138755695Y-91975854D01*
X138815793Y-92173968D01*
X138831000Y-92328370D01*
X138831000Y-93431630D01*
X138815793Y-93586032D01*
X138781524Y-93699000D01*
X138755694Y-93784149D01*
X138706854Y-93875521D01*
X138658103Y-93966729D01*
X138526765Y-94126765D01*
X138366729Y-94258103D01*
X138280975Y-94303939D01*
X138184149Y-94355694D01*
X138184146Y-94355695D01*
X137986032Y-94415793D01*
X137780000Y-94436085D01*
X137573969Y-94415793D01*
X137375855Y-94355695D01*
X137375852Y-94355694D01*
X137279026Y-94303939D01*
X137193272Y-94258103D01*
X137033236Y-94126765D01*
X136901898Y-93966729D01*
X136879184Y-93924235D01*
X136804305Y-93784147D01*
X136744207Y-93586030D01*
X136729000Y-93431631D01*
X136729000Y-92328370D01*
X136744207Y-92173971D01*
X136744207Y-92173969D01*
X136804305Y-91975855D01*
X136804306Y-91975852D01*
X136839521Y-91909970D01*
X136901897Y-91793271D01*
X137033235Y-91633235D01*
X137193271Y-91501897D01*
X137279025Y-91456061D01*
X137375851Y-91404306D01*
X137375854Y-91404305D01*
X137573968Y-91344207D01*
X137780000Y-91323915D01*
X137986031Y-91344207D01*
G37*
G36*
X151986031Y-91344207D02*
G01*
X152184145Y-91404305D01*
X152184148Y-91404306D01*
X152250030Y-91439521D01*
X152366729Y-91501897D01*
X152526765Y-91633235D01*
X152658103Y-91793271D01*
X152658104Y-91793273D01*
X152755694Y-91975851D01*
X152755694Y-91975852D01*
X152755695Y-91975854D01*
X152815793Y-92173968D01*
X152831000Y-92328370D01*
X152831000Y-93431630D01*
X152815793Y-93586032D01*
X152781524Y-93699000D01*
X152755694Y-93784149D01*
X152706854Y-93875521D01*
X152658103Y-93966729D01*
X152526765Y-94126765D01*
X152366729Y-94258103D01*
X152280975Y-94303939D01*
X152184149Y-94355694D01*
X152184146Y-94355695D01*
X151986032Y-94415793D01*
X151780000Y-94436085D01*
X151573969Y-94415793D01*
X151375855Y-94355695D01*
X151375852Y-94355694D01*
X151279026Y-94303939D01*
X151193272Y-94258103D01*
X151033236Y-94126765D01*
X150901898Y-93966729D01*
X150879184Y-93924235D01*
X150804305Y-93784147D01*
X150744207Y-93586030D01*
X150729000Y-93431631D01*
X150729000Y-92328370D01*
X150744207Y-92173971D01*
X150744207Y-92173969D01*
X150804305Y-91975855D01*
X150804306Y-91975852D01*
X150839521Y-91909970D01*
X150901897Y-91793271D01*
X151033235Y-91633235D01*
X151193271Y-91501897D01*
X151279025Y-91456061D01*
X151375851Y-91404306D01*
X151375854Y-91404305D01*
X151573968Y-91344207D01*
X151780000Y-91323915D01*
X151986031Y-91344207D01*
G37*
G36*
X206566031Y-91344207D02*
G01*
X206764145Y-91404305D01*
X206764148Y-91404306D01*
X206830030Y-91439521D01*
X206946729Y-91501897D01*
X207106765Y-91633235D01*
X207238103Y-91793271D01*
X207238104Y-91793273D01*
X207335694Y-91975851D01*
X207335694Y-91975852D01*
X207335695Y-91975854D01*
X207395793Y-92173968D01*
X207411000Y-92328370D01*
X207411000Y-93431630D01*
X207395793Y-93586032D01*
X207361524Y-93699000D01*
X207335694Y-93784149D01*
X207286854Y-93875521D01*
X207238103Y-93966729D01*
X207106765Y-94126765D01*
X206946729Y-94258103D01*
X206860975Y-94303939D01*
X206764149Y-94355694D01*
X206764146Y-94355695D01*
X206566032Y-94415793D01*
X206360000Y-94436085D01*
X206153969Y-94415793D01*
X205955855Y-94355695D01*
X205955852Y-94355694D01*
X205859026Y-94303939D01*
X205773272Y-94258103D01*
X205613236Y-94126765D01*
X205481898Y-93966729D01*
X205459184Y-93924234D01*
X205384305Y-93784147D01*
X205324207Y-93586030D01*
X205309000Y-93431631D01*
X205309000Y-92328370D01*
X205324207Y-92173971D01*
X205324207Y-92173969D01*
X205384305Y-91975855D01*
X205384306Y-91975852D01*
X205419521Y-91909970D01*
X205481897Y-91793271D01*
X205613235Y-91633235D01*
X205773271Y-91501897D01*
X205859025Y-91456061D01*
X205955851Y-91404306D01*
X205955854Y-91404305D01*
X206153968Y-91344207D01*
X206360000Y-91323915D01*
X206566031Y-91344207D01*
G37*
G36*
X174846031Y-91344207D02*
G01*
X175044145Y-91404305D01*
X175044148Y-91404306D01*
X175110030Y-91439521D01*
X175226729Y-91501897D01*
X175386765Y-91633235D01*
X175518103Y-91793271D01*
X175518104Y-91793273D01*
X175615694Y-91975851D01*
X175615694Y-91975852D01*
X175615695Y-91975854D01*
X175675793Y-92173968D01*
X175691000Y-92328370D01*
X175691000Y-93431630D01*
X175675793Y-93586032D01*
X175641524Y-93699000D01*
X175615694Y-93784149D01*
X175566854Y-93875521D01*
X175518103Y-93966729D01*
X175386765Y-94126765D01*
X175226729Y-94258103D01*
X175140975Y-94303939D01*
X175044149Y-94355694D01*
X175044146Y-94355695D01*
X174846032Y-94415793D01*
X174640000Y-94436085D01*
X174433969Y-94415793D01*
X174235855Y-94355695D01*
X174235852Y-94355694D01*
X174139026Y-94303939D01*
X174053272Y-94258103D01*
X173893236Y-94126765D01*
X173761898Y-93966729D01*
X173739184Y-93924235D01*
X173664305Y-93784147D01*
X173604207Y-93586030D01*
X173589000Y-93431631D01*
X173589000Y-92328370D01*
X173604207Y-92173971D01*
X173604207Y-92173969D01*
X173664305Y-91975855D01*
X173664306Y-91975852D01*
X173699521Y-91909970D01*
X173761897Y-91793271D01*
X173893235Y-91633235D01*
X174053271Y-91501897D01*
X174139025Y-91456061D01*
X174235851Y-91404306D01*
X174235854Y-91404305D01*
X174433968Y-91344207D01*
X174640000Y-91323915D01*
X174846031Y-91344207D01*
G37*
G36*
X160846031Y-91344207D02*
G01*
X161044145Y-91404305D01*
X161044148Y-91404306D01*
X161110030Y-91439521D01*
X161226729Y-91501897D01*
X161386765Y-91633235D01*
X161518103Y-91793271D01*
X161518104Y-91793273D01*
X161615694Y-91975851D01*
X161615694Y-91975852D01*
X161615695Y-91975854D01*
X161675793Y-92173968D01*
X161691000Y-92328370D01*
X161691000Y-93431630D01*
X161675793Y-93586032D01*
X161641524Y-93699000D01*
X161615694Y-93784149D01*
X161566854Y-93875521D01*
X161518103Y-93966729D01*
X161386765Y-94126765D01*
X161226729Y-94258103D01*
X161140975Y-94303939D01*
X161044149Y-94355694D01*
X161044146Y-94355695D01*
X160846032Y-94415793D01*
X160640000Y-94436085D01*
X160433969Y-94415793D01*
X160235855Y-94355695D01*
X160235852Y-94355694D01*
X160139026Y-94303939D01*
X160053272Y-94258103D01*
X159893236Y-94126765D01*
X159761898Y-93966729D01*
X159739184Y-93924235D01*
X159664305Y-93784147D01*
X159604207Y-93586030D01*
X159589000Y-93431631D01*
X159589000Y-92328370D01*
X159604207Y-92173971D01*
X159604207Y-92173969D01*
X159664305Y-91975855D01*
X159664306Y-91975852D01*
X159699521Y-91909970D01*
X159761897Y-91793271D01*
X159893235Y-91633235D01*
X160053271Y-91501897D01*
X160139025Y-91456061D01*
X160235851Y-91404306D01*
X160235854Y-91404305D01*
X160433968Y-91344207D01*
X160640000Y-91323915D01*
X160846031Y-91344207D01*
G37*
G36*
X129126031Y-91344207D02*
G01*
X129324145Y-91404305D01*
X129324148Y-91404306D01*
X129390030Y-91439521D01*
X129506729Y-91501897D01*
X129666765Y-91633235D01*
X129798103Y-91793271D01*
X129798104Y-91793273D01*
X129895694Y-91975851D01*
X129895694Y-91975852D01*
X129895695Y-91975854D01*
X129955793Y-92173968D01*
X129971000Y-92328370D01*
X129971000Y-93431630D01*
X129955793Y-93586032D01*
X129921524Y-93699000D01*
X129895694Y-93784149D01*
X129846854Y-93875521D01*
X129798103Y-93966729D01*
X129666765Y-94126765D01*
X129506729Y-94258103D01*
X129420975Y-94303939D01*
X129324149Y-94355694D01*
X129324146Y-94355695D01*
X129126032Y-94415793D01*
X128920000Y-94436085D01*
X128713969Y-94415793D01*
X128515855Y-94355695D01*
X128515852Y-94355694D01*
X128419026Y-94303939D01*
X128333272Y-94258103D01*
X128173236Y-94126765D01*
X128041898Y-93966729D01*
X128019184Y-93924235D01*
X127944305Y-93784147D01*
X127884207Y-93586030D01*
X127869000Y-93431631D01*
X127869000Y-92328370D01*
X127884207Y-92173971D01*
X127884207Y-92173969D01*
X127944305Y-91975855D01*
X127944306Y-91975852D01*
X127979521Y-91909970D01*
X128041897Y-91793271D01*
X128173235Y-91633235D01*
X128333271Y-91501897D01*
X128419025Y-91456061D01*
X128515851Y-91404306D01*
X128515854Y-91404305D01*
X128713968Y-91344207D01*
X128920000Y-91323915D01*
X129126031Y-91344207D01*
G37*
G36*
X115126031Y-91344207D02*
G01*
X115324145Y-91404305D01*
X115324148Y-91404306D01*
X115390030Y-91439521D01*
X115506729Y-91501897D01*
X115666765Y-91633235D01*
X115798103Y-91793271D01*
X115798104Y-91793273D01*
X115895694Y-91975851D01*
X115895694Y-91975852D01*
X115895695Y-91975854D01*
X115955793Y-92173968D01*
X115971000Y-92328370D01*
X115971000Y-93431630D01*
X115955793Y-93586032D01*
X115921524Y-93699000D01*
X115895694Y-93784149D01*
X115846854Y-93875521D01*
X115798103Y-93966729D01*
X115666765Y-94126765D01*
X115506729Y-94258103D01*
X115420975Y-94303939D01*
X115324149Y-94355694D01*
X115324146Y-94355695D01*
X115126032Y-94415793D01*
X114920000Y-94436085D01*
X114713969Y-94415793D01*
X114515855Y-94355695D01*
X114515852Y-94355694D01*
X114419026Y-94303939D01*
X114333272Y-94258103D01*
X114173236Y-94126765D01*
X114041898Y-93966729D01*
X114019184Y-93924235D01*
X113944305Y-93784147D01*
X113884207Y-93586030D01*
X113869000Y-93431631D01*
X113869000Y-92328370D01*
X113884207Y-92173971D01*
X113884207Y-92173969D01*
X113944305Y-91975855D01*
X113944306Y-91975852D01*
X113979521Y-91909970D01*
X114041897Y-91793271D01*
X114173235Y-91633235D01*
X114333271Y-91501897D01*
X114419025Y-91456061D01*
X114515851Y-91404306D01*
X114515854Y-91404305D01*
X114713968Y-91344207D01*
X114920000Y-91323915D01*
X115126031Y-91344207D01*
G37*
G36*
X92221030Y-91254207D02*
G01*
X92419144Y-91314305D01*
X92419147Y-91314306D01*
X92485029Y-91349521D01*
X92601728Y-91411897D01*
X92761764Y-91543235D01*
X92893102Y-91703271D01*
X92893103Y-91703273D01*
X92990693Y-91885851D01*
X92990693Y-91885852D01*
X92990694Y-91885854D01*
X93050792Y-92083968D01*
X93065999Y-92238370D01*
X93065999Y-93341630D01*
X93050792Y-93496032D01*
X93023491Y-93586030D01*
X92990693Y-93694149D01*
X92988100Y-93699000D01*
X92893102Y-93876729D01*
X92761764Y-94036765D01*
X92601728Y-94168103D01*
X92515974Y-94213939D01*
X92419148Y-94265694D01*
X92419145Y-94265695D01*
X92221031Y-94325793D01*
X92014999Y-94346085D01*
X91808968Y-94325793D01*
X91610854Y-94265695D01*
X91610851Y-94265694D01*
X91514025Y-94213939D01*
X91428271Y-94168103D01*
X91268235Y-94036765D01*
X91136897Y-93876729D01*
X91087411Y-93784147D01*
X91039304Y-93694147D01*
X90979206Y-93496030D01*
X90963999Y-93341631D01*
X90963999Y-92238370D01*
X90979206Y-92083971D01*
X90979206Y-92083969D01*
X91039304Y-91885855D01*
X91039305Y-91885852D01*
X91088791Y-91793271D01*
X91136896Y-91703271D01*
X91268234Y-91543235D01*
X91428270Y-91411897D01*
X91514024Y-91366061D01*
X91610850Y-91314306D01*
X91610853Y-91314305D01*
X91808967Y-91254207D01*
X92014999Y-91233915D01*
X92221030Y-91254207D01*
G37*
G36*
X106221030Y-91254207D02*
G01*
X106419144Y-91314305D01*
X106419147Y-91314306D01*
X106485029Y-91349521D01*
X106601728Y-91411897D01*
X106761764Y-91543235D01*
X106893102Y-91703271D01*
X106893103Y-91703273D01*
X106990693Y-91885851D01*
X106990693Y-91885852D01*
X106990694Y-91885854D01*
X107050792Y-92083968D01*
X107065999Y-92238370D01*
X107065999Y-93341630D01*
X107050792Y-93496032D01*
X107023491Y-93586030D01*
X106990693Y-93694149D01*
X106988100Y-93699000D01*
X106893102Y-93876729D01*
X106761764Y-94036765D01*
X106601728Y-94168103D01*
X106515974Y-94213939D01*
X106419148Y-94265694D01*
X106419145Y-94265695D01*
X106221031Y-94325793D01*
X106014999Y-94346085D01*
X105808968Y-94325793D01*
X105610854Y-94265695D01*
X105610851Y-94265694D01*
X105514025Y-94213939D01*
X105428271Y-94168103D01*
X105268235Y-94036765D01*
X105136897Y-93876729D01*
X105087411Y-93784147D01*
X105039304Y-93694147D01*
X104979206Y-93496030D01*
X104963999Y-93341631D01*
X104963999Y-92238370D01*
X104979206Y-92083971D01*
X104979206Y-92083969D01*
X105039304Y-91885855D01*
X105039305Y-91885852D01*
X105088791Y-91793271D01*
X105136896Y-91703271D01*
X105268234Y-91543235D01*
X105428270Y-91411897D01*
X105514024Y-91366061D01*
X105610850Y-91314306D01*
X105610853Y-91314305D01*
X105808967Y-91254207D01*
X106014999Y-91233915D01*
X106221030Y-91254207D01*
G37*
G36*
X168799375Y-89130764D02*
G01*
X168952626Y-89177252D01*
X168952629Y-89177253D01*
X169093863Y-89252744D01*
X169217659Y-89354341D01*
X169319256Y-89478137D01*
X169394747Y-89619370D01*
X169394747Y-89619371D01*
X169394748Y-89619373D01*
X169441236Y-89772624D01*
X169453000Y-89892067D01*
X169453000Y-90447932D01*
X169441236Y-90567376D01*
X169422049Y-90630627D01*
X169394747Y-90720630D01*
X169319256Y-90861863D01*
X169217659Y-90985659D01*
X169093863Y-91087256D01*
X168952630Y-91162747D01*
X168952627Y-91162748D01*
X168799376Y-91209236D01*
X168640000Y-91224933D01*
X168480625Y-91209236D01*
X168327374Y-91162748D01*
X168327371Y-91162747D01*
X168186138Y-91087256D01*
X168062342Y-90985659D01*
X167960746Y-90861865D01*
X167960745Y-90861863D01*
X167885252Y-90720627D01*
X167838764Y-90567376D01*
X167827000Y-90447933D01*
X167827000Y-89892068D01*
X167838764Y-89772625D01*
X167885252Y-89619374D01*
X167885253Y-89619371D01*
X167960744Y-89478137D01*
X168062341Y-89354341D01*
X168186137Y-89252744D01*
X168327370Y-89177253D01*
X168327373Y-89177252D01*
X168480624Y-89130764D01*
X168640000Y-89115067D01*
X168799375Y-89130764D01*
G37*
G36*
X171299375Y-89130764D02*
G01*
X171452626Y-89177252D01*
X171452629Y-89177253D01*
X171593863Y-89252744D01*
X171717659Y-89354341D01*
X171819256Y-89478137D01*
X171894747Y-89619370D01*
X171894747Y-89619371D01*
X171894748Y-89619373D01*
X171941236Y-89772624D01*
X171953000Y-89892067D01*
X171953000Y-90447932D01*
X171941236Y-90567376D01*
X171922049Y-90630627D01*
X171894747Y-90720630D01*
X171819256Y-90861863D01*
X171717659Y-90985659D01*
X171593863Y-91087256D01*
X171452630Y-91162747D01*
X171452627Y-91162748D01*
X171299376Y-91209236D01*
X171140000Y-91224933D01*
X170980625Y-91209236D01*
X170827374Y-91162748D01*
X170827371Y-91162747D01*
X170686138Y-91087256D01*
X170562342Y-90985659D01*
X170460746Y-90861865D01*
X170460745Y-90861863D01*
X170385252Y-90720627D01*
X170338764Y-90567376D01*
X170327000Y-90447933D01*
X170327000Y-89892068D01*
X170338764Y-89772625D01*
X170385252Y-89619374D01*
X170385253Y-89619371D01*
X170460744Y-89478137D01*
X170562341Y-89354341D01*
X170686137Y-89252744D01*
X170827370Y-89177253D01*
X170827373Y-89177252D01*
X170980624Y-89130764D01*
X171140000Y-89115067D01*
X171299375Y-89130764D01*
G37*
G36*
X143939375Y-89130764D02*
G01*
X144092626Y-89177252D01*
X144092629Y-89177253D01*
X144233863Y-89252744D01*
X144357659Y-89354341D01*
X144459256Y-89478137D01*
X144534747Y-89619370D01*
X144534747Y-89619371D01*
X144534748Y-89619373D01*
X144581236Y-89772624D01*
X144593000Y-89892067D01*
X144593000Y-90447932D01*
X144581236Y-90567376D01*
X144562049Y-90630627D01*
X144534747Y-90720630D01*
X144459256Y-90861863D01*
X144357659Y-90985659D01*
X144233863Y-91087256D01*
X144092630Y-91162747D01*
X144092627Y-91162748D01*
X143939376Y-91209236D01*
X143780000Y-91224933D01*
X143620625Y-91209236D01*
X143467374Y-91162748D01*
X143467371Y-91162747D01*
X143326138Y-91087256D01*
X143202342Y-90985659D01*
X143100746Y-90861865D01*
X143100745Y-90861863D01*
X143025252Y-90720627D01*
X142978764Y-90567376D01*
X142967000Y-90447933D01*
X142967000Y-89892068D01*
X142978764Y-89772625D01*
X143025252Y-89619374D01*
X143025253Y-89619371D01*
X143100744Y-89478137D01*
X143202341Y-89354341D01*
X143326137Y-89252744D01*
X143467370Y-89177253D01*
X143467373Y-89177252D01*
X143620624Y-89130764D01*
X143780000Y-89115067D01*
X143939375Y-89130764D01*
G37*
G36*
X145939375Y-89130764D02*
G01*
X146092626Y-89177252D01*
X146092629Y-89177253D01*
X146233863Y-89252744D01*
X146357659Y-89354341D01*
X146459256Y-89478137D01*
X146534747Y-89619370D01*
X146534747Y-89619371D01*
X146534748Y-89619373D01*
X146581236Y-89772624D01*
X146593000Y-89892067D01*
X146593000Y-90447932D01*
X146581236Y-90567376D01*
X146562049Y-90630627D01*
X146534747Y-90720630D01*
X146459256Y-90861863D01*
X146357659Y-90985659D01*
X146233863Y-91087256D01*
X146092630Y-91162747D01*
X146092627Y-91162748D01*
X145939376Y-91209236D01*
X145780000Y-91224933D01*
X145620625Y-91209236D01*
X145467374Y-91162748D01*
X145467371Y-91162747D01*
X145326138Y-91087256D01*
X145202342Y-90985659D01*
X145100746Y-90861865D01*
X145100745Y-90861863D01*
X145025252Y-90720627D01*
X144978764Y-90567376D01*
X144967000Y-90447933D01*
X144967000Y-89892068D01*
X144978764Y-89772625D01*
X145025252Y-89619374D01*
X145025253Y-89619371D01*
X145100744Y-89478137D01*
X145202341Y-89354341D01*
X145326137Y-89252744D01*
X145467370Y-89177253D01*
X145467373Y-89177252D01*
X145620624Y-89130764D01*
X145780000Y-89115067D01*
X145939375Y-89130764D01*
G37*
G36*
X189659375Y-89130764D02*
G01*
X189812626Y-89177252D01*
X189812629Y-89177253D01*
X189953863Y-89252744D01*
X190077659Y-89354341D01*
X190179256Y-89478137D01*
X190254747Y-89619370D01*
X190254747Y-89619371D01*
X190254748Y-89619373D01*
X190301236Y-89772624D01*
X190313000Y-89892067D01*
X190313000Y-90447932D01*
X190301236Y-90567376D01*
X190282049Y-90630627D01*
X190254747Y-90720630D01*
X190179256Y-90861863D01*
X190077659Y-90985659D01*
X189953863Y-91087256D01*
X189812630Y-91162747D01*
X189812627Y-91162748D01*
X189659376Y-91209236D01*
X189500000Y-91224933D01*
X189340625Y-91209236D01*
X189187374Y-91162748D01*
X189187371Y-91162747D01*
X189046138Y-91087256D01*
X188922342Y-90985659D01*
X188820746Y-90861865D01*
X188820745Y-90861863D01*
X188745252Y-90720627D01*
X188698764Y-90567376D01*
X188687000Y-90447933D01*
X188687000Y-89892068D01*
X188698764Y-89772625D01*
X188745252Y-89619374D01*
X188745253Y-89619371D01*
X188820744Y-89478137D01*
X188922341Y-89354341D01*
X189046137Y-89252744D01*
X189187370Y-89177253D01*
X189187373Y-89177252D01*
X189340624Y-89130764D01*
X189500000Y-89115067D01*
X189659375Y-89130764D01*
G37*
G36*
X191659375Y-89130764D02*
G01*
X191812626Y-89177252D01*
X191812629Y-89177253D01*
X191953863Y-89252744D01*
X192077659Y-89354341D01*
X192179256Y-89478137D01*
X192254747Y-89619370D01*
X192254747Y-89619371D01*
X192254748Y-89619373D01*
X192301236Y-89772624D01*
X192313000Y-89892067D01*
X192313000Y-90447932D01*
X192301236Y-90567376D01*
X192282049Y-90630627D01*
X192254747Y-90720630D01*
X192179256Y-90861863D01*
X192077659Y-90985659D01*
X191953863Y-91087256D01*
X191812630Y-91162747D01*
X191812627Y-91162748D01*
X191659376Y-91209236D01*
X191500000Y-91224933D01*
X191340625Y-91209236D01*
X191187374Y-91162748D01*
X191187371Y-91162747D01*
X191046138Y-91087256D01*
X190922342Y-90985659D01*
X190820746Y-90861865D01*
X190820745Y-90861863D01*
X190745252Y-90720627D01*
X190698764Y-90567376D01*
X190687000Y-90447933D01*
X190687000Y-89892068D01*
X190698764Y-89772625D01*
X190745252Y-89619374D01*
X190745253Y-89619371D01*
X190820744Y-89478137D01*
X190922341Y-89354341D01*
X191046137Y-89252744D01*
X191187370Y-89177253D01*
X191187373Y-89177252D01*
X191340624Y-89130764D01*
X191500000Y-89115067D01*
X191659375Y-89130764D01*
G37*
G36*
X141439375Y-89130764D02*
G01*
X141592626Y-89177252D01*
X141592629Y-89177253D01*
X141733863Y-89252744D01*
X141857659Y-89354341D01*
X141959256Y-89478137D01*
X142034747Y-89619370D01*
X142034747Y-89619371D01*
X142034748Y-89619373D01*
X142081236Y-89772624D01*
X142093000Y-89892067D01*
X142093000Y-90447932D01*
X142081236Y-90567376D01*
X142062049Y-90630627D01*
X142034747Y-90720630D01*
X141959256Y-90861863D01*
X141857659Y-90985659D01*
X141733863Y-91087256D01*
X141592630Y-91162747D01*
X141592627Y-91162748D01*
X141439376Y-91209236D01*
X141280000Y-91224933D01*
X141120625Y-91209236D01*
X140967374Y-91162748D01*
X140967371Y-91162747D01*
X140826138Y-91087256D01*
X140702342Y-90985659D01*
X140600746Y-90861865D01*
X140600745Y-90861863D01*
X140525252Y-90720627D01*
X140478764Y-90567376D01*
X140467000Y-90447933D01*
X140467000Y-89892068D01*
X140478764Y-89772625D01*
X140525252Y-89619374D01*
X140525253Y-89619371D01*
X140600744Y-89478137D01*
X140702341Y-89354341D01*
X140826137Y-89252744D01*
X140967370Y-89177253D01*
X140967373Y-89177252D01*
X141120624Y-89130764D01*
X141280000Y-89115067D01*
X141439375Y-89130764D01*
G37*
G36*
X194159375Y-89130764D02*
G01*
X194312626Y-89177252D01*
X194312629Y-89177253D01*
X194453863Y-89252744D01*
X194577659Y-89354341D01*
X194679256Y-89478137D01*
X194754747Y-89619370D01*
X194754747Y-89619371D01*
X194754748Y-89619373D01*
X194801236Y-89772624D01*
X194813000Y-89892067D01*
X194813000Y-90447932D01*
X194801236Y-90567376D01*
X194782049Y-90630627D01*
X194754747Y-90720630D01*
X194679256Y-90861863D01*
X194577659Y-90985659D01*
X194453863Y-91087256D01*
X194312630Y-91162747D01*
X194312627Y-91162748D01*
X194159376Y-91209236D01*
X194000000Y-91224933D01*
X193840625Y-91209236D01*
X193687374Y-91162748D01*
X193687371Y-91162747D01*
X193546138Y-91087256D01*
X193422342Y-90985659D01*
X193320746Y-90861865D01*
X193320745Y-90861863D01*
X193245252Y-90720627D01*
X193198764Y-90567376D01*
X193187000Y-90447933D01*
X193187000Y-89892068D01*
X193198764Y-89772625D01*
X193245252Y-89619374D01*
X193245253Y-89619371D01*
X193320744Y-89478137D01*
X193422341Y-89354341D01*
X193546137Y-89252744D01*
X193687370Y-89177253D01*
X193687373Y-89177252D01*
X193840624Y-89130764D01*
X194000000Y-89115067D01*
X194159375Y-89130764D01*
G37*
G36*
X121079375Y-89130764D02*
G01*
X121232626Y-89177252D01*
X121232629Y-89177253D01*
X121373863Y-89252744D01*
X121497659Y-89354341D01*
X121599256Y-89478137D01*
X121674747Y-89619370D01*
X121674747Y-89619371D01*
X121674748Y-89619373D01*
X121721236Y-89772624D01*
X121733000Y-89892067D01*
X121733000Y-90447932D01*
X121721236Y-90567376D01*
X121702049Y-90630627D01*
X121674747Y-90720630D01*
X121599256Y-90861863D01*
X121497659Y-90985659D01*
X121373863Y-91087256D01*
X121232630Y-91162747D01*
X121232627Y-91162748D01*
X121079376Y-91209236D01*
X120920000Y-91224933D01*
X120760625Y-91209236D01*
X120607374Y-91162748D01*
X120607371Y-91162747D01*
X120466138Y-91087256D01*
X120342342Y-90985659D01*
X120240746Y-90861865D01*
X120240745Y-90861863D01*
X120165252Y-90720627D01*
X120118764Y-90567376D01*
X120107000Y-90447933D01*
X120107000Y-89892068D01*
X120118764Y-89772625D01*
X120165252Y-89619374D01*
X120165253Y-89619371D01*
X120240744Y-89478137D01*
X120342341Y-89354341D01*
X120466137Y-89252744D01*
X120607370Y-89177253D01*
X120607373Y-89177252D01*
X120760624Y-89130764D01*
X120920000Y-89115067D01*
X121079375Y-89130764D01*
G37*
G36*
X123079375Y-89130764D02*
G01*
X123232626Y-89177252D01*
X123232629Y-89177253D01*
X123373863Y-89252744D01*
X123497659Y-89354341D01*
X123599256Y-89478137D01*
X123674747Y-89619370D01*
X123674747Y-89619371D01*
X123674748Y-89619373D01*
X123721236Y-89772624D01*
X123733000Y-89892067D01*
X123733000Y-90447932D01*
X123721236Y-90567376D01*
X123702049Y-90630627D01*
X123674747Y-90720630D01*
X123599256Y-90861863D01*
X123497659Y-90985659D01*
X123373863Y-91087256D01*
X123232630Y-91162747D01*
X123232627Y-91162748D01*
X123079376Y-91209236D01*
X122920000Y-91224933D01*
X122760625Y-91209236D01*
X122607374Y-91162748D01*
X122607371Y-91162747D01*
X122466138Y-91087256D01*
X122342342Y-90985659D01*
X122240746Y-90861865D01*
X122240745Y-90861863D01*
X122165252Y-90720627D01*
X122118764Y-90567376D01*
X122107000Y-90447933D01*
X122107000Y-89892068D01*
X122118764Y-89772625D01*
X122165252Y-89619374D01*
X122165253Y-89619371D01*
X122240744Y-89478137D01*
X122342341Y-89354341D01*
X122466137Y-89252744D01*
X122607370Y-89177253D01*
X122607373Y-89177252D01*
X122760624Y-89130764D01*
X122920000Y-89115067D01*
X123079375Y-89130764D01*
G37*
G36*
X164299375Y-89130764D02*
G01*
X164452626Y-89177252D01*
X164452629Y-89177253D01*
X164593863Y-89252744D01*
X164717659Y-89354341D01*
X164819256Y-89478137D01*
X164894747Y-89619370D01*
X164894747Y-89619371D01*
X164894748Y-89619373D01*
X164941236Y-89772624D01*
X164953000Y-89892067D01*
X164953000Y-90447932D01*
X164941236Y-90567376D01*
X164922049Y-90630627D01*
X164894747Y-90720630D01*
X164819256Y-90861863D01*
X164717659Y-90985659D01*
X164593863Y-91087256D01*
X164452630Y-91162747D01*
X164452627Y-91162748D01*
X164299376Y-91209236D01*
X164140000Y-91224933D01*
X163980625Y-91209236D01*
X163827374Y-91162748D01*
X163827371Y-91162747D01*
X163686138Y-91087256D01*
X163562342Y-90985659D01*
X163460746Y-90861865D01*
X163460745Y-90861863D01*
X163385252Y-90720627D01*
X163338764Y-90567376D01*
X163327000Y-90447933D01*
X163327000Y-89892068D01*
X163338764Y-89772625D01*
X163385252Y-89619374D01*
X163385253Y-89619371D01*
X163460744Y-89478137D01*
X163562341Y-89354341D01*
X163686137Y-89252744D01*
X163827370Y-89177253D01*
X163827373Y-89177252D01*
X163980624Y-89130764D01*
X164140000Y-89115067D01*
X164299375Y-89130764D01*
G37*
G36*
X187159375Y-89130764D02*
G01*
X187312626Y-89177252D01*
X187312629Y-89177253D01*
X187453863Y-89252744D01*
X187577659Y-89354341D01*
X187679256Y-89478137D01*
X187754747Y-89619370D01*
X187754747Y-89619371D01*
X187754748Y-89619373D01*
X187801236Y-89772624D01*
X187813000Y-89892067D01*
X187813000Y-90447932D01*
X187801236Y-90567376D01*
X187782049Y-90630627D01*
X187754747Y-90720630D01*
X187679256Y-90861863D01*
X187577659Y-90985659D01*
X187453863Y-91087256D01*
X187312630Y-91162747D01*
X187312627Y-91162748D01*
X187159376Y-91209236D01*
X187000000Y-91224933D01*
X186840625Y-91209236D01*
X186687374Y-91162748D01*
X186687371Y-91162747D01*
X186546138Y-91087256D01*
X186422342Y-90985659D01*
X186320746Y-90861865D01*
X186320745Y-90861863D01*
X186245252Y-90720627D01*
X186198764Y-90567376D01*
X186187000Y-90447933D01*
X186187000Y-89892068D01*
X186198764Y-89772625D01*
X186245252Y-89619374D01*
X186245253Y-89619371D01*
X186320744Y-89478137D01*
X186422341Y-89354341D01*
X186546137Y-89252744D01*
X186687370Y-89177253D01*
X186687373Y-89177252D01*
X186840624Y-89130764D01*
X187000000Y-89115067D01*
X187159375Y-89130764D01*
G37*
G36*
X125579375Y-89130764D02*
G01*
X125732626Y-89177252D01*
X125732629Y-89177253D01*
X125873863Y-89252744D01*
X125997659Y-89354341D01*
X126099256Y-89478137D01*
X126174747Y-89619370D01*
X126174747Y-89619371D01*
X126174748Y-89619373D01*
X126221236Y-89772624D01*
X126233000Y-89892067D01*
X126233000Y-90447932D01*
X126221236Y-90567376D01*
X126202049Y-90630627D01*
X126174747Y-90720630D01*
X126099256Y-90861863D01*
X125997659Y-90985659D01*
X125873863Y-91087256D01*
X125732630Y-91162747D01*
X125732627Y-91162748D01*
X125579376Y-91209236D01*
X125420000Y-91224933D01*
X125260625Y-91209236D01*
X125107374Y-91162748D01*
X125107371Y-91162747D01*
X124966138Y-91087256D01*
X124842342Y-90985659D01*
X124740746Y-90861865D01*
X124740745Y-90861863D01*
X124665252Y-90720627D01*
X124618764Y-90567376D01*
X124607000Y-90447933D01*
X124607000Y-89892068D01*
X124618764Y-89772625D01*
X124665252Y-89619374D01*
X124665253Y-89619371D01*
X124740744Y-89478137D01*
X124842341Y-89354341D01*
X124966137Y-89252744D01*
X125107370Y-89177253D01*
X125107373Y-89177252D01*
X125260624Y-89130764D01*
X125420000Y-89115067D01*
X125579375Y-89130764D01*
G37*
G36*
X118579375Y-89130764D02*
G01*
X118732626Y-89177252D01*
X118732629Y-89177253D01*
X118873863Y-89252744D01*
X118997659Y-89354341D01*
X119099256Y-89478137D01*
X119174747Y-89619370D01*
X119174747Y-89619371D01*
X119174748Y-89619373D01*
X119221236Y-89772624D01*
X119233000Y-89892067D01*
X119233000Y-90447932D01*
X119221236Y-90567376D01*
X119202049Y-90630627D01*
X119174747Y-90720630D01*
X119099256Y-90861863D01*
X118997659Y-90985659D01*
X118873863Y-91087256D01*
X118732630Y-91162747D01*
X118732627Y-91162748D01*
X118579376Y-91209236D01*
X118420000Y-91224933D01*
X118260625Y-91209236D01*
X118107374Y-91162748D01*
X118107371Y-91162747D01*
X117966138Y-91087256D01*
X117842342Y-90985659D01*
X117740746Y-90861865D01*
X117740745Y-90861863D01*
X117665252Y-90720627D01*
X117618764Y-90567376D01*
X117607000Y-90447933D01*
X117607000Y-89892068D01*
X117618764Y-89772625D01*
X117665252Y-89619374D01*
X117665253Y-89619371D01*
X117740744Y-89478137D01*
X117842341Y-89354341D01*
X117966137Y-89252744D01*
X118107370Y-89177253D01*
X118107373Y-89177252D01*
X118260624Y-89130764D01*
X118420000Y-89115067D01*
X118579375Y-89130764D01*
G37*
G36*
X166799375Y-89130764D02*
G01*
X166952626Y-89177252D01*
X166952629Y-89177253D01*
X167093863Y-89252744D01*
X167217659Y-89354341D01*
X167319256Y-89478137D01*
X167394747Y-89619370D01*
X167394747Y-89619371D01*
X167394748Y-89619373D01*
X167441236Y-89772624D01*
X167453000Y-89892067D01*
X167453000Y-90447932D01*
X167441236Y-90567376D01*
X167422049Y-90630627D01*
X167394747Y-90720630D01*
X167319256Y-90861863D01*
X167217659Y-90985659D01*
X167093863Y-91087256D01*
X166952630Y-91162747D01*
X166952627Y-91162748D01*
X166799376Y-91209236D01*
X166640000Y-91224933D01*
X166480625Y-91209236D01*
X166327374Y-91162748D01*
X166327371Y-91162747D01*
X166186138Y-91087256D01*
X166062342Y-90985659D01*
X165960746Y-90861865D01*
X165960745Y-90861863D01*
X165885252Y-90720627D01*
X165838764Y-90567376D01*
X165827000Y-90447933D01*
X165827000Y-89892068D01*
X165838764Y-89772625D01*
X165885252Y-89619374D01*
X165885253Y-89619371D01*
X165960744Y-89478137D01*
X166062341Y-89354341D01*
X166186137Y-89252744D01*
X166327370Y-89177253D01*
X166327373Y-89177252D01*
X166480624Y-89130764D01*
X166640000Y-89115067D01*
X166799375Y-89130764D01*
G37*
G36*
X217019375Y-89130764D02*
G01*
X217172626Y-89177252D01*
X217172629Y-89177253D01*
X217313863Y-89252744D01*
X217437659Y-89354341D01*
X217539256Y-89478137D01*
X217614747Y-89619370D01*
X217614747Y-89619371D01*
X217614748Y-89619373D01*
X217661236Y-89772624D01*
X217673000Y-89892067D01*
X217673000Y-90447932D01*
X217661236Y-90567376D01*
X217642049Y-90630627D01*
X217614747Y-90720630D01*
X217539256Y-90861863D01*
X217437659Y-90985659D01*
X217313863Y-91087256D01*
X217172630Y-91162747D01*
X217172627Y-91162748D01*
X217019376Y-91209236D01*
X216860000Y-91224933D01*
X216700625Y-91209236D01*
X216547374Y-91162748D01*
X216547371Y-91162747D01*
X216406138Y-91087256D01*
X216282342Y-90985659D01*
X216180746Y-90861865D01*
X216180745Y-90861863D01*
X216105252Y-90720627D01*
X216058764Y-90567376D01*
X216047000Y-90447933D01*
X216047000Y-89892068D01*
X216058764Y-89772625D01*
X216105252Y-89619374D01*
X216105253Y-89619371D01*
X216180744Y-89478137D01*
X216282341Y-89354341D01*
X216406137Y-89252744D01*
X216547370Y-89177253D01*
X216547373Y-89177252D01*
X216700624Y-89130764D01*
X216860000Y-89115067D01*
X217019375Y-89130764D01*
G37*
G36*
X214519375Y-89130764D02*
G01*
X214672626Y-89177252D01*
X214672629Y-89177253D01*
X214813863Y-89252744D01*
X214937659Y-89354341D01*
X215039256Y-89478137D01*
X215114747Y-89619370D01*
X215114747Y-89619371D01*
X215114748Y-89619373D01*
X215161236Y-89772624D01*
X215173000Y-89892067D01*
X215173000Y-90447932D01*
X215161236Y-90567376D01*
X215142049Y-90630627D01*
X215114747Y-90720630D01*
X215039256Y-90861863D01*
X214937659Y-90985659D01*
X214813863Y-91087256D01*
X214672630Y-91162747D01*
X214672627Y-91162748D01*
X214519376Y-91209236D01*
X214360000Y-91224933D01*
X214200625Y-91209236D01*
X214047374Y-91162748D01*
X214047371Y-91162747D01*
X213906138Y-91087256D01*
X213782342Y-90985659D01*
X213680746Y-90861865D01*
X213680745Y-90861863D01*
X213605252Y-90720627D01*
X213558764Y-90567376D01*
X213547000Y-90447933D01*
X213547000Y-89892068D01*
X213558764Y-89772625D01*
X213605252Y-89619374D01*
X213605253Y-89619371D01*
X213680744Y-89478137D01*
X213782341Y-89354341D01*
X213906137Y-89252744D01*
X214047370Y-89177253D01*
X214047373Y-89177252D01*
X214200624Y-89130764D01*
X214360000Y-89115067D01*
X214519375Y-89130764D01*
G37*
G36*
X212519375Y-89130764D02*
G01*
X212672626Y-89177252D01*
X212672629Y-89177253D01*
X212813863Y-89252744D01*
X212937659Y-89354341D01*
X213039256Y-89478137D01*
X213114747Y-89619370D01*
X213114747Y-89619371D01*
X213114748Y-89619373D01*
X213161236Y-89772624D01*
X213173000Y-89892067D01*
X213173000Y-90447932D01*
X213161236Y-90567376D01*
X213142049Y-90630627D01*
X213114747Y-90720630D01*
X213039256Y-90861863D01*
X212937659Y-90985659D01*
X212813863Y-91087256D01*
X212672630Y-91162747D01*
X212672627Y-91162748D01*
X212519376Y-91209236D01*
X212360000Y-91224933D01*
X212200625Y-91209236D01*
X212047374Y-91162748D01*
X212047371Y-91162747D01*
X211906138Y-91087256D01*
X211782342Y-90985659D01*
X211680746Y-90861865D01*
X211680745Y-90861863D01*
X211605252Y-90720627D01*
X211558764Y-90567376D01*
X211547000Y-90447933D01*
X211547000Y-89892068D01*
X211558764Y-89772625D01*
X211605252Y-89619374D01*
X211605253Y-89619371D01*
X211680744Y-89478137D01*
X211782341Y-89354341D01*
X211906137Y-89252744D01*
X212047370Y-89177253D01*
X212047373Y-89177252D01*
X212200624Y-89130764D01*
X212360000Y-89115067D01*
X212519375Y-89130764D01*
G37*
G36*
X210019375Y-89130764D02*
G01*
X210172626Y-89177252D01*
X210172629Y-89177253D01*
X210313863Y-89252744D01*
X210437659Y-89354341D01*
X210539256Y-89478137D01*
X210614747Y-89619370D01*
X210614747Y-89619371D01*
X210614748Y-89619373D01*
X210661236Y-89772624D01*
X210673000Y-89892067D01*
X210673000Y-90447932D01*
X210661236Y-90567376D01*
X210642049Y-90630627D01*
X210614747Y-90720630D01*
X210539256Y-90861863D01*
X210437659Y-90985659D01*
X210313863Y-91087256D01*
X210172630Y-91162747D01*
X210172627Y-91162748D01*
X210019376Y-91209236D01*
X209860000Y-91224933D01*
X209700625Y-91209236D01*
X209547374Y-91162748D01*
X209547371Y-91162747D01*
X209406138Y-91087256D01*
X209282342Y-90985659D01*
X209180746Y-90861865D01*
X209180745Y-90861863D01*
X209105252Y-90720627D01*
X209058764Y-90567376D01*
X209047000Y-90447933D01*
X209047000Y-89892068D01*
X209058764Y-89772625D01*
X209105252Y-89619374D01*
X209105253Y-89619371D01*
X209180744Y-89478137D01*
X209282341Y-89354341D01*
X209406137Y-89252744D01*
X209547370Y-89177253D01*
X209547373Y-89177252D01*
X209700624Y-89130764D01*
X209860000Y-89115067D01*
X210019375Y-89130764D01*
G37*
G36*
X148439375Y-89130764D02*
G01*
X148592626Y-89177252D01*
X148592629Y-89177253D01*
X148733863Y-89252744D01*
X148857659Y-89354341D01*
X148959256Y-89478137D01*
X149034747Y-89619370D01*
X149034747Y-89619371D01*
X149034748Y-89619373D01*
X149081236Y-89772624D01*
X149093000Y-89892067D01*
X149093000Y-90447932D01*
X149081236Y-90567376D01*
X149062049Y-90630627D01*
X149034747Y-90720630D01*
X148959256Y-90861863D01*
X148857659Y-90985659D01*
X148733863Y-91087256D01*
X148592630Y-91162747D01*
X148592627Y-91162748D01*
X148439376Y-91209236D01*
X148280000Y-91224933D01*
X148120625Y-91209236D01*
X147967374Y-91162748D01*
X147967371Y-91162747D01*
X147826138Y-91087256D01*
X147702342Y-90985659D01*
X147600746Y-90861865D01*
X147600745Y-90861863D01*
X147525252Y-90720627D01*
X147478764Y-90567376D01*
X147467000Y-90447933D01*
X147467000Y-89892068D01*
X147478764Y-89772625D01*
X147525252Y-89619374D01*
X147525253Y-89619371D01*
X147600744Y-89478137D01*
X147702341Y-89354341D01*
X147826137Y-89252744D01*
X147967370Y-89177253D01*
X147967373Y-89177252D01*
X148120624Y-89130764D01*
X148280000Y-89115067D01*
X148439375Y-89130764D01*
G37*
G36*
X102674374Y-89040764D02*
G01*
X102827625Y-89087252D01*
X102827628Y-89087253D01*
X102968862Y-89162744D01*
X103092658Y-89264341D01*
X103194255Y-89388137D01*
X103269746Y-89529370D01*
X103269746Y-89529371D01*
X103269747Y-89529373D01*
X103316235Y-89682624D01*
X103327999Y-89802067D01*
X103327999Y-90357932D01*
X103316235Y-90477376D01*
X103288934Y-90567376D01*
X103269746Y-90630630D01*
X103194255Y-90771863D01*
X103092658Y-90895659D01*
X102968862Y-90997256D01*
X102827629Y-91072747D01*
X102827626Y-91072748D01*
X102674375Y-91119236D01*
X102514999Y-91134933D01*
X102355624Y-91119236D01*
X102202373Y-91072748D01*
X102202370Y-91072747D01*
X102061137Y-90997256D01*
X101937341Y-90895659D01*
X101835745Y-90771865D01*
X101835744Y-90771863D01*
X101760251Y-90630627D01*
X101713763Y-90477376D01*
X101701999Y-90357933D01*
X101701999Y-89802068D01*
X101713763Y-89682625D01*
X101760251Y-89529374D01*
X101760252Y-89529371D01*
X101835743Y-89388137D01*
X101937340Y-89264341D01*
X102061136Y-89162744D01*
X102202369Y-89087253D01*
X102202372Y-89087252D01*
X102355623Y-89040764D01*
X102514999Y-89025067D01*
X102674374Y-89040764D01*
G37*
G36*
X100174374Y-89040764D02*
G01*
X100327625Y-89087252D01*
X100327628Y-89087253D01*
X100468862Y-89162744D01*
X100592658Y-89264341D01*
X100694255Y-89388137D01*
X100769746Y-89529370D01*
X100769746Y-89529371D01*
X100769747Y-89529373D01*
X100816235Y-89682624D01*
X100827999Y-89802067D01*
X100827999Y-90357932D01*
X100816235Y-90477376D01*
X100788934Y-90567376D01*
X100769746Y-90630630D01*
X100694255Y-90771863D01*
X100592658Y-90895659D01*
X100468862Y-90997256D01*
X100327629Y-91072747D01*
X100327626Y-91072748D01*
X100174375Y-91119236D01*
X100014999Y-91134933D01*
X99855624Y-91119236D01*
X99702373Y-91072748D01*
X99702370Y-91072747D01*
X99561137Y-90997256D01*
X99437341Y-90895659D01*
X99335745Y-90771865D01*
X99335744Y-90771863D01*
X99260251Y-90630627D01*
X99213763Y-90477376D01*
X99201999Y-90357933D01*
X99201999Y-89802068D01*
X99213763Y-89682625D01*
X99260251Y-89529374D01*
X99260252Y-89529371D01*
X99335743Y-89388137D01*
X99437340Y-89264341D01*
X99561136Y-89162744D01*
X99702369Y-89087253D01*
X99702372Y-89087252D01*
X99855623Y-89040764D01*
X100014999Y-89025067D01*
X100174374Y-89040764D01*
G37*
G36*
X98174374Y-89040764D02*
G01*
X98327625Y-89087252D01*
X98327628Y-89087253D01*
X98468862Y-89162744D01*
X98592658Y-89264341D01*
X98694255Y-89388137D01*
X98769746Y-89529370D01*
X98769746Y-89529371D01*
X98769747Y-89529373D01*
X98816235Y-89682624D01*
X98827999Y-89802067D01*
X98827999Y-90357932D01*
X98816235Y-90477376D01*
X98788934Y-90567376D01*
X98769746Y-90630630D01*
X98694255Y-90771863D01*
X98592658Y-90895659D01*
X98468862Y-90997256D01*
X98327629Y-91072747D01*
X98327626Y-91072748D01*
X98174375Y-91119236D01*
X98014999Y-91134933D01*
X97855624Y-91119236D01*
X97702373Y-91072748D01*
X97702370Y-91072747D01*
X97561137Y-90997256D01*
X97437341Y-90895659D01*
X97335745Y-90771865D01*
X97335744Y-90771863D01*
X97260251Y-90630627D01*
X97213763Y-90477376D01*
X97201999Y-90357933D01*
X97201999Y-89802068D01*
X97213763Y-89682625D01*
X97260251Y-89529374D01*
X97260252Y-89529371D01*
X97335743Y-89388137D01*
X97437340Y-89264341D01*
X97561136Y-89162744D01*
X97702369Y-89087253D01*
X97702372Y-89087252D01*
X97855623Y-89040764D01*
X98014999Y-89025067D01*
X98174374Y-89040764D01*
G37*
G36*
X95674374Y-89040764D02*
G01*
X95827625Y-89087252D01*
X95827628Y-89087253D01*
X95968862Y-89162744D01*
X96092658Y-89264341D01*
X96194255Y-89388137D01*
X96269746Y-89529370D01*
X96269746Y-89529371D01*
X96269747Y-89529373D01*
X96316235Y-89682624D01*
X96327999Y-89802067D01*
X96327999Y-90357932D01*
X96316235Y-90477376D01*
X96288934Y-90567376D01*
X96269746Y-90630630D01*
X96194255Y-90771863D01*
X96092658Y-90895659D01*
X95968862Y-90997256D01*
X95827629Y-91072747D01*
X95827626Y-91072748D01*
X95674375Y-91119236D01*
X95514999Y-91134933D01*
X95355624Y-91119236D01*
X95202373Y-91072748D01*
X95202370Y-91072747D01*
X95061137Y-90997256D01*
X94937341Y-90895659D01*
X94835745Y-90771865D01*
X94835744Y-90771863D01*
X94760251Y-90630627D01*
X94713763Y-90477376D01*
X94701999Y-90357933D01*
X94701999Y-89802068D01*
X94713763Y-89682625D01*
X94760251Y-89529374D01*
X94760252Y-89529371D01*
X94835743Y-89388137D01*
X94937340Y-89264341D01*
X95061136Y-89162744D01*
X95202369Y-89087253D01*
X95202372Y-89087252D01*
X95355623Y-89040764D01*
X95514999Y-89025067D01*
X95674374Y-89040764D01*
G37*
G36*
X219074239Y-73011467D02*
G01*
X219388282Y-73073934D01*
X219979926Y-73319001D01*
X220512392Y-73674784D01*
X220965216Y-74127608D01*
X221320999Y-74660074D01*
X221566066Y-75251718D01*
X221566066Y-75251719D01*
X221691000Y-75879803D01*
X221691000Y-76520197D01*
X221628533Y-76834239D01*
X221566066Y-77148282D01*
X221320999Y-77739926D01*
X220965216Y-78272392D01*
X220512392Y-78725216D01*
X219979926Y-79080999D01*
X219388282Y-79326066D01*
X219074239Y-79388533D01*
X218760197Y-79451000D01*
X218119803Y-79451000D01*
X217805761Y-79388533D01*
X217491718Y-79326066D01*
X216900074Y-79080999D01*
X216367608Y-78725216D01*
X215914784Y-78272392D01*
X215559001Y-77739926D01*
X215313934Y-77148282D01*
X215251467Y-76834239D01*
X215189000Y-76520197D01*
X215189000Y-75879803D01*
X215313934Y-75251719D01*
X215313934Y-75251718D01*
X215559001Y-74660074D01*
X215914784Y-74127608D01*
X216367608Y-73674784D01*
X216900074Y-73319001D01*
X217491718Y-73073934D01*
X217805761Y-73011467D01*
X218119803Y-72949000D01*
X218760197Y-72949000D01*
X219074239Y-73011467D01*
G37*
G36*
X94614239Y-73011467D02*
G01*
X94928282Y-73073934D01*
X95519926Y-73319001D01*
X96052392Y-73674784D01*
X96505216Y-74127608D01*
X96860999Y-74660074D01*
X97106066Y-75251718D01*
X97106066Y-75251719D01*
X97231000Y-75879803D01*
X97231000Y-76520197D01*
X97168533Y-76834239D01*
X97106066Y-77148282D01*
X96860999Y-77739926D01*
X96505216Y-78272392D01*
X96052392Y-78725216D01*
X95519926Y-79080999D01*
X94928282Y-79326066D01*
X94614239Y-79388533D01*
X94300197Y-79451000D01*
X93659803Y-79451000D01*
X93345761Y-79388533D01*
X93031718Y-79326066D01*
X92440074Y-79080999D01*
X91907608Y-78725216D01*
X91454784Y-78272392D01*
X91099001Y-77739926D01*
X90853934Y-77148282D01*
X90791467Y-76834239D01*
X90729000Y-76520197D01*
X90729000Y-75879803D01*
X90853934Y-75251719D01*
X90853934Y-75251718D01*
X91099001Y-74660074D01*
X91454784Y-74127608D01*
X91907608Y-73674784D01*
X92440074Y-73319001D01*
X93031718Y-73073934D01*
X93345761Y-73011467D01*
X93659803Y-72949000D01*
X94300197Y-72949000D01*
X94614239Y-73011467D01*
G37*
G36*
X153972585Y-73408802D02*
G01*
X154122410Y-73438604D01*
X154404674Y-73555521D01*
X154658705Y-73725259D01*
X154874741Y-73941295D01*
X155044479Y-74195326D01*
X155161396Y-74477590D01*
X155161396Y-74477591D01*
X155192607Y-74634496D01*
X155221000Y-74777240D01*
X155221000Y-75082760D01*
X155161396Y-75382410D01*
X155044479Y-75664674D01*
X154874741Y-75918705D01*
X154658705Y-76134741D01*
X154404674Y-76304479D01*
X154122410Y-76421396D01*
X153972585Y-76451198D01*
X153822761Y-76481000D01*
X153517239Y-76481000D01*
X153367415Y-76451198D01*
X153217590Y-76421396D01*
X152935326Y-76304479D01*
X152681295Y-76134741D01*
X152465259Y-75918705D01*
X152295521Y-75664674D01*
X152178604Y-75382410D01*
X152119000Y-75082760D01*
X152119000Y-74777240D01*
X152147394Y-74634496D01*
X152178604Y-74477591D01*
X152178604Y-74477590D01*
X152295521Y-74195326D01*
X152465259Y-73941295D01*
X152681295Y-73725259D01*
X152935326Y-73555521D01*
X153217590Y-73438604D01*
X153367415Y-73408802D01*
X153517239Y-73379000D01*
X153822761Y-73379000D01*
X153972585Y-73408802D01*
G37*
G36*
X160301000Y-76481000D02*
G01*
X157199000Y-76481000D01*
X157199000Y-73379000D01*
X160301000Y-73379000D01*
X160301000Y-76481000D01*
G37*
M02*
