G04 #@! TF.GenerationSoftware,KiCad,Pcbnew,5.1.6*
G04 #@! TF.CreationDate,2020-05-20T11:34:49+02:00*
G04 #@! TF.ProjectId,5V_power_dist,35565f70-6f77-4657-925f-646973742e6b,rev?*
G04 #@! TF.SameCoordinates,Original*
G04 #@! TF.FileFunction,Legend,Top*
G04 #@! TF.FilePolarity,Positive*
%FSLAX46Y46*%
G04 Gerber Fmt 4.6, Leading zero omitted, Abs format (unit mm)*
G04 Created by KiCad (PCBNEW 5.1.6) date 2020-05-20 11:34:49*
%MOMM*%
%LPD*%
G01*
G04 APERTURE LIST*
%ADD10C,0.150000*%
%ADD11C,0.120000*%
G04 APERTURE END LIST*
D10*
X183769047Y-96591428D02*
X184530952Y-96591428D01*
X184150000Y-96972380D02*
X184150000Y-96210476D01*
X160909047Y-96591428D02*
X161670952Y-96591428D01*
X161290000Y-96972380D02*
X161290000Y-96210476D01*
X138049047Y-96591428D02*
X138810952Y-96591428D01*
X138430000Y-96972380D02*
X138430000Y-96210476D01*
X115189047Y-96591428D02*
X115950952Y-96591428D01*
X115570000Y-96972380D02*
X115570000Y-96210476D01*
X92329047Y-96591428D02*
X93090952Y-96591428D01*
X92710000Y-96972380D02*
X92710000Y-96210476D01*
X149479047Y-73731428D02*
X150240952Y-73731428D01*
X162179047Y-73731428D02*
X162940952Y-73731428D01*
X162560000Y-74112380D02*
X162560000Y-73350476D01*
X198358571Y-107132380D02*
X197787142Y-107132380D01*
X198072857Y-107132380D02*
X198072857Y-106132380D01*
X197977619Y-106275238D01*
X197882380Y-106370476D01*
X197787142Y-106418095D01*
X198977619Y-106132380D02*
X199072857Y-106132380D01*
X199168095Y-106180000D01*
X199215714Y-106227619D01*
X199263333Y-106322857D01*
X199310952Y-106513333D01*
X199310952Y-106751428D01*
X199263333Y-106941904D01*
X199215714Y-107037142D01*
X199168095Y-107084761D01*
X199072857Y-107132380D01*
X198977619Y-107132380D01*
X198882380Y-107084761D01*
X198834761Y-107037142D01*
X198787142Y-106941904D01*
X198739523Y-106751428D01*
X198739523Y-106513333D01*
X198787142Y-106322857D01*
X198834761Y-106227619D01*
X198882380Y-106180000D01*
X198977619Y-106132380D01*
X199787142Y-107084761D02*
X199787142Y-107132380D01*
X199739523Y-107227619D01*
X199691904Y-107275238D01*
X200739523Y-107132380D02*
X200168095Y-107132380D01*
X200453809Y-107132380D02*
X200453809Y-106132380D01*
X200358571Y-106275238D01*
X200263333Y-106370476D01*
X200168095Y-106418095D01*
X201596666Y-106132380D02*
X201406190Y-106132380D01*
X201310952Y-106180000D01*
X201263333Y-106227619D01*
X201168095Y-106370476D01*
X201120476Y-106560952D01*
X201120476Y-106941904D01*
X201168095Y-107037142D01*
X201215714Y-107084761D01*
X201310952Y-107132380D01*
X201501428Y-107132380D01*
X201596666Y-107084761D01*
X201644285Y-107037142D01*
X201691904Y-106941904D01*
X201691904Y-106703809D01*
X201644285Y-106608571D01*
X201596666Y-106560952D01*
X201501428Y-106513333D01*
X201310952Y-106513333D01*
X201215714Y-106560952D01*
X201168095Y-106608571D01*
X201120476Y-106703809D01*
X202310952Y-106132380D02*
X202406190Y-106132380D01*
X202501428Y-106180000D01*
X202549047Y-106227619D01*
X202596666Y-106322857D01*
X202644285Y-106513333D01*
X202644285Y-106751428D01*
X202596666Y-106941904D01*
X202549047Y-107037142D01*
X202501428Y-107084761D01*
X202406190Y-107132380D01*
X202310952Y-107132380D01*
X202215714Y-107084761D01*
X202168095Y-107037142D01*
X202120476Y-106941904D01*
X202072857Y-106751428D01*
X202072857Y-106513333D01*
X202120476Y-106322857D01*
X202168095Y-106227619D01*
X202215714Y-106180000D01*
X202310952Y-106132380D01*
X203834761Y-107132380D02*
X203834761Y-106465714D01*
X203834761Y-106560952D02*
X203882380Y-106513333D01*
X203977619Y-106465714D01*
X204120476Y-106465714D01*
X204215714Y-106513333D01*
X204263333Y-106608571D01*
X204263333Y-107132380D01*
X204263333Y-106608571D02*
X204310952Y-106513333D01*
X204406190Y-106465714D01*
X204549047Y-106465714D01*
X204644285Y-106513333D01*
X204691904Y-106608571D01*
X204691904Y-107132380D01*
X205168095Y-107132380D02*
X205168095Y-106465714D01*
X205168095Y-106560952D02*
X205215714Y-106513333D01*
X205310952Y-106465714D01*
X205453809Y-106465714D01*
X205549047Y-106513333D01*
X205596666Y-106608571D01*
X205596666Y-107132380D01*
X205596666Y-106608571D02*
X205644285Y-106513333D01*
X205739523Y-106465714D01*
X205882380Y-106465714D01*
X205977619Y-106513333D01*
X206025238Y-106608571D01*
X206025238Y-107132380D01*
D11*
X207010000Y-105410000D02*
X196850000Y-105410000D01*
X207010000Y-102870000D02*
X207010000Y-105996421D01*
X196850000Y-102870000D02*
X196850000Y-105996421D01*
X196850000Y-105410000D02*
X197976504Y-104823579D01*
X196850000Y-105410000D02*
X197976504Y-105996421D01*
X207010000Y-105410000D02*
X205883496Y-104823579D01*
X207010000Y-105410000D02*
X205883496Y-105996421D01*
D10*
X175498571Y-107132380D02*
X174927142Y-107132380D01*
X175212857Y-107132380D02*
X175212857Y-106132380D01*
X175117619Y-106275238D01*
X175022380Y-106370476D01*
X174927142Y-106418095D01*
X176117619Y-106132380D02*
X176212857Y-106132380D01*
X176308095Y-106180000D01*
X176355714Y-106227619D01*
X176403333Y-106322857D01*
X176450952Y-106513333D01*
X176450952Y-106751428D01*
X176403333Y-106941904D01*
X176355714Y-107037142D01*
X176308095Y-107084761D01*
X176212857Y-107132380D01*
X176117619Y-107132380D01*
X176022380Y-107084761D01*
X175974761Y-107037142D01*
X175927142Y-106941904D01*
X175879523Y-106751428D01*
X175879523Y-106513333D01*
X175927142Y-106322857D01*
X175974761Y-106227619D01*
X176022380Y-106180000D01*
X176117619Y-106132380D01*
X176927142Y-107084761D02*
X176927142Y-107132380D01*
X176879523Y-107227619D01*
X176831904Y-107275238D01*
X177879523Y-107132380D02*
X177308095Y-107132380D01*
X177593809Y-107132380D02*
X177593809Y-106132380D01*
X177498571Y-106275238D01*
X177403333Y-106370476D01*
X177308095Y-106418095D01*
X178736666Y-106132380D02*
X178546190Y-106132380D01*
X178450952Y-106180000D01*
X178403333Y-106227619D01*
X178308095Y-106370476D01*
X178260476Y-106560952D01*
X178260476Y-106941904D01*
X178308095Y-107037142D01*
X178355714Y-107084761D01*
X178450952Y-107132380D01*
X178641428Y-107132380D01*
X178736666Y-107084761D01*
X178784285Y-107037142D01*
X178831904Y-106941904D01*
X178831904Y-106703809D01*
X178784285Y-106608571D01*
X178736666Y-106560952D01*
X178641428Y-106513333D01*
X178450952Y-106513333D01*
X178355714Y-106560952D01*
X178308095Y-106608571D01*
X178260476Y-106703809D01*
X179450952Y-106132380D02*
X179546190Y-106132380D01*
X179641428Y-106180000D01*
X179689047Y-106227619D01*
X179736666Y-106322857D01*
X179784285Y-106513333D01*
X179784285Y-106751428D01*
X179736666Y-106941904D01*
X179689047Y-107037142D01*
X179641428Y-107084761D01*
X179546190Y-107132380D01*
X179450952Y-107132380D01*
X179355714Y-107084761D01*
X179308095Y-107037142D01*
X179260476Y-106941904D01*
X179212857Y-106751428D01*
X179212857Y-106513333D01*
X179260476Y-106322857D01*
X179308095Y-106227619D01*
X179355714Y-106180000D01*
X179450952Y-106132380D01*
X180974761Y-107132380D02*
X180974761Y-106465714D01*
X180974761Y-106560952D02*
X181022380Y-106513333D01*
X181117619Y-106465714D01*
X181260476Y-106465714D01*
X181355714Y-106513333D01*
X181403333Y-106608571D01*
X181403333Y-107132380D01*
X181403333Y-106608571D02*
X181450952Y-106513333D01*
X181546190Y-106465714D01*
X181689047Y-106465714D01*
X181784285Y-106513333D01*
X181831904Y-106608571D01*
X181831904Y-107132380D01*
X182308095Y-107132380D02*
X182308095Y-106465714D01*
X182308095Y-106560952D02*
X182355714Y-106513333D01*
X182450952Y-106465714D01*
X182593809Y-106465714D01*
X182689047Y-106513333D01*
X182736666Y-106608571D01*
X182736666Y-107132380D01*
X182736666Y-106608571D02*
X182784285Y-106513333D01*
X182879523Y-106465714D01*
X183022380Y-106465714D01*
X183117619Y-106513333D01*
X183165238Y-106608571D01*
X183165238Y-107132380D01*
D11*
X184150000Y-105410000D02*
X173990000Y-105410000D01*
X184150000Y-102870000D02*
X184150000Y-105996421D01*
X173990000Y-102870000D02*
X173990000Y-105996421D01*
X173990000Y-105410000D02*
X175116504Y-104823579D01*
X173990000Y-105410000D02*
X175116504Y-105996421D01*
X184150000Y-105410000D02*
X183023496Y-104823579D01*
X184150000Y-105410000D02*
X183023496Y-105996421D01*
D10*
X152638571Y-107132380D02*
X152067142Y-107132380D01*
X152352857Y-107132380D02*
X152352857Y-106132380D01*
X152257619Y-106275238D01*
X152162380Y-106370476D01*
X152067142Y-106418095D01*
X153257619Y-106132380D02*
X153352857Y-106132380D01*
X153448095Y-106180000D01*
X153495714Y-106227619D01*
X153543333Y-106322857D01*
X153590952Y-106513333D01*
X153590952Y-106751428D01*
X153543333Y-106941904D01*
X153495714Y-107037142D01*
X153448095Y-107084761D01*
X153352857Y-107132380D01*
X153257619Y-107132380D01*
X153162380Y-107084761D01*
X153114761Y-107037142D01*
X153067142Y-106941904D01*
X153019523Y-106751428D01*
X153019523Y-106513333D01*
X153067142Y-106322857D01*
X153114761Y-106227619D01*
X153162380Y-106180000D01*
X153257619Y-106132380D01*
X154067142Y-107084761D02*
X154067142Y-107132380D01*
X154019523Y-107227619D01*
X153971904Y-107275238D01*
X155019523Y-107132380D02*
X154448095Y-107132380D01*
X154733809Y-107132380D02*
X154733809Y-106132380D01*
X154638571Y-106275238D01*
X154543333Y-106370476D01*
X154448095Y-106418095D01*
X155876666Y-106132380D02*
X155686190Y-106132380D01*
X155590952Y-106180000D01*
X155543333Y-106227619D01*
X155448095Y-106370476D01*
X155400476Y-106560952D01*
X155400476Y-106941904D01*
X155448095Y-107037142D01*
X155495714Y-107084761D01*
X155590952Y-107132380D01*
X155781428Y-107132380D01*
X155876666Y-107084761D01*
X155924285Y-107037142D01*
X155971904Y-106941904D01*
X155971904Y-106703809D01*
X155924285Y-106608571D01*
X155876666Y-106560952D01*
X155781428Y-106513333D01*
X155590952Y-106513333D01*
X155495714Y-106560952D01*
X155448095Y-106608571D01*
X155400476Y-106703809D01*
X156590952Y-106132380D02*
X156686190Y-106132380D01*
X156781428Y-106180000D01*
X156829047Y-106227619D01*
X156876666Y-106322857D01*
X156924285Y-106513333D01*
X156924285Y-106751428D01*
X156876666Y-106941904D01*
X156829047Y-107037142D01*
X156781428Y-107084761D01*
X156686190Y-107132380D01*
X156590952Y-107132380D01*
X156495714Y-107084761D01*
X156448095Y-107037142D01*
X156400476Y-106941904D01*
X156352857Y-106751428D01*
X156352857Y-106513333D01*
X156400476Y-106322857D01*
X156448095Y-106227619D01*
X156495714Y-106180000D01*
X156590952Y-106132380D01*
X158114761Y-107132380D02*
X158114761Y-106465714D01*
X158114761Y-106560952D02*
X158162380Y-106513333D01*
X158257619Y-106465714D01*
X158400476Y-106465714D01*
X158495714Y-106513333D01*
X158543333Y-106608571D01*
X158543333Y-107132380D01*
X158543333Y-106608571D02*
X158590952Y-106513333D01*
X158686190Y-106465714D01*
X158829047Y-106465714D01*
X158924285Y-106513333D01*
X158971904Y-106608571D01*
X158971904Y-107132380D01*
X159448095Y-107132380D02*
X159448095Y-106465714D01*
X159448095Y-106560952D02*
X159495714Y-106513333D01*
X159590952Y-106465714D01*
X159733809Y-106465714D01*
X159829047Y-106513333D01*
X159876666Y-106608571D01*
X159876666Y-107132380D01*
X159876666Y-106608571D02*
X159924285Y-106513333D01*
X160019523Y-106465714D01*
X160162380Y-106465714D01*
X160257619Y-106513333D01*
X160305238Y-106608571D01*
X160305238Y-107132380D01*
D11*
X161290000Y-105410000D02*
X151130000Y-105410000D01*
X161290000Y-102870000D02*
X161290000Y-105996421D01*
X151130000Y-102870000D02*
X151130000Y-105996421D01*
X151130000Y-105410000D02*
X152256504Y-104823579D01*
X151130000Y-105410000D02*
X152256504Y-105996421D01*
X161290000Y-105410000D02*
X160163496Y-104823579D01*
X161290000Y-105410000D02*
X160163496Y-105996421D01*
D10*
X129778571Y-107132380D02*
X129207142Y-107132380D01*
X129492857Y-107132380D02*
X129492857Y-106132380D01*
X129397619Y-106275238D01*
X129302380Y-106370476D01*
X129207142Y-106418095D01*
X130397619Y-106132380D02*
X130492857Y-106132380D01*
X130588095Y-106180000D01*
X130635714Y-106227619D01*
X130683333Y-106322857D01*
X130730952Y-106513333D01*
X130730952Y-106751428D01*
X130683333Y-106941904D01*
X130635714Y-107037142D01*
X130588095Y-107084761D01*
X130492857Y-107132380D01*
X130397619Y-107132380D01*
X130302380Y-107084761D01*
X130254761Y-107037142D01*
X130207142Y-106941904D01*
X130159523Y-106751428D01*
X130159523Y-106513333D01*
X130207142Y-106322857D01*
X130254761Y-106227619D01*
X130302380Y-106180000D01*
X130397619Y-106132380D01*
X131207142Y-107084761D02*
X131207142Y-107132380D01*
X131159523Y-107227619D01*
X131111904Y-107275238D01*
X132159523Y-107132380D02*
X131588095Y-107132380D01*
X131873809Y-107132380D02*
X131873809Y-106132380D01*
X131778571Y-106275238D01*
X131683333Y-106370476D01*
X131588095Y-106418095D01*
X133016666Y-106132380D02*
X132826190Y-106132380D01*
X132730952Y-106180000D01*
X132683333Y-106227619D01*
X132588095Y-106370476D01*
X132540476Y-106560952D01*
X132540476Y-106941904D01*
X132588095Y-107037142D01*
X132635714Y-107084761D01*
X132730952Y-107132380D01*
X132921428Y-107132380D01*
X133016666Y-107084761D01*
X133064285Y-107037142D01*
X133111904Y-106941904D01*
X133111904Y-106703809D01*
X133064285Y-106608571D01*
X133016666Y-106560952D01*
X132921428Y-106513333D01*
X132730952Y-106513333D01*
X132635714Y-106560952D01*
X132588095Y-106608571D01*
X132540476Y-106703809D01*
X133730952Y-106132380D02*
X133826190Y-106132380D01*
X133921428Y-106180000D01*
X133969047Y-106227619D01*
X134016666Y-106322857D01*
X134064285Y-106513333D01*
X134064285Y-106751428D01*
X134016666Y-106941904D01*
X133969047Y-107037142D01*
X133921428Y-107084761D01*
X133826190Y-107132380D01*
X133730952Y-107132380D01*
X133635714Y-107084761D01*
X133588095Y-107037142D01*
X133540476Y-106941904D01*
X133492857Y-106751428D01*
X133492857Y-106513333D01*
X133540476Y-106322857D01*
X133588095Y-106227619D01*
X133635714Y-106180000D01*
X133730952Y-106132380D01*
X135254761Y-107132380D02*
X135254761Y-106465714D01*
X135254761Y-106560952D02*
X135302380Y-106513333D01*
X135397619Y-106465714D01*
X135540476Y-106465714D01*
X135635714Y-106513333D01*
X135683333Y-106608571D01*
X135683333Y-107132380D01*
X135683333Y-106608571D02*
X135730952Y-106513333D01*
X135826190Y-106465714D01*
X135969047Y-106465714D01*
X136064285Y-106513333D01*
X136111904Y-106608571D01*
X136111904Y-107132380D01*
X136588095Y-107132380D02*
X136588095Y-106465714D01*
X136588095Y-106560952D02*
X136635714Y-106513333D01*
X136730952Y-106465714D01*
X136873809Y-106465714D01*
X136969047Y-106513333D01*
X137016666Y-106608571D01*
X137016666Y-107132380D01*
X137016666Y-106608571D02*
X137064285Y-106513333D01*
X137159523Y-106465714D01*
X137302380Y-106465714D01*
X137397619Y-106513333D01*
X137445238Y-106608571D01*
X137445238Y-107132380D01*
D11*
X138430000Y-105410000D02*
X128270000Y-105410000D01*
X138430000Y-102870000D02*
X138430000Y-105996421D01*
X128270000Y-102870000D02*
X128270000Y-105996421D01*
X128270000Y-105410000D02*
X129396504Y-104823579D01*
X128270000Y-105410000D02*
X129396504Y-105996421D01*
X138430000Y-105410000D02*
X137303496Y-104823579D01*
X138430000Y-105410000D02*
X137303496Y-105996421D01*
D10*
X106918571Y-107132380D02*
X106347142Y-107132380D01*
X106632857Y-107132380D02*
X106632857Y-106132380D01*
X106537619Y-106275238D01*
X106442380Y-106370476D01*
X106347142Y-106418095D01*
X107537619Y-106132380D02*
X107632857Y-106132380D01*
X107728095Y-106180000D01*
X107775714Y-106227619D01*
X107823333Y-106322857D01*
X107870952Y-106513333D01*
X107870952Y-106751428D01*
X107823333Y-106941904D01*
X107775714Y-107037142D01*
X107728095Y-107084761D01*
X107632857Y-107132380D01*
X107537619Y-107132380D01*
X107442380Y-107084761D01*
X107394761Y-107037142D01*
X107347142Y-106941904D01*
X107299523Y-106751428D01*
X107299523Y-106513333D01*
X107347142Y-106322857D01*
X107394761Y-106227619D01*
X107442380Y-106180000D01*
X107537619Y-106132380D01*
X108347142Y-107084761D02*
X108347142Y-107132380D01*
X108299523Y-107227619D01*
X108251904Y-107275238D01*
X109299523Y-107132380D02*
X108728095Y-107132380D01*
X109013809Y-107132380D02*
X109013809Y-106132380D01*
X108918571Y-106275238D01*
X108823333Y-106370476D01*
X108728095Y-106418095D01*
X110156666Y-106132380D02*
X109966190Y-106132380D01*
X109870952Y-106180000D01*
X109823333Y-106227619D01*
X109728095Y-106370476D01*
X109680476Y-106560952D01*
X109680476Y-106941904D01*
X109728095Y-107037142D01*
X109775714Y-107084761D01*
X109870952Y-107132380D01*
X110061428Y-107132380D01*
X110156666Y-107084761D01*
X110204285Y-107037142D01*
X110251904Y-106941904D01*
X110251904Y-106703809D01*
X110204285Y-106608571D01*
X110156666Y-106560952D01*
X110061428Y-106513333D01*
X109870952Y-106513333D01*
X109775714Y-106560952D01*
X109728095Y-106608571D01*
X109680476Y-106703809D01*
X110870952Y-106132380D02*
X110966190Y-106132380D01*
X111061428Y-106180000D01*
X111109047Y-106227619D01*
X111156666Y-106322857D01*
X111204285Y-106513333D01*
X111204285Y-106751428D01*
X111156666Y-106941904D01*
X111109047Y-107037142D01*
X111061428Y-107084761D01*
X110966190Y-107132380D01*
X110870952Y-107132380D01*
X110775714Y-107084761D01*
X110728095Y-107037142D01*
X110680476Y-106941904D01*
X110632857Y-106751428D01*
X110632857Y-106513333D01*
X110680476Y-106322857D01*
X110728095Y-106227619D01*
X110775714Y-106180000D01*
X110870952Y-106132380D01*
X112394761Y-107132380D02*
X112394761Y-106465714D01*
X112394761Y-106560952D02*
X112442380Y-106513333D01*
X112537619Y-106465714D01*
X112680476Y-106465714D01*
X112775714Y-106513333D01*
X112823333Y-106608571D01*
X112823333Y-107132380D01*
X112823333Y-106608571D02*
X112870952Y-106513333D01*
X112966190Y-106465714D01*
X113109047Y-106465714D01*
X113204285Y-106513333D01*
X113251904Y-106608571D01*
X113251904Y-107132380D01*
X113728095Y-107132380D02*
X113728095Y-106465714D01*
X113728095Y-106560952D02*
X113775714Y-106513333D01*
X113870952Y-106465714D01*
X114013809Y-106465714D01*
X114109047Y-106513333D01*
X114156666Y-106608571D01*
X114156666Y-107132380D01*
X114156666Y-106608571D02*
X114204285Y-106513333D01*
X114299523Y-106465714D01*
X114442380Y-106465714D01*
X114537619Y-106513333D01*
X114585238Y-106608571D01*
X114585238Y-107132380D01*
D11*
X115570000Y-105410000D02*
X105410000Y-105410000D01*
X115570000Y-102870000D02*
X115570000Y-105996421D01*
X105410000Y-102870000D02*
X105410000Y-105996421D01*
X105410000Y-105410000D02*
X106536504Y-104823579D01*
X105410000Y-105410000D02*
X106536504Y-105996421D01*
X115570000Y-105410000D02*
X114443496Y-104823579D01*
X115570000Y-105410000D02*
X114443496Y-105996421D01*
X151130000Y-72390000D02*
X161290000Y-72390000D01*
X151130000Y-71120000D02*
X151130000Y-78740000D01*
X151130000Y-78740000D02*
X161290000Y-78740000D01*
X161290000Y-78740000D02*
X161290000Y-71120000D01*
X161290000Y-71120000D02*
X151130000Y-71120000D01*
X127000000Y-97790000D02*
X116840000Y-97790000D01*
X127000000Y-99060000D02*
X127000000Y-91440000D01*
X127000000Y-91440000D02*
X116840000Y-91440000D01*
X116840000Y-91440000D02*
X116840000Y-99060000D01*
X116840000Y-99060000D02*
X127000000Y-99060000D01*
X172720000Y-97790000D02*
X162560000Y-97790000D01*
X172720000Y-99060000D02*
X172720000Y-91440000D01*
X172720000Y-91440000D02*
X162560000Y-91440000D01*
X162560000Y-91440000D02*
X162560000Y-99060000D01*
X162560000Y-99060000D02*
X172720000Y-99060000D01*
X218440000Y-97790000D02*
X208280000Y-97790000D01*
X218440000Y-99060000D02*
X218440000Y-91440000D01*
X218440000Y-91440000D02*
X208280000Y-91440000D01*
X208280000Y-91440000D02*
X208280000Y-99060000D01*
X208280000Y-99060000D02*
X218440000Y-99060000D01*
D10*
X114920000Y-103030000D02*
X128920000Y-103030000D01*
X114920000Y-92880000D02*
X114920000Y-103030000D01*
X128920000Y-92880000D02*
X128920000Y-103030000D01*
X114920000Y-92880000D02*
X128920000Y-92880000D01*
X114920000Y-89030000D02*
X128920000Y-89030000D01*
X114920000Y-92880000D02*
X114920000Y-89030000D01*
X128920000Y-92880000D02*
X128920000Y-89030000D01*
X160640000Y-103030000D02*
X174640000Y-103030000D01*
X160640000Y-92880000D02*
X160640000Y-103030000D01*
X174640000Y-92880000D02*
X174640000Y-103030000D01*
X160640000Y-92880000D02*
X174640000Y-92880000D01*
X160640000Y-89030000D02*
X174640000Y-89030000D01*
X160640000Y-92880000D02*
X160640000Y-89030000D01*
X174640000Y-92880000D02*
X174640000Y-89030000D01*
X206360000Y-103030000D02*
X220360000Y-103030000D01*
X206360000Y-92880000D02*
X206360000Y-103030000D01*
X220360000Y-92880000D02*
X220360000Y-103030000D01*
X206360000Y-92880000D02*
X220360000Y-92880000D01*
X206360000Y-89030000D02*
X220360000Y-89030000D01*
X206360000Y-92880000D02*
X206360000Y-89030000D01*
X220360000Y-92880000D02*
X220360000Y-89030000D01*
D11*
X149860000Y-97790000D02*
X139700000Y-97790000D01*
X149860000Y-99060000D02*
X149860000Y-91440000D01*
X149860000Y-91440000D02*
X139700000Y-91440000D01*
X139700000Y-91440000D02*
X139700000Y-99060000D01*
X139700000Y-99060000D02*
X149860000Y-99060000D01*
X195580000Y-97790000D02*
X185420000Y-97790000D01*
X195580000Y-99060000D02*
X195580000Y-91440000D01*
X195580000Y-91440000D02*
X185420000Y-91440000D01*
X185420000Y-91440000D02*
X185420000Y-99060000D01*
X185420000Y-99060000D02*
X195580000Y-99060000D01*
D10*
X137780000Y-103030000D02*
X151780000Y-103030000D01*
X137780000Y-92880000D02*
X137780000Y-103030000D01*
X151780000Y-92880000D02*
X151780000Y-103030000D01*
X137780000Y-92880000D02*
X151780000Y-92880000D01*
X137780000Y-89030000D02*
X151780000Y-89030000D01*
X137780000Y-92880000D02*
X137780000Y-89030000D01*
X151780000Y-92880000D02*
X151780000Y-89030000D01*
X183500000Y-103030000D02*
X197500000Y-103030000D01*
X183500000Y-92880000D02*
X183500000Y-103030000D01*
X197500000Y-92880000D02*
X197500000Y-103030000D01*
X183500000Y-92880000D02*
X197500000Y-92880000D01*
X183500000Y-89030000D02*
X197500000Y-89030000D01*
X183500000Y-92880000D02*
X183500000Y-89030000D01*
X197500000Y-92880000D02*
X197500000Y-89030000D01*
D11*
X119020000Y-83217936D02*
X119020000Y-84422064D01*
X117200000Y-83217936D02*
X117200000Y-84422064D01*
X164740000Y-83217936D02*
X164740000Y-84422064D01*
X162920000Y-83217936D02*
X162920000Y-84422064D01*
X210460000Y-83217936D02*
X210460000Y-84422064D01*
X208640000Y-83217936D02*
X208640000Y-84422064D01*
X141880000Y-83217936D02*
X141880000Y-84422064D01*
X140060000Y-83217936D02*
X140060000Y-84422064D01*
X187600000Y-83217936D02*
X187600000Y-84422064D01*
X185780000Y-83217936D02*
X185780000Y-84422064D01*
X104140000Y-97790000D02*
X93980000Y-97790000D01*
X104140000Y-99060000D02*
X104140000Y-91440000D01*
X104140000Y-91440000D02*
X93980000Y-91440000D01*
X93980000Y-91440000D02*
X93980000Y-99060000D01*
X93980000Y-99060000D02*
X104140000Y-99060000D01*
D10*
X92014999Y-102940000D02*
X106014999Y-102940000D01*
X92014999Y-92790000D02*
X92014999Y-102940000D01*
X106014999Y-92790000D02*
X106014999Y-102940000D01*
X92014999Y-92790000D02*
X106014999Y-92790000D01*
X92014999Y-88940000D02*
X106014999Y-88940000D01*
X92014999Y-92790000D02*
X92014999Y-88940000D01*
X106014999Y-92790000D02*
X106014999Y-88940000D01*
D11*
X96160000Y-83217936D02*
X96160000Y-84422064D01*
X94340000Y-83217936D02*
X94340000Y-84422064D01*
D10*
X155400476Y-79462380D02*
X155400476Y-80176666D01*
X155352857Y-80319523D01*
X155257619Y-80414761D01*
X155114761Y-80462380D01*
X155019523Y-80462380D01*
X156400476Y-80462380D02*
X155829047Y-80462380D01*
X156114761Y-80462380D02*
X156114761Y-79462380D01*
X156019523Y-79605238D01*
X155924285Y-79700476D01*
X155829047Y-79748095D01*
X156733809Y-79462380D02*
X157352857Y-79462380D01*
X157019523Y-79843333D01*
X157162380Y-79843333D01*
X157257619Y-79890952D01*
X157305238Y-79938571D01*
X157352857Y-80033809D01*
X157352857Y-80271904D01*
X157305238Y-80367142D01*
X157257619Y-80414761D01*
X157162380Y-80462380D01*
X156876666Y-80462380D01*
X156781428Y-80414761D01*
X156733809Y-80367142D01*
X121586666Y-89622380D02*
X121586666Y-90336666D01*
X121539047Y-90479523D01*
X121443809Y-90574761D01*
X121300952Y-90622380D01*
X121205714Y-90622380D01*
X122491428Y-89955714D02*
X122491428Y-90622380D01*
X122253333Y-89574761D02*
X122015238Y-90289047D01*
X122634285Y-90289047D01*
X167306666Y-89622380D02*
X167306666Y-90336666D01*
X167259047Y-90479523D01*
X167163809Y-90574761D01*
X167020952Y-90622380D01*
X166925714Y-90622380D01*
X167925714Y-90050952D02*
X167830476Y-90003333D01*
X167782857Y-89955714D01*
X167735238Y-89860476D01*
X167735238Y-89812857D01*
X167782857Y-89717619D01*
X167830476Y-89670000D01*
X167925714Y-89622380D01*
X168116190Y-89622380D01*
X168211428Y-89670000D01*
X168259047Y-89717619D01*
X168306666Y-89812857D01*
X168306666Y-89860476D01*
X168259047Y-89955714D01*
X168211428Y-90003333D01*
X168116190Y-90050952D01*
X167925714Y-90050952D01*
X167830476Y-90098571D01*
X167782857Y-90146190D01*
X167735238Y-90241428D01*
X167735238Y-90431904D01*
X167782857Y-90527142D01*
X167830476Y-90574761D01*
X167925714Y-90622380D01*
X168116190Y-90622380D01*
X168211428Y-90574761D01*
X168259047Y-90527142D01*
X168306666Y-90431904D01*
X168306666Y-90241428D01*
X168259047Y-90146190D01*
X168211428Y-90098571D01*
X168116190Y-90050952D01*
X212550476Y-89622380D02*
X212550476Y-90336666D01*
X212502857Y-90479523D01*
X212407619Y-90574761D01*
X212264761Y-90622380D01*
X212169523Y-90622380D01*
X213550476Y-90622380D02*
X212979047Y-90622380D01*
X213264761Y-90622380D02*
X213264761Y-89622380D01*
X213169523Y-89765238D01*
X213074285Y-89860476D01*
X212979047Y-89908095D01*
X213931428Y-89717619D02*
X213979047Y-89670000D01*
X214074285Y-89622380D01*
X214312380Y-89622380D01*
X214407619Y-89670000D01*
X214455238Y-89717619D01*
X214502857Y-89812857D01*
X214502857Y-89908095D01*
X214455238Y-90050952D01*
X213883809Y-90622380D01*
X214502857Y-90622380D01*
X121586666Y-87717380D02*
X121586666Y-88431666D01*
X121539047Y-88574523D01*
X121443809Y-88669761D01*
X121300952Y-88717380D01*
X121205714Y-88717380D01*
X121967619Y-87717380D02*
X122586666Y-87717380D01*
X122253333Y-88098333D01*
X122396190Y-88098333D01*
X122491428Y-88145952D01*
X122539047Y-88193571D01*
X122586666Y-88288809D01*
X122586666Y-88526904D01*
X122539047Y-88622142D01*
X122491428Y-88669761D01*
X122396190Y-88717380D01*
X122110476Y-88717380D01*
X122015238Y-88669761D01*
X121967619Y-88622142D01*
X167306666Y-87717380D02*
X167306666Y-88431666D01*
X167259047Y-88574523D01*
X167163809Y-88669761D01*
X167020952Y-88717380D01*
X166925714Y-88717380D01*
X167687619Y-87717380D02*
X168354285Y-87717380D01*
X167925714Y-88717380D01*
X212550476Y-87717380D02*
X212550476Y-88431666D01*
X212502857Y-88574523D01*
X212407619Y-88669761D01*
X212264761Y-88717380D01*
X212169523Y-88717380D01*
X213550476Y-88717380D02*
X212979047Y-88717380D01*
X213264761Y-88717380D02*
X213264761Y-87717380D01*
X213169523Y-87860238D01*
X213074285Y-87955476D01*
X212979047Y-88003095D01*
X214502857Y-88717380D02*
X213931428Y-88717380D01*
X214217142Y-88717380D02*
X214217142Y-87717380D01*
X214121904Y-87860238D01*
X214026666Y-87955476D01*
X213931428Y-88003095D01*
X144446666Y-89622380D02*
X144446666Y-90336666D01*
X144399047Y-90479523D01*
X144303809Y-90574761D01*
X144160952Y-90622380D01*
X144065714Y-90622380D01*
X145351428Y-89622380D02*
X145160952Y-89622380D01*
X145065714Y-89670000D01*
X145018095Y-89717619D01*
X144922857Y-89860476D01*
X144875238Y-90050952D01*
X144875238Y-90431904D01*
X144922857Y-90527142D01*
X144970476Y-90574761D01*
X145065714Y-90622380D01*
X145256190Y-90622380D01*
X145351428Y-90574761D01*
X145399047Y-90527142D01*
X145446666Y-90431904D01*
X145446666Y-90193809D01*
X145399047Y-90098571D01*
X145351428Y-90050952D01*
X145256190Y-90003333D01*
X145065714Y-90003333D01*
X144970476Y-90050952D01*
X144922857Y-90098571D01*
X144875238Y-90193809D01*
X189690476Y-89622380D02*
X189690476Y-90336666D01*
X189642857Y-90479523D01*
X189547619Y-90574761D01*
X189404761Y-90622380D01*
X189309523Y-90622380D01*
X190690476Y-90622380D02*
X190119047Y-90622380D01*
X190404761Y-90622380D02*
X190404761Y-89622380D01*
X190309523Y-89765238D01*
X190214285Y-89860476D01*
X190119047Y-89908095D01*
X191309523Y-89622380D02*
X191404761Y-89622380D01*
X191500000Y-89670000D01*
X191547619Y-89717619D01*
X191595238Y-89812857D01*
X191642857Y-90003333D01*
X191642857Y-90241428D01*
X191595238Y-90431904D01*
X191547619Y-90527142D01*
X191500000Y-90574761D01*
X191404761Y-90622380D01*
X191309523Y-90622380D01*
X191214285Y-90574761D01*
X191166666Y-90527142D01*
X191119047Y-90431904D01*
X191071428Y-90241428D01*
X191071428Y-90003333D01*
X191119047Y-89812857D01*
X191166666Y-89717619D01*
X191214285Y-89670000D01*
X191309523Y-89622380D01*
X144446666Y-87717380D02*
X144446666Y-88431666D01*
X144399047Y-88574523D01*
X144303809Y-88669761D01*
X144160952Y-88717380D01*
X144065714Y-88717380D01*
X145399047Y-87717380D02*
X144922857Y-87717380D01*
X144875238Y-88193571D01*
X144922857Y-88145952D01*
X145018095Y-88098333D01*
X145256190Y-88098333D01*
X145351428Y-88145952D01*
X145399047Y-88193571D01*
X145446666Y-88288809D01*
X145446666Y-88526904D01*
X145399047Y-88622142D01*
X145351428Y-88669761D01*
X145256190Y-88717380D01*
X145018095Y-88717380D01*
X144922857Y-88669761D01*
X144875238Y-88622142D01*
X190166666Y-87717380D02*
X190166666Y-88431666D01*
X190119047Y-88574523D01*
X190023809Y-88669761D01*
X189880952Y-88717380D01*
X189785714Y-88717380D01*
X190690476Y-88717380D02*
X190880952Y-88717380D01*
X190976190Y-88669761D01*
X191023809Y-88622142D01*
X191119047Y-88479285D01*
X191166666Y-88288809D01*
X191166666Y-87907857D01*
X191119047Y-87812619D01*
X191071428Y-87765000D01*
X190976190Y-87717380D01*
X190785714Y-87717380D01*
X190690476Y-87765000D01*
X190642857Y-87812619D01*
X190595238Y-87907857D01*
X190595238Y-88145952D01*
X190642857Y-88241190D01*
X190690476Y-88288809D01*
X190785714Y-88336428D01*
X190976190Y-88336428D01*
X191071428Y-88288809D01*
X191119047Y-88241190D01*
X191166666Y-88145952D01*
X119858571Y-84153333D02*
X119858571Y-84486666D01*
X120382380Y-84486666D02*
X119382380Y-84486666D01*
X119382380Y-84010476D01*
X119477619Y-83677142D02*
X119430000Y-83629523D01*
X119382380Y-83534285D01*
X119382380Y-83296190D01*
X119430000Y-83200952D01*
X119477619Y-83153333D01*
X119572857Y-83105714D01*
X119668095Y-83105714D01*
X119810952Y-83153333D01*
X120382380Y-83724761D01*
X120382380Y-83105714D01*
X165578571Y-84153333D02*
X165578571Y-84486666D01*
X166102380Y-84486666D02*
X165102380Y-84486666D01*
X165102380Y-84010476D01*
X165435714Y-83200952D02*
X166102380Y-83200952D01*
X165054761Y-83439047D02*
X165769047Y-83677142D01*
X165769047Y-83058095D01*
X211298571Y-84153333D02*
X211298571Y-84486666D01*
X211822380Y-84486666D02*
X210822380Y-84486666D01*
X210822380Y-84010476D01*
X210822380Y-83200952D02*
X210822380Y-83391428D01*
X210870000Y-83486666D01*
X210917619Y-83534285D01*
X211060476Y-83629523D01*
X211250952Y-83677142D01*
X211631904Y-83677142D01*
X211727142Y-83629523D01*
X211774761Y-83581904D01*
X211822380Y-83486666D01*
X211822380Y-83296190D01*
X211774761Y-83200952D01*
X211727142Y-83153333D01*
X211631904Y-83105714D01*
X211393809Y-83105714D01*
X211298571Y-83153333D01*
X211250952Y-83200952D01*
X211203333Y-83296190D01*
X211203333Y-83486666D01*
X211250952Y-83581904D01*
X211298571Y-83629523D01*
X211393809Y-83677142D01*
X142718571Y-84153333D02*
X142718571Y-84486666D01*
X143242380Y-84486666D02*
X142242380Y-84486666D01*
X142242380Y-84010476D01*
X142242380Y-83724761D02*
X142242380Y-83105714D01*
X142623333Y-83439047D01*
X142623333Y-83296190D01*
X142670952Y-83200952D01*
X142718571Y-83153333D01*
X142813809Y-83105714D01*
X143051904Y-83105714D01*
X143147142Y-83153333D01*
X143194761Y-83200952D01*
X143242380Y-83296190D01*
X143242380Y-83581904D01*
X143194761Y-83677142D01*
X143147142Y-83724761D01*
X188438571Y-84153333D02*
X188438571Y-84486666D01*
X188962380Y-84486666D02*
X187962380Y-84486666D01*
X187962380Y-84010476D01*
X187962380Y-83153333D02*
X187962380Y-83629523D01*
X188438571Y-83677142D01*
X188390952Y-83629523D01*
X188343333Y-83534285D01*
X188343333Y-83296190D01*
X188390952Y-83200952D01*
X188438571Y-83153333D01*
X188533809Y-83105714D01*
X188771904Y-83105714D01*
X188867142Y-83153333D01*
X188914761Y-83200952D01*
X188962380Y-83296190D01*
X188962380Y-83534285D01*
X188914761Y-83629523D01*
X188867142Y-83677142D01*
X98726666Y-89622380D02*
X98726666Y-90336666D01*
X98679047Y-90479523D01*
X98583809Y-90574761D01*
X98440952Y-90622380D01*
X98345714Y-90622380D01*
X99155238Y-89717619D02*
X99202857Y-89670000D01*
X99298095Y-89622380D01*
X99536190Y-89622380D01*
X99631428Y-89670000D01*
X99679047Y-89717619D01*
X99726666Y-89812857D01*
X99726666Y-89908095D01*
X99679047Y-90050952D01*
X99107619Y-90622380D01*
X99726666Y-90622380D01*
X98681665Y-87627380D02*
X98681665Y-88341666D01*
X98634046Y-88484523D01*
X98538808Y-88579761D01*
X98395951Y-88627380D01*
X98300713Y-88627380D01*
X99681665Y-88627380D02*
X99110237Y-88627380D01*
X99395951Y-88627380D02*
X99395951Y-87627380D01*
X99300713Y-87770238D01*
X99205475Y-87865476D01*
X99110237Y-87913095D01*
X96998571Y-84153333D02*
X96998571Y-84486666D01*
X97522380Y-84486666D02*
X96522380Y-84486666D01*
X96522380Y-84010476D01*
X97522380Y-83105714D02*
X97522380Y-83677142D01*
X97522380Y-83391428D02*
X96522380Y-83391428D01*
X96665238Y-83486666D01*
X96760476Y-83581904D01*
X96808095Y-83677142D01*
M02*
