G04 #@! TF.GenerationSoftware,KiCad,Pcbnew,5.1.6*
G04 #@! TF.CreationDate,2020-05-20T11:34:49+02:00*
G04 #@! TF.ProjectId,5V_power_dist,35565f70-6f77-4657-925f-646973742e6b,rev?*
G04 #@! TF.SameCoordinates,Original*
G04 #@! TF.FileFunction,Copper,L2,Bot*
G04 #@! TF.FilePolarity,Positive*
%FSLAX46Y46*%
G04 Gerber Fmt 4.6, Leading zero omitted, Abs format (unit mm)*
G04 Created by KiCad (PCBNEW 5.1.6) date 2020-05-20 11:34:49*
%MOMM*%
%LPD*%
G01*
G04 APERTURE LIST*
G04 #@! TA.AperFunction,ComponentPad*
%ADD10C,0.800000*%
G04 #@! TD*
G04 #@! TA.AperFunction,ComponentPad*
%ADD11C,6.400000*%
G04 #@! TD*
G04 #@! TA.AperFunction,ComponentPad*
%ADD12C,3.000000*%
G04 #@! TD*
G04 #@! TA.AperFunction,ComponentPad*
%ADD13R,3.000000X3.000000*%
G04 #@! TD*
G04 #@! TA.AperFunction,ComponentPad*
%ADD14O,1.524000X2.000000*%
G04 #@! TD*
G04 #@! TA.AperFunction,ComponentPad*
%ADD15O,2.000000X3.000000*%
G04 #@! TD*
G04 #@! TA.AperFunction,Conductor*
%ADD16C,0.254000*%
G04 #@! TD*
G04 APERTURE END LIST*
D10*
X220137056Y-74502944D03*
X218440000Y-73800000D03*
X216742944Y-74502944D03*
X216040000Y-76200000D03*
X216742944Y-77897056D03*
X218440000Y-78600000D03*
X220137056Y-77897056D03*
X220840000Y-76200000D03*
D11*
X218440000Y-76200000D03*
D10*
X95677056Y-74502944D03*
X93980000Y-73800000D03*
X92282944Y-74502944D03*
X91580000Y-76200000D03*
X92282944Y-77897056D03*
X93980000Y-78600000D03*
X95677056Y-77897056D03*
X96380000Y-76200000D03*
D11*
X93980000Y-76200000D03*
D12*
X153670000Y-74930000D03*
D13*
X158750000Y-74930000D03*
D12*
X124460000Y-95250000D03*
D13*
X119380000Y-95250000D03*
D12*
X170180000Y-95250000D03*
D13*
X165100000Y-95250000D03*
D12*
X215900000Y-95250000D03*
D13*
X210820000Y-95250000D03*
D14*
X118420000Y-90170000D03*
X120920000Y-90170000D03*
X122920000Y-90170000D03*
X125420000Y-90170000D03*
D15*
X114920000Y-92880000D03*
X128920000Y-92880000D03*
D14*
X164140000Y-90170000D03*
X166640000Y-90170000D03*
X168640000Y-90170000D03*
X171140000Y-90170000D03*
D15*
X160640000Y-92880000D03*
X174640000Y-92880000D03*
D14*
X209860000Y-90170000D03*
X212360000Y-90170000D03*
X214360000Y-90170000D03*
X216860000Y-90170000D03*
D15*
X206360000Y-92880000D03*
X220360000Y-92880000D03*
D12*
X147320000Y-95250000D03*
D13*
X142240000Y-95250000D03*
D12*
X193040000Y-95250000D03*
D13*
X187960000Y-95250000D03*
D14*
X141280000Y-90170000D03*
X143780000Y-90170000D03*
X145780000Y-90170000D03*
X148280000Y-90170000D03*
D15*
X137780000Y-92880000D03*
X151780000Y-92880000D03*
D14*
X187000000Y-90170000D03*
X189500000Y-90170000D03*
X191500000Y-90170000D03*
X194000000Y-90170000D03*
D15*
X183500000Y-92880000D03*
X197500000Y-92880000D03*
D12*
X101600000Y-95250000D03*
D13*
X96520000Y-95250000D03*
D14*
X95514999Y-90080000D03*
X98014999Y-90080000D03*
X100014999Y-90080000D03*
X102514999Y-90080000D03*
D15*
X92014999Y-92790000D03*
X106014999Y-92790000D03*
D16*
G36*
X222860000Y-100940000D02*
G01*
X89560000Y-100940000D01*
X89560000Y-92917000D01*
X90379999Y-92917000D01*
X90379999Y-93417000D01*
X90436192Y-93733532D01*
X90553057Y-94033020D01*
X90726104Y-94303954D01*
X90948682Y-94535922D01*
X91212238Y-94720010D01*
X91506644Y-94849144D01*
X91634565Y-94880124D01*
X91887999Y-94760777D01*
X91887999Y-92917000D01*
X92141999Y-92917000D01*
X92141999Y-94760777D01*
X92395433Y-94880124D01*
X92523354Y-94849144D01*
X92817760Y-94720010D01*
X93081316Y-94535922D01*
X93303894Y-94303954D01*
X93476941Y-94033020D01*
X93587379Y-93750000D01*
X94381928Y-93750000D01*
X94381928Y-96750000D01*
X94394188Y-96874482D01*
X94430498Y-96994180D01*
X94489463Y-97104494D01*
X94568815Y-97201185D01*
X94665506Y-97280537D01*
X94775820Y-97339502D01*
X94895518Y-97375812D01*
X95020000Y-97388072D01*
X98020000Y-97388072D01*
X98144482Y-97375812D01*
X98264180Y-97339502D01*
X98374494Y-97280537D01*
X98471185Y-97201185D01*
X98550537Y-97104494D01*
X98609502Y-96994180D01*
X98645812Y-96874482D01*
X98658072Y-96750000D01*
X98658072Y-96741653D01*
X100287952Y-96741653D01*
X100443962Y-97057214D01*
X100818745Y-97248020D01*
X101223551Y-97362044D01*
X101642824Y-97394902D01*
X102060451Y-97345334D01*
X102460383Y-97215243D01*
X102756038Y-97057214D01*
X102912048Y-96741653D01*
X101600000Y-95429605D01*
X100287952Y-96741653D01*
X98658072Y-96741653D01*
X98658072Y-95292824D01*
X99455098Y-95292824D01*
X99504666Y-95710451D01*
X99634757Y-96110383D01*
X99792786Y-96406038D01*
X100108347Y-96562048D01*
X101420395Y-95250000D01*
X101779605Y-95250000D01*
X103091653Y-96562048D01*
X103407214Y-96406038D01*
X103598020Y-96031255D01*
X103712044Y-95626449D01*
X103744902Y-95207176D01*
X103695334Y-94789549D01*
X103565243Y-94389617D01*
X103407214Y-94093962D01*
X103091653Y-93937952D01*
X101779605Y-95250000D01*
X101420395Y-95250000D01*
X100108347Y-93937952D01*
X99792786Y-94093962D01*
X99601980Y-94468745D01*
X99487956Y-94873551D01*
X99455098Y-95292824D01*
X98658072Y-95292824D01*
X98658072Y-93758347D01*
X100287952Y-93758347D01*
X101600000Y-95070395D01*
X102912048Y-93758347D01*
X102756038Y-93442786D01*
X102381255Y-93251980D01*
X101976449Y-93137956D01*
X101557176Y-93105098D01*
X101139549Y-93154666D01*
X100739617Y-93284757D01*
X100443962Y-93442786D01*
X100287952Y-93758347D01*
X98658072Y-93758347D01*
X98658072Y-93750000D01*
X98645812Y-93625518D01*
X98609502Y-93505820D01*
X98550537Y-93395506D01*
X98471185Y-93298815D01*
X98374494Y-93219463D01*
X98264180Y-93160498D01*
X98144482Y-93124188D01*
X98020000Y-93111928D01*
X95020000Y-93111928D01*
X94895518Y-93124188D01*
X94775820Y-93160498D01*
X94665506Y-93219463D01*
X94568815Y-93298815D01*
X94489463Y-93395506D01*
X94430498Y-93505820D01*
X94394188Y-93625518D01*
X94381928Y-93750000D01*
X93587379Y-93750000D01*
X93593806Y-93733532D01*
X93649999Y-93417000D01*
X93649999Y-92917000D01*
X104379999Y-92917000D01*
X104379999Y-93417000D01*
X104436192Y-93733532D01*
X104553057Y-94033020D01*
X104726104Y-94303954D01*
X104948682Y-94535922D01*
X105212238Y-94720010D01*
X105506644Y-94849144D01*
X105634565Y-94880124D01*
X105887999Y-94760777D01*
X105887999Y-92917000D01*
X106141999Y-92917000D01*
X106141999Y-94760777D01*
X106395433Y-94880124D01*
X106523354Y-94849144D01*
X106817760Y-94720010D01*
X107081316Y-94535922D01*
X107303894Y-94303954D01*
X107476941Y-94033020D01*
X107593806Y-93733532D01*
X107649999Y-93417000D01*
X107649999Y-93007000D01*
X113285000Y-93007000D01*
X113285000Y-93507000D01*
X113341193Y-93823532D01*
X113458058Y-94123020D01*
X113631105Y-94393954D01*
X113853683Y-94625922D01*
X114117239Y-94810010D01*
X114411645Y-94939144D01*
X114539566Y-94970124D01*
X114793000Y-94850777D01*
X114793000Y-93007000D01*
X115047000Y-93007000D01*
X115047000Y-94850777D01*
X115300434Y-94970124D01*
X115428355Y-94939144D01*
X115722761Y-94810010D01*
X115986317Y-94625922D01*
X116208895Y-94393954D01*
X116381942Y-94123020D01*
X116498807Y-93823532D01*
X116511860Y-93750000D01*
X117241928Y-93750000D01*
X117241928Y-96750000D01*
X117254188Y-96874482D01*
X117290498Y-96994180D01*
X117349463Y-97104494D01*
X117428815Y-97201185D01*
X117525506Y-97280537D01*
X117635820Y-97339502D01*
X117755518Y-97375812D01*
X117880000Y-97388072D01*
X120880000Y-97388072D01*
X121004482Y-97375812D01*
X121124180Y-97339502D01*
X121234494Y-97280537D01*
X121331185Y-97201185D01*
X121410537Y-97104494D01*
X121469502Y-96994180D01*
X121505812Y-96874482D01*
X121518072Y-96750000D01*
X121518072Y-96741653D01*
X123147952Y-96741653D01*
X123303962Y-97057214D01*
X123678745Y-97248020D01*
X124083551Y-97362044D01*
X124502824Y-97394902D01*
X124920451Y-97345334D01*
X125320383Y-97215243D01*
X125616038Y-97057214D01*
X125772048Y-96741653D01*
X124460000Y-95429605D01*
X123147952Y-96741653D01*
X121518072Y-96741653D01*
X121518072Y-95292824D01*
X122315098Y-95292824D01*
X122364666Y-95710451D01*
X122494757Y-96110383D01*
X122652786Y-96406038D01*
X122968347Y-96562048D01*
X124280395Y-95250000D01*
X124639605Y-95250000D01*
X125951653Y-96562048D01*
X126267214Y-96406038D01*
X126458020Y-96031255D01*
X126572044Y-95626449D01*
X126604902Y-95207176D01*
X126555334Y-94789549D01*
X126425243Y-94389617D01*
X126267214Y-94093962D01*
X125951653Y-93937952D01*
X124639605Y-95250000D01*
X124280395Y-95250000D01*
X122968347Y-93937952D01*
X122652786Y-94093962D01*
X122461980Y-94468745D01*
X122347956Y-94873551D01*
X122315098Y-95292824D01*
X121518072Y-95292824D01*
X121518072Y-93758347D01*
X123147952Y-93758347D01*
X124460000Y-95070395D01*
X125772048Y-93758347D01*
X125616038Y-93442786D01*
X125241255Y-93251980D01*
X124836449Y-93137956D01*
X124417176Y-93105098D01*
X123999549Y-93154666D01*
X123599617Y-93284757D01*
X123303962Y-93442786D01*
X123147952Y-93758347D01*
X121518072Y-93758347D01*
X121518072Y-93750000D01*
X121505812Y-93625518D01*
X121469502Y-93505820D01*
X121410537Y-93395506D01*
X121331185Y-93298815D01*
X121234494Y-93219463D01*
X121124180Y-93160498D01*
X121004482Y-93124188D01*
X120880000Y-93111928D01*
X117880000Y-93111928D01*
X117755518Y-93124188D01*
X117635820Y-93160498D01*
X117525506Y-93219463D01*
X117428815Y-93298815D01*
X117349463Y-93395506D01*
X117290498Y-93505820D01*
X117254188Y-93625518D01*
X117241928Y-93750000D01*
X116511860Y-93750000D01*
X116555000Y-93507000D01*
X116555000Y-93007000D01*
X127285000Y-93007000D01*
X127285000Y-93507000D01*
X127341193Y-93823532D01*
X127458058Y-94123020D01*
X127631105Y-94393954D01*
X127853683Y-94625922D01*
X128117239Y-94810010D01*
X128411645Y-94939144D01*
X128539566Y-94970124D01*
X128793000Y-94850777D01*
X128793000Y-93007000D01*
X129047000Y-93007000D01*
X129047000Y-94850777D01*
X129300434Y-94970124D01*
X129428355Y-94939144D01*
X129722761Y-94810010D01*
X129986317Y-94625922D01*
X130208895Y-94393954D01*
X130381942Y-94123020D01*
X130498807Y-93823532D01*
X130555000Y-93507000D01*
X130555000Y-93007000D01*
X136145000Y-93007000D01*
X136145000Y-93507000D01*
X136201193Y-93823532D01*
X136318058Y-94123020D01*
X136491105Y-94393954D01*
X136713683Y-94625922D01*
X136977239Y-94810010D01*
X137271645Y-94939144D01*
X137399566Y-94970124D01*
X137653000Y-94850777D01*
X137653000Y-93007000D01*
X137907000Y-93007000D01*
X137907000Y-94850777D01*
X138160434Y-94970124D01*
X138288355Y-94939144D01*
X138582761Y-94810010D01*
X138846317Y-94625922D01*
X139068895Y-94393954D01*
X139241942Y-94123020D01*
X139358807Y-93823532D01*
X139371860Y-93750000D01*
X140101928Y-93750000D01*
X140101928Y-96750000D01*
X140114188Y-96874482D01*
X140150498Y-96994180D01*
X140209463Y-97104494D01*
X140288815Y-97201185D01*
X140385506Y-97280537D01*
X140495820Y-97339502D01*
X140615518Y-97375812D01*
X140740000Y-97388072D01*
X143740000Y-97388072D01*
X143864482Y-97375812D01*
X143984180Y-97339502D01*
X144094494Y-97280537D01*
X144191185Y-97201185D01*
X144270537Y-97104494D01*
X144329502Y-96994180D01*
X144365812Y-96874482D01*
X144378072Y-96750000D01*
X144378072Y-96741653D01*
X146007952Y-96741653D01*
X146163962Y-97057214D01*
X146538745Y-97248020D01*
X146943551Y-97362044D01*
X147362824Y-97394902D01*
X147780451Y-97345334D01*
X148180383Y-97215243D01*
X148476038Y-97057214D01*
X148632048Y-96741653D01*
X147320000Y-95429605D01*
X146007952Y-96741653D01*
X144378072Y-96741653D01*
X144378072Y-95292824D01*
X145175098Y-95292824D01*
X145224666Y-95710451D01*
X145354757Y-96110383D01*
X145512786Y-96406038D01*
X145828347Y-96562048D01*
X147140395Y-95250000D01*
X147499605Y-95250000D01*
X148811653Y-96562048D01*
X149127214Y-96406038D01*
X149318020Y-96031255D01*
X149432044Y-95626449D01*
X149464902Y-95207176D01*
X149415334Y-94789549D01*
X149285243Y-94389617D01*
X149127214Y-94093962D01*
X148811653Y-93937952D01*
X147499605Y-95250000D01*
X147140395Y-95250000D01*
X145828347Y-93937952D01*
X145512786Y-94093962D01*
X145321980Y-94468745D01*
X145207956Y-94873551D01*
X145175098Y-95292824D01*
X144378072Y-95292824D01*
X144378072Y-93758347D01*
X146007952Y-93758347D01*
X147320000Y-95070395D01*
X148632048Y-93758347D01*
X148476038Y-93442786D01*
X148101255Y-93251980D01*
X147696449Y-93137956D01*
X147277176Y-93105098D01*
X146859549Y-93154666D01*
X146459617Y-93284757D01*
X146163962Y-93442786D01*
X146007952Y-93758347D01*
X144378072Y-93758347D01*
X144378072Y-93750000D01*
X144365812Y-93625518D01*
X144329502Y-93505820D01*
X144270537Y-93395506D01*
X144191185Y-93298815D01*
X144094494Y-93219463D01*
X143984180Y-93160498D01*
X143864482Y-93124188D01*
X143740000Y-93111928D01*
X140740000Y-93111928D01*
X140615518Y-93124188D01*
X140495820Y-93160498D01*
X140385506Y-93219463D01*
X140288815Y-93298815D01*
X140209463Y-93395506D01*
X140150498Y-93505820D01*
X140114188Y-93625518D01*
X140101928Y-93750000D01*
X139371860Y-93750000D01*
X139415000Y-93507000D01*
X139415000Y-93007000D01*
X150145000Y-93007000D01*
X150145000Y-93507000D01*
X150201193Y-93823532D01*
X150318058Y-94123020D01*
X150491105Y-94393954D01*
X150713683Y-94625922D01*
X150977239Y-94810010D01*
X151271645Y-94939144D01*
X151399566Y-94970124D01*
X151653000Y-94850777D01*
X151653000Y-93007000D01*
X151907000Y-93007000D01*
X151907000Y-94850777D01*
X152160434Y-94970124D01*
X152288355Y-94939144D01*
X152582761Y-94810010D01*
X152846317Y-94625922D01*
X153068895Y-94393954D01*
X153241942Y-94123020D01*
X153358807Y-93823532D01*
X153415000Y-93507000D01*
X153415000Y-93007000D01*
X159005000Y-93007000D01*
X159005000Y-93507000D01*
X159061193Y-93823532D01*
X159178058Y-94123020D01*
X159351105Y-94393954D01*
X159573683Y-94625922D01*
X159837239Y-94810010D01*
X160131645Y-94939144D01*
X160259566Y-94970124D01*
X160513000Y-94850777D01*
X160513000Y-93007000D01*
X160767000Y-93007000D01*
X160767000Y-94850777D01*
X161020434Y-94970124D01*
X161148355Y-94939144D01*
X161442761Y-94810010D01*
X161706317Y-94625922D01*
X161928895Y-94393954D01*
X162101942Y-94123020D01*
X162218807Y-93823532D01*
X162231860Y-93750000D01*
X162961928Y-93750000D01*
X162961928Y-96750000D01*
X162974188Y-96874482D01*
X163010498Y-96994180D01*
X163069463Y-97104494D01*
X163148815Y-97201185D01*
X163245506Y-97280537D01*
X163355820Y-97339502D01*
X163475518Y-97375812D01*
X163600000Y-97388072D01*
X166600000Y-97388072D01*
X166724482Y-97375812D01*
X166844180Y-97339502D01*
X166954494Y-97280537D01*
X167051185Y-97201185D01*
X167130537Y-97104494D01*
X167189502Y-96994180D01*
X167225812Y-96874482D01*
X167238072Y-96750000D01*
X167238072Y-96741653D01*
X168867952Y-96741653D01*
X169023962Y-97057214D01*
X169398745Y-97248020D01*
X169803551Y-97362044D01*
X170222824Y-97394902D01*
X170640451Y-97345334D01*
X171040383Y-97215243D01*
X171336038Y-97057214D01*
X171492048Y-96741653D01*
X170180000Y-95429605D01*
X168867952Y-96741653D01*
X167238072Y-96741653D01*
X167238072Y-95292824D01*
X168035098Y-95292824D01*
X168084666Y-95710451D01*
X168214757Y-96110383D01*
X168372786Y-96406038D01*
X168688347Y-96562048D01*
X170000395Y-95250000D01*
X170359605Y-95250000D01*
X171671653Y-96562048D01*
X171987214Y-96406038D01*
X172178020Y-96031255D01*
X172292044Y-95626449D01*
X172324902Y-95207176D01*
X172275334Y-94789549D01*
X172145243Y-94389617D01*
X171987214Y-94093962D01*
X171671653Y-93937952D01*
X170359605Y-95250000D01*
X170000395Y-95250000D01*
X168688347Y-93937952D01*
X168372786Y-94093962D01*
X168181980Y-94468745D01*
X168067956Y-94873551D01*
X168035098Y-95292824D01*
X167238072Y-95292824D01*
X167238072Y-93758347D01*
X168867952Y-93758347D01*
X170180000Y-95070395D01*
X171492048Y-93758347D01*
X171336038Y-93442786D01*
X170961255Y-93251980D01*
X170556449Y-93137956D01*
X170137176Y-93105098D01*
X169719549Y-93154666D01*
X169319617Y-93284757D01*
X169023962Y-93442786D01*
X168867952Y-93758347D01*
X167238072Y-93758347D01*
X167238072Y-93750000D01*
X167225812Y-93625518D01*
X167189502Y-93505820D01*
X167130537Y-93395506D01*
X167051185Y-93298815D01*
X166954494Y-93219463D01*
X166844180Y-93160498D01*
X166724482Y-93124188D01*
X166600000Y-93111928D01*
X163600000Y-93111928D01*
X163475518Y-93124188D01*
X163355820Y-93160498D01*
X163245506Y-93219463D01*
X163148815Y-93298815D01*
X163069463Y-93395506D01*
X163010498Y-93505820D01*
X162974188Y-93625518D01*
X162961928Y-93750000D01*
X162231860Y-93750000D01*
X162275000Y-93507000D01*
X162275000Y-93007000D01*
X173005000Y-93007000D01*
X173005000Y-93507000D01*
X173061193Y-93823532D01*
X173178058Y-94123020D01*
X173351105Y-94393954D01*
X173573683Y-94625922D01*
X173837239Y-94810010D01*
X174131645Y-94939144D01*
X174259566Y-94970124D01*
X174513000Y-94850777D01*
X174513000Y-93007000D01*
X174767000Y-93007000D01*
X174767000Y-94850777D01*
X175020434Y-94970124D01*
X175148355Y-94939144D01*
X175442761Y-94810010D01*
X175706317Y-94625922D01*
X175928895Y-94393954D01*
X176101942Y-94123020D01*
X176218807Y-93823532D01*
X176275000Y-93507000D01*
X176275000Y-93007000D01*
X181865000Y-93007000D01*
X181865000Y-93507000D01*
X181921193Y-93823532D01*
X182038058Y-94123020D01*
X182211105Y-94393954D01*
X182433683Y-94625922D01*
X182697239Y-94810010D01*
X182991645Y-94939144D01*
X183119566Y-94970124D01*
X183373000Y-94850777D01*
X183373000Y-93007000D01*
X183627000Y-93007000D01*
X183627000Y-94850777D01*
X183880434Y-94970124D01*
X184008355Y-94939144D01*
X184302761Y-94810010D01*
X184566317Y-94625922D01*
X184788895Y-94393954D01*
X184961942Y-94123020D01*
X185078807Y-93823532D01*
X185091860Y-93750000D01*
X185821928Y-93750000D01*
X185821928Y-96750000D01*
X185834188Y-96874482D01*
X185870498Y-96994180D01*
X185929463Y-97104494D01*
X186008815Y-97201185D01*
X186105506Y-97280537D01*
X186215820Y-97339502D01*
X186335518Y-97375812D01*
X186460000Y-97388072D01*
X189460000Y-97388072D01*
X189584482Y-97375812D01*
X189704180Y-97339502D01*
X189814494Y-97280537D01*
X189911185Y-97201185D01*
X189990537Y-97104494D01*
X190049502Y-96994180D01*
X190085812Y-96874482D01*
X190098072Y-96750000D01*
X190098072Y-96741653D01*
X191727952Y-96741653D01*
X191883962Y-97057214D01*
X192258745Y-97248020D01*
X192663551Y-97362044D01*
X193082824Y-97394902D01*
X193500451Y-97345334D01*
X193900383Y-97215243D01*
X194196038Y-97057214D01*
X194352048Y-96741653D01*
X193040000Y-95429605D01*
X191727952Y-96741653D01*
X190098072Y-96741653D01*
X190098072Y-95292824D01*
X190895098Y-95292824D01*
X190944666Y-95710451D01*
X191074757Y-96110383D01*
X191232786Y-96406038D01*
X191548347Y-96562048D01*
X192860395Y-95250000D01*
X193219605Y-95250000D01*
X194531653Y-96562048D01*
X194847214Y-96406038D01*
X195038020Y-96031255D01*
X195152044Y-95626449D01*
X195184902Y-95207176D01*
X195135334Y-94789549D01*
X195005243Y-94389617D01*
X194847214Y-94093962D01*
X194531653Y-93937952D01*
X193219605Y-95250000D01*
X192860395Y-95250000D01*
X191548347Y-93937952D01*
X191232786Y-94093962D01*
X191041980Y-94468745D01*
X190927956Y-94873551D01*
X190895098Y-95292824D01*
X190098072Y-95292824D01*
X190098072Y-93758347D01*
X191727952Y-93758347D01*
X193040000Y-95070395D01*
X194352048Y-93758347D01*
X194196038Y-93442786D01*
X193821255Y-93251980D01*
X193416449Y-93137956D01*
X192997176Y-93105098D01*
X192579549Y-93154666D01*
X192179617Y-93284757D01*
X191883962Y-93442786D01*
X191727952Y-93758347D01*
X190098072Y-93758347D01*
X190098072Y-93750000D01*
X190085812Y-93625518D01*
X190049502Y-93505820D01*
X189990537Y-93395506D01*
X189911185Y-93298815D01*
X189814494Y-93219463D01*
X189704180Y-93160498D01*
X189584482Y-93124188D01*
X189460000Y-93111928D01*
X186460000Y-93111928D01*
X186335518Y-93124188D01*
X186215820Y-93160498D01*
X186105506Y-93219463D01*
X186008815Y-93298815D01*
X185929463Y-93395506D01*
X185870498Y-93505820D01*
X185834188Y-93625518D01*
X185821928Y-93750000D01*
X185091860Y-93750000D01*
X185135000Y-93507000D01*
X185135000Y-93007000D01*
X195865000Y-93007000D01*
X195865000Y-93507000D01*
X195921193Y-93823532D01*
X196038058Y-94123020D01*
X196211105Y-94393954D01*
X196433683Y-94625922D01*
X196697239Y-94810010D01*
X196991645Y-94939144D01*
X197119566Y-94970124D01*
X197373000Y-94850777D01*
X197373000Y-93007000D01*
X197627000Y-93007000D01*
X197627000Y-94850777D01*
X197880434Y-94970124D01*
X198008355Y-94939144D01*
X198302761Y-94810010D01*
X198566317Y-94625922D01*
X198788895Y-94393954D01*
X198961942Y-94123020D01*
X199078807Y-93823532D01*
X199135000Y-93507000D01*
X199135000Y-93007000D01*
X204725000Y-93007000D01*
X204725000Y-93507000D01*
X204781193Y-93823532D01*
X204898058Y-94123020D01*
X205071105Y-94393954D01*
X205293683Y-94625922D01*
X205557239Y-94810010D01*
X205851645Y-94939144D01*
X205979566Y-94970124D01*
X206233000Y-94850777D01*
X206233000Y-93007000D01*
X206487000Y-93007000D01*
X206487000Y-94850777D01*
X206740434Y-94970124D01*
X206868355Y-94939144D01*
X207162761Y-94810010D01*
X207426317Y-94625922D01*
X207648895Y-94393954D01*
X207821942Y-94123020D01*
X207938807Y-93823532D01*
X207951860Y-93750000D01*
X208681928Y-93750000D01*
X208681928Y-96750000D01*
X208694188Y-96874482D01*
X208730498Y-96994180D01*
X208789463Y-97104494D01*
X208868815Y-97201185D01*
X208965506Y-97280537D01*
X209075820Y-97339502D01*
X209195518Y-97375812D01*
X209320000Y-97388072D01*
X212320000Y-97388072D01*
X212444482Y-97375812D01*
X212564180Y-97339502D01*
X212674494Y-97280537D01*
X212771185Y-97201185D01*
X212850537Y-97104494D01*
X212909502Y-96994180D01*
X212945812Y-96874482D01*
X212958072Y-96750000D01*
X212958072Y-96741653D01*
X214587952Y-96741653D01*
X214743962Y-97057214D01*
X215118745Y-97248020D01*
X215523551Y-97362044D01*
X215942824Y-97394902D01*
X216360451Y-97345334D01*
X216760383Y-97215243D01*
X217056038Y-97057214D01*
X217212048Y-96741653D01*
X215900000Y-95429605D01*
X214587952Y-96741653D01*
X212958072Y-96741653D01*
X212958072Y-95292824D01*
X213755098Y-95292824D01*
X213804666Y-95710451D01*
X213934757Y-96110383D01*
X214092786Y-96406038D01*
X214408347Y-96562048D01*
X215720395Y-95250000D01*
X216079605Y-95250000D01*
X217391653Y-96562048D01*
X217707214Y-96406038D01*
X217898020Y-96031255D01*
X218012044Y-95626449D01*
X218044902Y-95207176D01*
X217995334Y-94789549D01*
X217865243Y-94389617D01*
X217707214Y-94093962D01*
X217391653Y-93937952D01*
X216079605Y-95250000D01*
X215720395Y-95250000D01*
X214408347Y-93937952D01*
X214092786Y-94093962D01*
X213901980Y-94468745D01*
X213787956Y-94873551D01*
X213755098Y-95292824D01*
X212958072Y-95292824D01*
X212958072Y-93758347D01*
X214587952Y-93758347D01*
X215900000Y-95070395D01*
X217212048Y-93758347D01*
X217056038Y-93442786D01*
X216681255Y-93251980D01*
X216276449Y-93137956D01*
X215857176Y-93105098D01*
X215439549Y-93154666D01*
X215039617Y-93284757D01*
X214743962Y-93442786D01*
X214587952Y-93758347D01*
X212958072Y-93758347D01*
X212958072Y-93750000D01*
X212945812Y-93625518D01*
X212909502Y-93505820D01*
X212850537Y-93395506D01*
X212771185Y-93298815D01*
X212674494Y-93219463D01*
X212564180Y-93160498D01*
X212444482Y-93124188D01*
X212320000Y-93111928D01*
X209320000Y-93111928D01*
X209195518Y-93124188D01*
X209075820Y-93160498D01*
X208965506Y-93219463D01*
X208868815Y-93298815D01*
X208789463Y-93395506D01*
X208730498Y-93505820D01*
X208694188Y-93625518D01*
X208681928Y-93750000D01*
X207951860Y-93750000D01*
X207995000Y-93507000D01*
X207995000Y-93007000D01*
X218725000Y-93007000D01*
X218725000Y-93507000D01*
X218781193Y-93823532D01*
X218898058Y-94123020D01*
X219071105Y-94393954D01*
X219293683Y-94625922D01*
X219557239Y-94810010D01*
X219851645Y-94939144D01*
X219979566Y-94970124D01*
X220233000Y-94850777D01*
X220233000Y-93007000D01*
X220487000Y-93007000D01*
X220487000Y-94850777D01*
X220740434Y-94970124D01*
X220868355Y-94939144D01*
X221162761Y-94810010D01*
X221426317Y-94625922D01*
X221648895Y-94393954D01*
X221821942Y-94123020D01*
X221938807Y-93823532D01*
X221995000Y-93507000D01*
X221995000Y-93007000D01*
X220487000Y-93007000D01*
X220233000Y-93007000D01*
X218725000Y-93007000D01*
X207995000Y-93007000D01*
X206487000Y-93007000D01*
X206233000Y-93007000D01*
X204725000Y-93007000D01*
X199135000Y-93007000D01*
X197627000Y-93007000D01*
X197373000Y-93007000D01*
X195865000Y-93007000D01*
X185135000Y-93007000D01*
X183627000Y-93007000D01*
X183373000Y-93007000D01*
X181865000Y-93007000D01*
X176275000Y-93007000D01*
X174767000Y-93007000D01*
X174513000Y-93007000D01*
X173005000Y-93007000D01*
X162275000Y-93007000D01*
X160767000Y-93007000D01*
X160513000Y-93007000D01*
X159005000Y-93007000D01*
X153415000Y-93007000D01*
X151907000Y-93007000D01*
X151653000Y-93007000D01*
X150145000Y-93007000D01*
X139415000Y-93007000D01*
X137907000Y-93007000D01*
X137653000Y-93007000D01*
X136145000Y-93007000D01*
X130555000Y-93007000D01*
X129047000Y-93007000D01*
X128793000Y-93007000D01*
X127285000Y-93007000D01*
X116555000Y-93007000D01*
X115047000Y-93007000D01*
X114793000Y-93007000D01*
X113285000Y-93007000D01*
X107649999Y-93007000D01*
X107649999Y-92917000D01*
X106141999Y-92917000D01*
X105887999Y-92917000D01*
X104379999Y-92917000D01*
X93649999Y-92917000D01*
X92141999Y-92917000D01*
X91887999Y-92917000D01*
X90379999Y-92917000D01*
X89560000Y-92917000D01*
X89560000Y-92163000D01*
X90379999Y-92163000D01*
X90379999Y-92663000D01*
X91887999Y-92663000D01*
X91887999Y-90819223D01*
X92141999Y-90819223D01*
X92141999Y-92663000D01*
X93649999Y-92663000D01*
X93649999Y-92163000D01*
X104379999Y-92163000D01*
X104379999Y-92663000D01*
X105887999Y-92663000D01*
X105887999Y-90819223D01*
X106141999Y-90819223D01*
X106141999Y-92663000D01*
X107649999Y-92663000D01*
X107649999Y-92253000D01*
X113285000Y-92253000D01*
X113285000Y-92753000D01*
X114793000Y-92753000D01*
X114793000Y-90909223D01*
X115047000Y-90909223D01*
X115047000Y-92753000D01*
X116555000Y-92753000D01*
X116555000Y-92253000D01*
X127285000Y-92253000D01*
X127285000Y-92753000D01*
X128793000Y-92753000D01*
X128793000Y-90909223D01*
X129047000Y-90909223D01*
X129047000Y-92753000D01*
X130555000Y-92753000D01*
X130555000Y-92253000D01*
X136145000Y-92253000D01*
X136145000Y-92753000D01*
X137653000Y-92753000D01*
X137653000Y-90909223D01*
X137907000Y-90909223D01*
X137907000Y-92753000D01*
X139415000Y-92753000D01*
X139415000Y-92253000D01*
X150145000Y-92253000D01*
X150145000Y-92753000D01*
X151653000Y-92753000D01*
X151653000Y-90909223D01*
X151907000Y-90909223D01*
X151907000Y-92753000D01*
X153415000Y-92753000D01*
X153415000Y-92253000D01*
X159005000Y-92253000D01*
X159005000Y-92753000D01*
X160513000Y-92753000D01*
X160513000Y-90909223D01*
X160767000Y-90909223D01*
X160767000Y-92753000D01*
X162275000Y-92753000D01*
X162275000Y-92253000D01*
X173005000Y-92253000D01*
X173005000Y-92753000D01*
X174513000Y-92753000D01*
X174513000Y-90909223D01*
X174767000Y-90909223D01*
X174767000Y-92753000D01*
X176275000Y-92753000D01*
X176275000Y-92253000D01*
X181865000Y-92253000D01*
X181865000Y-92753000D01*
X183373000Y-92753000D01*
X183373000Y-90909223D01*
X183627000Y-90909223D01*
X183627000Y-92753000D01*
X185135000Y-92753000D01*
X185135000Y-92253000D01*
X195865000Y-92253000D01*
X195865000Y-92753000D01*
X197373000Y-92753000D01*
X197373000Y-90909223D01*
X197627000Y-90909223D01*
X197627000Y-92753000D01*
X199135000Y-92753000D01*
X199135000Y-92253000D01*
X204725000Y-92253000D01*
X204725000Y-92753000D01*
X206233000Y-92753000D01*
X206233000Y-90909223D01*
X206487000Y-90909223D01*
X206487000Y-92753000D01*
X207995000Y-92753000D01*
X207995000Y-92253000D01*
X218725000Y-92253000D01*
X218725000Y-92753000D01*
X220233000Y-92753000D01*
X220233000Y-90909223D01*
X220487000Y-90909223D01*
X220487000Y-92753000D01*
X221995000Y-92753000D01*
X221995000Y-92253000D01*
X221938807Y-91936468D01*
X221821942Y-91636980D01*
X221648895Y-91366046D01*
X221426317Y-91134078D01*
X221162761Y-90949990D01*
X220868355Y-90820856D01*
X220740434Y-90789876D01*
X220487000Y-90909223D01*
X220233000Y-90909223D01*
X219979566Y-90789876D01*
X219851645Y-90820856D01*
X219557239Y-90949990D01*
X219293683Y-91134078D01*
X219071105Y-91366046D01*
X218898058Y-91636980D01*
X218781193Y-91936468D01*
X218725000Y-92253000D01*
X207995000Y-92253000D01*
X207938807Y-91936468D01*
X207821942Y-91636980D01*
X207648895Y-91366046D01*
X207426317Y-91134078D01*
X207162761Y-90949990D01*
X206868355Y-90820856D01*
X206740434Y-90789876D01*
X206487000Y-90909223D01*
X206233000Y-90909223D01*
X205979566Y-90789876D01*
X205851645Y-90820856D01*
X205557239Y-90949990D01*
X205293683Y-91134078D01*
X205071105Y-91366046D01*
X204898058Y-91636980D01*
X204781193Y-91936468D01*
X204725000Y-92253000D01*
X199135000Y-92253000D01*
X199078807Y-91936468D01*
X198961942Y-91636980D01*
X198788895Y-91366046D01*
X198566317Y-91134078D01*
X198302761Y-90949990D01*
X198008355Y-90820856D01*
X197880434Y-90789876D01*
X197627000Y-90909223D01*
X197373000Y-90909223D01*
X197119566Y-90789876D01*
X196991645Y-90820856D01*
X196697239Y-90949990D01*
X196433683Y-91134078D01*
X196211105Y-91366046D01*
X196038058Y-91636980D01*
X195921193Y-91936468D01*
X195865000Y-92253000D01*
X185135000Y-92253000D01*
X185078807Y-91936468D01*
X184961942Y-91636980D01*
X184788895Y-91366046D01*
X184566317Y-91134078D01*
X184302761Y-90949990D01*
X184008355Y-90820856D01*
X183880434Y-90789876D01*
X183627000Y-90909223D01*
X183373000Y-90909223D01*
X183119566Y-90789876D01*
X182991645Y-90820856D01*
X182697239Y-90949990D01*
X182433683Y-91134078D01*
X182211105Y-91366046D01*
X182038058Y-91636980D01*
X181921193Y-91936468D01*
X181865000Y-92253000D01*
X176275000Y-92253000D01*
X176218807Y-91936468D01*
X176101942Y-91636980D01*
X175928895Y-91366046D01*
X175706317Y-91134078D01*
X175442761Y-90949990D01*
X175148355Y-90820856D01*
X175020434Y-90789876D01*
X174767000Y-90909223D01*
X174513000Y-90909223D01*
X174259566Y-90789876D01*
X174131645Y-90820856D01*
X173837239Y-90949990D01*
X173573683Y-91134078D01*
X173351105Y-91366046D01*
X173178058Y-91636980D01*
X173061193Y-91936468D01*
X173005000Y-92253000D01*
X162275000Y-92253000D01*
X162218807Y-91936468D01*
X162101942Y-91636980D01*
X161928895Y-91366046D01*
X161706317Y-91134078D01*
X161442761Y-90949990D01*
X161148355Y-90820856D01*
X161020434Y-90789876D01*
X160767000Y-90909223D01*
X160513000Y-90909223D01*
X160259566Y-90789876D01*
X160131645Y-90820856D01*
X159837239Y-90949990D01*
X159573683Y-91134078D01*
X159351105Y-91366046D01*
X159178058Y-91636980D01*
X159061193Y-91936468D01*
X159005000Y-92253000D01*
X153415000Y-92253000D01*
X153358807Y-91936468D01*
X153241942Y-91636980D01*
X153068895Y-91366046D01*
X152846317Y-91134078D01*
X152582761Y-90949990D01*
X152288355Y-90820856D01*
X152160434Y-90789876D01*
X151907000Y-90909223D01*
X151653000Y-90909223D01*
X151399566Y-90789876D01*
X151271645Y-90820856D01*
X150977239Y-90949990D01*
X150713683Y-91134078D01*
X150491105Y-91366046D01*
X150318058Y-91636980D01*
X150201193Y-91936468D01*
X150145000Y-92253000D01*
X139415000Y-92253000D01*
X139358807Y-91936468D01*
X139241942Y-91636980D01*
X139068895Y-91366046D01*
X138846317Y-91134078D01*
X138582761Y-90949990D01*
X138288355Y-90820856D01*
X138160434Y-90789876D01*
X137907000Y-90909223D01*
X137653000Y-90909223D01*
X137399566Y-90789876D01*
X137271645Y-90820856D01*
X136977239Y-90949990D01*
X136713683Y-91134078D01*
X136491105Y-91366046D01*
X136318058Y-91636980D01*
X136201193Y-91936468D01*
X136145000Y-92253000D01*
X130555000Y-92253000D01*
X130498807Y-91936468D01*
X130381942Y-91636980D01*
X130208895Y-91366046D01*
X129986317Y-91134078D01*
X129722761Y-90949990D01*
X129428355Y-90820856D01*
X129300434Y-90789876D01*
X129047000Y-90909223D01*
X128793000Y-90909223D01*
X128539566Y-90789876D01*
X128411645Y-90820856D01*
X128117239Y-90949990D01*
X127853683Y-91134078D01*
X127631105Y-91366046D01*
X127458058Y-91636980D01*
X127341193Y-91936468D01*
X127285000Y-92253000D01*
X116555000Y-92253000D01*
X116498807Y-91936468D01*
X116381942Y-91636980D01*
X116208895Y-91366046D01*
X115986317Y-91134078D01*
X115722761Y-90949990D01*
X115428355Y-90820856D01*
X115300434Y-90789876D01*
X115047000Y-90909223D01*
X114793000Y-90909223D01*
X114539566Y-90789876D01*
X114411645Y-90820856D01*
X114117239Y-90949990D01*
X113853683Y-91134078D01*
X113631105Y-91366046D01*
X113458058Y-91636980D01*
X113341193Y-91936468D01*
X113285000Y-92253000D01*
X107649999Y-92253000D01*
X107649999Y-92163000D01*
X107593806Y-91846468D01*
X107476941Y-91546980D01*
X107303894Y-91276046D01*
X107081316Y-91044078D01*
X106817760Y-90859990D01*
X106523354Y-90730856D01*
X106395433Y-90699876D01*
X106141999Y-90819223D01*
X105887999Y-90819223D01*
X105634565Y-90699876D01*
X105506644Y-90730856D01*
X105212238Y-90859990D01*
X104948682Y-91044078D01*
X104726104Y-91276046D01*
X104553057Y-91546980D01*
X104436192Y-91846468D01*
X104379999Y-92163000D01*
X93649999Y-92163000D01*
X93593806Y-91846468D01*
X93476941Y-91546980D01*
X93303894Y-91276046D01*
X93081316Y-91044078D01*
X92817760Y-90859990D01*
X92523354Y-90730856D01*
X92395433Y-90699876D01*
X92141999Y-90819223D01*
X91887999Y-90819223D01*
X91634565Y-90699876D01*
X91506644Y-90730856D01*
X91212238Y-90859990D01*
X90948682Y-91044078D01*
X90726104Y-91276046D01*
X90553057Y-91546980D01*
X90436192Y-91846468D01*
X90379999Y-92163000D01*
X89560000Y-92163000D01*
X89560000Y-89773376D01*
X94117999Y-89773376D01*
X94117999Y-90386625D01*
X94138213Y-90591860D01*
X94218095Y-90855195D01*
X94347816Y-91097887D01*
X94522392Y-91310608D01*
X94735113Y-91485183D01*
X94977805Y-91614904D01*
X95241140Y-91694786D01*
X95514999Y-91721759D01*
X95788859Y-91694786D01*
X96052194Y-91614904D01*
X96294886Y-91485183D01*
X96507607Y-91310608D01*
X96682182Y-91097887D01*
X96764999Y-90942946D01*
X96847816Y-91097887D01*
X97022392Y-91310608D01*
X97235113Y-91485183D01*
X97477805Y-91614904D01*
X97741140Y-91694786D01*
X98014999Y-91721759D01*
X98288859Y-91694786D01*
X98552194Y-91614904D01*
X98794886Y-91485183D01*
X99007607Y-91310608D01*
X99014999Y-91301600D01*
X99022392Y-91310608D01*
X99235113Y-91485183D01*
X99477805Y-91614904D01*
X99741140Y-91694786D01*
X100014999Y-91721759D01*
X100288859Y-91694786D01*
X100552194Y-91614904D01*
X100794886Y-91485183D01*
X101007607Y-91310608D01*
X101182182Y-91097887D01*
X101260092Y-90952127D01*
X101261573Y-90955917D01*
X101410109Y-91188191D01*
X101601105Y-91387024D01*
X101827221Y-91544775D01*
X102079768Y-91655382D01*
X102171929Y-91672220D01*
X102387999Y-91549720D01*
X102387999Y-90207000D01*
X102641999Y-90207000D01*
X102641999Y-91549720D01*
X102858069Y-91672220D01*
X102950230Y-91655382D01*
X103202777Y-91544775D01*
X103428893Y-91387024D01*
X103619889Y-91188191D01*
X103768425Y-90955917D01*
X103868792Y-90699128D01*
X103917134Y-90427693D01*
X103758281Y-90207000D01*
X102641999Y-90207000D01*
X102387999Y-90207000D01*
X102367999Y-90207000D01*
X102367999Y-89953000D01*
X102387999Y-89953000D01*
X102387999Y-88610280D01*
X102641999Y-88610280D01*
X102641999Y-89953000D01*
X103758281Y-89953000D01*
X103822791Y-89863376D01*
X117023000Y-89863376D01*
X117023000Y-90476625D01*
X117043214Y-90681860D01*
X117123096Y-90945195D01*
X117252817Y-91187887D01*
X117427393Y-91400608D01*
X117640114Y-91575183D01*
X117882806Y-91704904D01*
X118146141Y-91784786D01*
X118420000Y-91811759D01*
X118693860Y-91784786D01*
X118957195Y-91704904D01*
X119199887Y-91575183D01*
X119412608Y-91400608D01*
X119587183Y-91187887D01*
X119670000Y-91032946D01*
X119752817Y-91187887D01*
X119927393Y-91400608D01*
X120140114Y-91575183D01*
X120382806Y-91704904D01*
X120646141Y-91784786D01*
X120920000Y-91811759D01*
X121193860Y-91784786D01*
X121457195Y-91704904D01*
X121699887Y-91575183D01*
X121912608Y-91400608D01*
X121920000Y-91391600D01*
X121927393Y-91400608D01*
X122140114Y-91575183D01*
X122382806Y-91704904D01*
X122646141Y-91784786D01*
X122920000Y-91811759D01*
X123193860Y-91784786D01*
X123457195Y-91704904D01*
X123699887Y-91575183D01*
X123912608Y-91400608D01*
X124087183Y-91187887D01*
X124165093Y-91042127D01*
X124166574Y-91045917D01*
X124315110Y-91278191D01*
X124506106Y-91477024D01*
X124732222Y-91634775D01*
X124984769Y-91745382D01*
X125076930Y-91762220D01*
X125293000Y-91639720D01*
X125293000Y-90297000D01*
X125547000Y-90297000D01*
X125547000Y-91639720D01*
X125763070Y-91762220D01*
X125855231Y-91745382D01*
X126107778Y-91634775D01*
X126333894Y-91477024D01*
X126524890Y-91278191D01*
X126673426Y-91045917D01*
X126773793Y-90789128D01*
X126822135Y-90517693D01*
X126663282Y-90297000D01*
X125547000Y-90297000D01*
X125293000Y-90297000D01*
X125273000Y-90297000D01*
X125273000Y-90043000D01*
X125293000Y-90043000D01*
X125293000Y-88700280D01*
X125547000Y-88700280D01*
X125547000Y-90043000D01*
X126663282Y-90043000D01*
X126792573Y-89863376D01*
X139883000Y-89863376D01*
X139883000Y-90476625D01*
X139903214Y-90681860D01*
X139983096Y-90945195D01*
X140112817Y-91187887D01*
X140287393Y-91400608D01*
X140500114Y-91575183D01*
X140742806Y-91704904D01*
X141006141Y-91784786D01*
X141280000Y-91811759D01*
X141553860Y-91784786D01*
X141817195Y-91704904D01*
X142059887Y-91575183D01*
X142272608Y-91400608D01*
X142447183Y-91187887D01*
X142530000Y-91032946D01*
X142612817Y-91187887D01*
X142787393Y-91400608D01*
X143000114Y-91575183D01*
X143242806Y-91704904D01*
X143506141Y-91784786D01*
X143780000Y-91811759D01*
X144053860Y-91784786D01*
X144317195Y-91704904D01*
X144559887Y-91575183D01*
X144772608Y-91400608D01*
X144780000Y-91391600D01*
X144787393Y-91400608D01*
X145000114Y-91575183D01*
X145242806Y-91704904D01*
X145506141Y-91784786D01*
X145780000Y-91811759D01*
X146053860Y-91784786D01*
X146317195Y-91704904D01*
X146559887Y-91575183D01*
X146772608Y-91400608D01*
X146947183Y-91187887D01*
X147025093Y-91042127D01*
X147026574Y-91045917D01*
X147175110Y-91278191D01*
X147366106Y-91477024D01*
X147592222Y-91634775D01*
X147844769Y-91745382D01*
X147936930Y-91762220D01*
X148153000Y-91639720D01*
X148153000Y-90297000D01*
X148407000Y-90297000D01*
X148407000Y-91639720D01*
X148623070Y-91762220D01*
X148715231Y-91745382D01*
X148967778Y-91634775D01*
X149193894Y-91477024D01*
X149384890Y-91278191D01*
X149533426Y-91045917D01*
X149633793Y-90789128D01*
X149682135Y-90517693D01*
X149523282Y-90297000D01*
X148407000Y-90297000D01*
X148153000Y-90297000D01*
X148133000Y-90297000D01*
X148133000Y-90043000D01*
X148153000Y-90043000D01*
X148153000Y-88700280D01*
X148407000Y-88700280D01*
X148407000Y-90043000D01*
X149523282Y-90043000D01*
X149652573Y-89863376D01*
X162743000Y-89863376D01*
X162743000Y-90476625D01*
X162763214Y-90681860D01*
X162843096Y-90945195D01*
X162972817Y-91187887D01*
X163147393Y-91400608D01*
X163360114Y-91575183D01*
X163602806Y-91704904D01*
X163866141Y-91784786D01*
X164140000Y-91811759D01*
X164413860Y-91784786D01*
X164677195Y-91704904D01*
X164919887Y-91575183D01*
X165132608Y-91400608D01*
X165307183Y-91187887D01*
X165390000Y-91032946D01*
X165472817Y-91187887D01*
X165647393Y-91400608D01*
X165860114Y-91575183D01*
X166102806Y-91704904D01*
X166366141Y-91784786D01*
X166640000Y-91811759D01*
X166913860Y-91784786D01*
X167177195Y-91704904D01*
X167419887Y-91575183D01*
X167632608Y-91400608D01*
X167640000Y-91391600D01*
X167647393Y-91400608D01*
X167860114Y-91575183D01*
X168102806Y-91704904D01*
X168366141Y-91784786D01*
X168640000Y-91811759D01*
X168913860Y-91784786D01*
X169177195Y-91704904D01*
X169419887Y-91575183D01*
X169632608Y-91400608D01*
X169807183Y-91187887D01*
X169885093Y-91042127D01*
X169886574Y-91045917D01*
X170035110Y-91278191D01*
X170226106Y-91477024D01*
X170452222Y-91634775D01*
X170704769Y-91745382D01*
X170796930Y-91762220D01*
X171013000Y-91639720D01*
X171013000Y-90297000D01*
X171267000Y-90297000D01*
X171267000Y-91639720D01*
X171483070Y-91762220D01*
X171575231Y-91745382D01*
X171827778Y-91634775D01*
X172053894Y-91477024D01*
X172244890Y-91278191D01*
X172393426Y-91045917D01*
X172493793Y-90789128D01*
X172542135Y-90517693D01*
X172383282Y-90297000D01*
X171267000Y-90297000D01*
X171013000Y-90297000D01*
X170993000Y-90297000D01*
X170993000Y-90043000D01*
X171013000Y-90043000D01*
X171013000Y-88700280D01*
X171267000Y-88700280D01*
X171267000Y-90043000D01*
X172383282Y-90043000D01*
X172512573Y-89863376D01*
X185603000Y-89863376D01*
X185603000Y-90476625D01*
X185623214Y-90681860D01*
X185703096Y-90945195D01*
X185832817Y-91187887D01*
X186007393Y-91400608D01*
X186220114Y-91575183D01*
X186462806Y-91704904D01*
X186726141Y-91784786D01*
X187000000Y-91811759D01*
X187273860Y-91784786D01*
X187537195Y-91704904D01*
X187779887Y-91575183D01*
X187992608Y-91400608D01*
X188167183Y-91187887D01*
X188250000Y-91032946D01*
X188332817Y-91187887D01*
X188507393Y-91400608D01*
X188720114Y-91575183D01*
X188962806Y-91704904D01*
X189226141Y-91784786D01*
X189500000Y-91811759D01*
X189773860Y-91784786D01*
X190037195Y-91704904D01*
X190279887Y-91575183D01*
X190492608Y-91400608D01*
X190500000Y-91391600D01*
X190507393Y-91400608D01*
X190720114Y-91575183D01*
X190962806Y-91704904D01*
X191226141Y-91784786D01*
X191500000Y-91811759D01*
X191773860Y-91784786D01*
X192037195Y-91704904D01*
X192279887Y-91575183D01*
X192492608Y-91400608D01*
X192667183Y-91187887D01*
X192745093Y-91042127D01*
X192746574Y-91045917D01*
X192895110Y-91278191D01*
X193086106Y-91477024D01*
X193312222Y-91634775D01*
X193564769Y-91745382D01*
X193656930Y-91762220D01*
X193873000Y-91639720D01*
X193873000Y-90297000D01*
X194127000Y-90297000D01*
X194127000Y-91639720D01*
X194343070Y-91762220D01*
X194435231Y-91745382D01*
X194687778Y-91634775D01*
X194913894Y-91477024D01*
X195104890Y-91278191D01*
X195253426Y-91045917D01*
X195353793Y-90789128D01*
X195402135Y-90517693D01*
X195243282Y-90297000D01*
X194127000Y-90297000D01*
X193873000Y-90297000D01*
X193853000Y-90297000D01*
X193853000Y-90043000D01*
X193873000Y-90043000D01*
X193873000Y-88700280D01*
X194127000Y-88700280D01*
X194127000Y-90043000D01*
X195243282Y-90043000D01*
X195372573Y-89863376D01*
X208463000Y-89863376D01*
X208463000Y-90476625D01*
X208483214Y-90681860D01*
X208563096Y-90945195D01*
X208692817Y-91187887D01*
X208867393Y-91400608D01*
X209080114Y-91575183D01*
X209322806Y-91704904D01*
X209586141Y-91784786D01*
X209860000Y-91811759D01*
X210133860Y-91784786D01*
X210397195Y-91704904D01*
X210639887Y-91575183D01*
X210852608Y-91400608D01*
X211027183Y-91187887D01*
X211110000Y-91032946D01*
X211192817Y-91187887D01*
X211367393Y-91400608D01*
X211580114Y-91575183D01*
X211822806Y-91704904D01*
X212086141Y-91784786D01*
X212360000Y-91811759D01*
X212633860Y-91784786D01*
X212897195Y-91704904D01*
X213139887Y-91575183D01*
X213352608Y-91400608D01*
X213360000Y-91391600D01*
X213367393Y-91400608D01*
X213580114Y-91575183D01*
X213822806Y-91704904D01*
X214086141Y-91784786D01*
X214360000Y-91811759D01*
X214633860Y-91784786D01*
X214897195Y-91704904D01*
X215139887Y-91575183D01*
X215352608Y-91400608D01*
X215527183Y-91187887D01*
X215605093Y-91042127D01*
X215606574Y-91045917D01*
X215755110Y-91278191D01*
X215946106Y-91477024D01*
X216172222Y-91634775D01*
X216424769Y-91745382D01*
X216516930Y-91762220D01*
X216733000Y-91639720D01*
X216733000Y-90297000D01*
X216987000Y-90297000D01*
X216987000Y-91639720D01*
X217203070Y-91762220D01*
X217295231Y-91745382D01*
X217547778Y-91634775D01*
X217773894Y-91477024D01*
X217964890Y-91278191D01*
X218113426Y-91045917D01*
X218213793Y-90789128D01*
X218262135Y-90517693D01*
X218103282Y-90297000D01*
X216987000Y-90297000D01*
X216733000Y-90297000D01*
X216713000Y-90297000D01*
X216713000Y-90043000D01*
X216733000Y-90043000D01*
X216733000Y-88700280D01*
X216987000Y-88700280D01*
X216987000Y-90043000D01*
X218103282Y-90043000D01*
X218262135Y-89822307D01*
X218213793Y-89550872D01*
X218113426Y-89294083D01*
X217964890Y-89061809D01*
X217773894Y-88862976D01*
X217547778Y-88705225D01*
X217295231Y-88594618D01*
X217203070Y-88577780D01*
X216987000Y-88700280D01*
X216733000Y-88700280D01*
X216516930Y-88577780D01*
X216424769Y-88594618D01*
X216172222Y-88705225D01*
X215946106Y-88862976D01*
X215755110Y-89061809D01*
X215606574Y-89294083D01*
X215605093Y-89297873D01*
X215527183Y-89152113D01*
X215352607Y-88939392D01*
X215139886Y-88764817D01*
X214897194Y-88635096D01*
X214633859Y-88555214D01*
X214360000Y-88528241D01*
X214086140Y-88555214D01*
X213822805Y-88635096D01*
X213580113Y-88764817D01*
X213367392Y-88939393D01*
X213360000Y-88948400D01*
X213352607Y-88939392D01*
X213139886Y-88764817D01*
X212897194Y-88635096D01*
X212633859Y-88555214D01*
X212360000Y-88528241D01*
X212086140Y-88555214D01*
X211822805Y-88635096D01*
X211580113Y-88764817D01*
X211367392Y-88939393D01*
X211192817Y-89152114D01*
X211110000Y-89307054D01*
X211027183Y-89152113D01*
X210852607Y-88939392D01*
X210639886Y-88764817D01*
X210397194Y-88635096D01*
X210133859Y-88555214D01*
X209860000Y-88528241D01*
X209586140Y-88555214D01*
X209322805Y-88635096D01*
X209080113Y-88764817D01*
X208867392Y-88939393D01*
X208692817Y-89152114D01*
X208563096Y-89394806D01*
X208483214Y-89658141D01*
X208463000Y-89863376D01*
X195372573Y-89863376D01*
X195402135Y-89822307D01*
X195353793Y-89550872D01*
X195253426Y-89294083D01*
X195104890Y-89061809D01*
X194913894Y-88862976D01*
X194687778Y-88705225D01*
X194435231Y-88594618D01*
X194343070Y-88577780D01*
X194127000Y-88700280D01*
X193873000Y-88700280D01*
X193656930Y-88577780D01*
X193564769Y-88594618D01*
X193312222Y-88705225D01*
X193086106Y-88862976D01*
X192895110Y-89061809D01*
X192746574Y-89294083D01*
X192745093Y-89297873D01*
X192667183Y-89152113D01*
X192492607Y-88939392D01*
X192279886Y-88764817D01*
X192037194Y-88635096D01*
X191773859Y-88555214D01*
X191500000Y-88528241D01*
X191226140Y-88555214D01*
X190962805Y-88635096D01*
X190720113Y-88764817D01*
X190507392Y-88939393D01*
X190500000Y-88948400D01*
X190492607Y-88939392D01*
X190279886Y-88764817D01*
X190037194Y-88635096D01*
X189773859Y-88555214D01*
X189500000Y-88528241D01*
X189226140Y-88555214D01*
X188962805Y-88635096D01*
X188720113Y-88764817D01*
X188507392Y-88939393D01*
X188332817Y-89152114D01*
X188250000Y-89307054D01*
X188167183Y-89152113D01*
X187992607Y-88939392D01*
X187779886Y-88764817D01*
X187537194Y-88635096D01*
X187273859Y-88555214D01*
X187000000Y-88528241D01*
X186726140Y-88555214D01*
X186462805Y-88635096D01*
X186220113Y-88764817D01*
X186007392Y-88939393D01*
X185832817Y-89152114D01*
X185703096Y-89394806D01*
X185623214Y-89658141D01*
X185603000Y-89863376D01*
X172512573Y-89863376D01*
X172542135Y-89822307D01*
X172493793Y-89550872D01*
X172393426Y-89294083D01*
X172244890Y-89061809D01*
X172053894Y-88862976D01*
X171827778Y-88705225D01*
X171575231Y-88594618D01*
X171483070Y-88577780D01*
X171267000Y-88700280D01*
X171013000Y-88700280D01*
X170796930Y-88577780D01*
X170704769Y-88594618D01*
X170452222Y-88705225D01*
X170226106Y-88862976D01*
X170035110Y-89061809D01*
X169886574Y-89294083D01*
X169885093Y-89297873D01*
X169807183Y-89152113D01*
X169632607Y-88939392D01*
X169419886Y-88764817D01*
X169177194Y-88635096D01*
X168913859Y-88555214D01*
X168640000Y-88528241D01*
X168366140Y-88555214D01*
X168102805Y-88635096D01*
X167860113Y-88764817D01*
X167647392Y-88939393D01*
X167640000Y-88948400D01*
X167632607Y-88939392D01*
X167419886Y-88764817D01*
X167177194Y-88635096D01*
X166913859Y-88555214D01*
X166640000Y-88528241D01*
X166366140Y-88555214D01*
X166102805Y-88635096D01*
X165860113Y-88764817D01*
X165647392Y-88939393D01*
X165472817Y-89152114D01*
X165390000Y-89307054D01*
X165307183Y-89152113D01*
X165132607Y-88939392D01*
X164919886Y-88764817D01*
X164677194Y-88635096D01*
X164413859Y-88555214D01*
X164140000Y-88528241D01*
X163866140Y-88555214D01*
X163602805Y-88635096D01*
X163360113Y-88764817D01*
X163147392Y-88939393D01*
X162972817Y-89152114D01*
X162843096Y-89394806D01*
X162763214Y-89658141D01*
X162743000Y-89863376D01*
X149652573Y-89863376D01*
X149682135Y-89822307D01*
X149633793Y-89550872D01*
X149533426Y-89294083D01*
X149384890Y-89061809D01*
X149193894Y-88862976D01*
X148967778Y-88705225D01*
X148715231Y-88594618D01*
X148623070Y-88577780D01*
X148407000Y-88700280D01*
X148153000Y-88700280D01*
X147936930Y-88577780D01*
X147844769Y-88594618D01*
X147592222Y-88705225D01*
X147366106Y-88862976D01*
X147175110Y-89061809D01*
X147026574Y-89294083D01*
X147025093Y-89297873D01*
X146947183Y-89152113D01*
X146772607Y-88939392D01*
X146559886Y-88764817D01*
X146317194Y-88635096D01*
X146053859Y-88555214D01*
X145780000Y-88528241D01*
X145506140Y-88555214D01*
X145242805Y-88635096D01*
X145000113Y-88764817D01*
X144787392Y-88939393D01*
X144780000Y-88948400D01*
X144772607Y-88939392D01*
X144559886Y-88764817D01*
X144317194Y-88635096D01*
X144053859Y-88555214D01*
X143780000Y-88528241D01*
X143506140Y-88555214D01*
X143242805Y-88635096D01*
X143000113Y-88764817D01*
X142787392Y-88939393D01*
X142612817Y-89152114D01*
X142530000Y-89307054D01*
X142447183Y-89152113D01*
X142272607Y-88939392D01*
X142059886Y-88764817D01*
X141817194Y-88635096D01*
X141553859Y-88555214D01*
X141280000Y-88528241D01*
X141006140Y-88555214D01*
X140742805Y-88635096D01*
X140500113Y-88764817D01*
X140287392Y-88939393D01*
X140112817Y-89152114D01*
X139983096Y-89394806D01*
X139903214Y-89658141D01*
X139883000Y-89863376D01*
X126792573Y-89863376D01*
X126822135Y-89822307D01*
X126773793Y-89550872D01*
X126673426Y-89294083D01*
X126524890Y-89061809D01*
X126333894Y-88862976D01*
X126107778Y-88705225D01*
X125855231Y-88594618D01*
X125763070Y-88577780D01*
X125547000Y-88700280D01*
X125293000Y-88700280D01*
X125076930Y-88577780D01*
X124984769Y-88594618D01*
X124732222Y-88705225D01*
X124506106Y-88862976D01*
X124315110Y-89061809D01*
X124166574Y-89294083D01*
X124165093Y-89297873D01*
X124087183Y-89152113D01*
X123912607Y-88939392D01*
X123699886Y-88764817D01*
X123457194Y-88635096D01*
X123193859Y-88555214D01*
X122920000Y-88528241D01*
X122646140Y-88555214D01*
X122382805Y-88635096D01*
X122140113Y-88764817D01*
X121927392Y-88939393D01*
X121920000Y-88948400D01*
X121912607Y-88939392D01*
X121699886Y-88764817D01*
X121457194Y-88635096D01*
X121193859Y-88555214D01*
X120920000Y-88528241D01*
X120646140Y-88555214D01*
X120382805Y-88635096D01*
X120140113Y-88764817D01*
X119927392Y-88939393D01*
X119752817Y-89152114D01*
X119670000Y-89307054D01*
X119587183Y-89152113D01*
X119412607Y-88939392D01*
X119199886Y-88764817D01*
X118957194Y-88635096D01*
X118693859Y-88555214D01*
X118420000Y-88528241D01*
X118146140Y-88555214D01*
X117882805Y-88635096D01*
X117640113Y-88764817D01*
X117427392Y-88939393D01*
X117252817Y-89152114D01*
X117123096Y-89394806D01*
X117043214Y-89658141D01*
X117023000Y-89863376D01*
X103822791Y-89863376D01*
X103917134Y-89732307D01*
X103868792Y-89460872D01*
X103768425Y-89204083D01*
X103619889Y-88971809D01*
X103428893Y-88772976D01*
X103202777Y-88615225D01*
X102950230Y-88504618D01*
X102858069Y-88487780D01*
X102641999Y-88610280D01*
X102387999Y-88610280D01*
X102171929Y-88487780D01*
X102079768Y-88504618D01*
X101827221Y-88615225D01*
X101601105Y-88772976D01*
X101410109Y-88971809D01*
X101261573Y-89204083D01*
X101260092Y-89207873D01*
X101182182Y-89062113D01*
X101007606Y-88849392D01*
X100794885Y-88674817D01*
X100552193Y-88545096D01*
X100288858Y-88465214D01*
X100014999Y-88438241D01*
X99741139Y-88465214D01*
X99477804Y-88545096D01*
X99235112Y-88674817D01*
X99022391Y-88849393D01*
X99014999Y-88858400D01*
X99007606Y-88849392D01*
X98794885Y-88674817D01*
X98552193Y-88545096D01*
X98288858Y-88465214D01*
X98014999Y-88438241D01*
X97741139Y-88465214D01*
X97477804Y-88545096D01*
X97235112Y-88674817D01*
X97022391Y-88849393D01*
X96847816Y-89062114D01*
X96764999Y-89217054D01*
X96682182Y-89062113D01*
X96507606Y-88849392D01*
X96294885Y-88674817D01*
X96052193Y-88545096D01*
X95788858Y-88465214D01*
X95514999Y-88438241D01*
X95241139Y-88465214D01*
X94977804Y-88545096D01*
X94735112Y-88674817D01*
X94522391Y-88849393D01*
X94347816Y-89062114D01*
X94218095Y-89304806D01*
X94138213Y-89568141D01*
X94117999Y-89773376D01*
X89560000Y-89773376D01*
X89560000Y-75822285D01*
X90145000Y-75822285D01*
X90145000Y-76577715D01*
X90292377Y-77318628D01*
X90581467Y-78016554D01*
X91001161Y-78644670D01*
X91535330Y-79178839D01*
X92163446Y-79598533D01*
X92861372Y-79887623D01*
X93602285Y-80035000D01*
X94357715Y-80035000D01*
X95098628Y-79887623D01*
X95796554Y-79598533D01*
X96424670Y-79178839D01*
X96958839Y-78644670D01*
X97378533Y-78016554D01*
X97667623Y-77318628D01*
X97815000Y-76577715D01*
X97815000Y-76421653D01*
X152357952Y-76421653D01*
X152513962Y-76737214D01*
X152888745Y-76928020D01*
X153293551Y-77042044D01*
X153712824Y-77074902D01*
X154130451Y-77025334D01*
X154530383Y-76895243D01*
X154826038Y-76737214D01*
X154982048Y-76421653D01*
X153670000Y-75109605D01*
X152357952Y-76421653D01*
X97815000Y-76421653D01*
X97815000Y-75822285D01*
X97667623Y-75081372D01*
X97622662Y-74972824D01*
X151525098Y-74972824D01*
X151574666Y-75390451D01*
X151704757Y-75790383D01*
X151862786Y-76086038D01*
X152178347Y-76242048D01*
X153490395Y-74930000D01*
X153849605Y-74930000D01*
X155161653Y-76242048D01*
X155477214Y-76086038D01*
X155668020Y-75711255D01*
X155782044Y-75306449D01*
X155814902Y-74887176D01*
X155765334Y-74469549D01*
X155635243Y-74069617D01*
X155477214Y-73773962D01*
X155161653Y-73617952D01*
X153849605Y-74930000D01*
X153490395Y-74930000D01*
X152178347Y-73617952D01*
X151862786Y-73773962D01*
X151671980Y-74148745D01*
X151557956Y-74553551D01*
X151525098Y-74972824D01*
X97622662Y-74972824D01*
X97378533Y-74383446D01*
X96958839Y-73755330D01*
X96641856Y-73438347D01*
X152357952Y-73438347D01*
X153670000Y-74750395D01*
X154982048Y-73438347D01*
X154977922Y-73430000D01*
X156611928Y-73430000D01*
X156611928Y-76430000D01*
X156624188Y-76554482D01*
X156660498Y-76674180D01*
X156719463Y-76784494D01*
X156798815Y-76881185D01*
X156895506Y-76960537D01*
X157005820Y-77019502D01*
X157125518Y-77055812D01*
X157250000Y-77068072D01*
X160250000Y-77068072D01*
X160374482Y-77055812D01*
X160494180Y-77019502D01*
X160604494Y-76960537D01*
X160701185Y-76881185D01*
X160780537Y-76784494D01*
X160839502Y-76674180D01*
X160875812Y-76554482D01*
X160888072Y-76430000D01*
X160888072Y-75822285D01*
X214605000Y-75822285D01*
X214605000Y-76577715D01*
X214752377Y-77318628D01*
X215041467Y-78016554D01*
X215461161Y-78644670D01*
X215995330Y-79178839D01*
X216623446Y-79598533D01*
X217321372Y-79887623D01*
X218062285Y-80035000D01*
X218817715Y-80035000D01*
X219558628Y-79887623D01*
X220256554Y-79598533D01*
X220884670Y-79178839D01*
X221418839Y-78644670D01*
X221838533Y-78016554D01*
X222127623Y-77318628D01*
X222275000Y-76577715D01*
X222275000Y-75822285D01*
X222127623Y-75081372D01*
X221838533Y-74383446D01*
X221418839Y-73755330D01*
X220884670Y-73221161D01*
X220256554Y-72801467D01*
X219558628Y-72512377D01*
X218817715Y-72365000D01*
X218062285Y-72365000D01*
X217321372Y-72512377D01*
X216623446Y-72801467D01*
X215995330Y-73221161D01*
X215461161Y-73755330D01*
X215041467Y-74383446D01*
X214752377Y-75081372D01*
X214605000Y-75822285D01*
X160888072Y-75822285D01*
X160888072Y-73430000D01*
X160875812Y-73305518D01*
X160839502Y-73185820D01*
X160780537Y-73075506D01*
X160701185Y-72978815D01*
X160604494Y-72899463D01*
X160494180Y-72840498D01*
X160374482Y-72804188D01*
X160250000Y-72791928D01*
X157250000Y-72791928D01*
X157125518Y-72804188D01*
X157005820Y-72840498D01*
X156895506Y-72899463D01*
X156798815Y-72978815D01*
X156719463Y-73075506D01*
X156660498Y-73185820D01*
X156624188Y-73305518D01*
X156611928Y-73430000D01*
X154977922Y-73430000D01*
X154826038Y-73122786D01*
X154451255Y-72931980D01*
X154046449Y-72817956D01*
X153627176Y-72785098D01*
X153209549Y-72834666D01*
X152809617Y-72964757D01*
X152513962Y-73122786D01*
X152357952Y-73438347D01*
X96641856Y-73438347D01*
X96424670Y-73221161D01*
X95796554Y-72801467D01*
X95098628Y-72512377D01*
X94357715Y-72365000D01*
X93602285Y-72365000D01*
X92861372Y-72512377D01*
X92163446Y-72801467D01*
X91535330Y-73221161D01*
X91001161Y-73755330D01*
X90581467Y-74383446D01*
X90292377Y-75081372D01*
X90145000Y-75822285D01*
X89560000Y-75822285D01*
X89560000Y-71780000D01*
X222860001Y-71780000D01*
X222860000Y-100940000D01*
G37*
X222860000Y-100940000D02*
X89560000Y-100940000D01*
X89560000Y-92917000D01*
X90379999Y-92917000D01*
X90379999Y-93417000D01*
X90436192Y-93733532D01*
X90553057Y-94033020D01*
X90726104Y-94303954D01*
X90948682Y-94535922D01*
X91212238Y-94720010D01*
X91506644Y-94849144D01*
X91634565Y-94880124D01*
X91887999Y-94760777D01*
X91887999Y-92917000D01*
X92141999Y-92917000D01*
X92141999Y-94760777D01*
X92395433Y-94880124D01*
X92523354Y-94849144D01*
X92817760Y-94720010D01*
X93081316Y-94535922D01*
X93303894Y-94303954D01*
X93476941Y-94033020D01*
X93587379Y-93750000D01*
X94381928Y-93750000D01*
X94381928Y-96750000D01*
X94394188Y-96874482D01*
X94430498Y-96994180D01*
X94489463Y-97104494D01*
X94568815Y-97201185D01*
X94665506Y-97280537D01*
X94775820Y-97339502D01*
X94895518Y-97375812D01*
X95020000Y-97388072D01*
X98020000Y-97388072D01*
X98144482Y-97375812D01*
X98264180Y-97339502D01*
X98374494Y-97280537D01*
X98471185Y-97201185D01*
X98550537Y-97104494D01*
X98609502Y-96994180D01*
X98645812Y-96874482D01*
X98658072Y-96750000D01*
X98658072Y-96741653D01*
X100287952Y-96741653D01*
X100443962Y-97057214D01*
X100818745Y-97248020D01*
X101223551Y-97362044D01*
X101642824Y-97394902D01*
X102060451Y-97345334D01*
X102460383Y-97215243D01*
X102756038Y-97057214D01*
X102912048Y-96741653D01*
X101600000Y-95429605D01*
X100287952Y-96741653D01*
X98658072Y-96741653D01*
X98658072Y-95292824D01*
X99455098Y-95292824D01*
X99504666Y-95710451D01*
X99634757Y-96110383D01*
X99792786Y-96406038D01*
X100108347Y-96562048D01*
X101420395Y-95250000D01*
X101779605Y-95250000D01*
X103091653Y-96562048D01*
X103407214Y-96406038D01*
X103598020Y-96031255D01*
X103712044Y-95626449D01*
X103744902Y-95207176D01*
X103695334Y-94789549D01*
X103565243Y-94389617D01*
X103407214Y-94093962D01*
X103091653Y-93937952D01*
X101779605Y-95250000D01*
X101420395Y-95250000D01*
X100108347Y-93937952D01*
X99792786Y-94093962D01*
X99601980Y-94468745D01*
X99487956Y-94873551D01*
X99455098Y-95292824D01*
X98658072Y-95292824D01*
X98658072Y-93758347D01*
X100287952Y-93758347D01*
X101600000Y-95070395D01*
X102912048Y-93758347D01*
X102756038Y-93442786D01*
X102381255Y-93251980D01*
X101976449Y-93137956D01*
X101557176Y-93105098D01*
X101139549Y-93154666D01*
X100739617Y-93284757D01*
X100443962Y-93442786D01*
X100287952Y-93758347D01*
X98658072Y-93758347D01*
X98658072Y-93750000D01*
X98645812Y-93625518D01*
X98609502Y-93505820D01*
X98550537Y-93395506D01*
X98471185Y-93298815D01*
X98374494Y-93219463D01*
X98264180Y-93160498D01*
X98144482Y-93124188D01*
X98020000Y-93111928D01*
X95020000Y-93111928D01*
X94895518Y-93124188D01*
X94775820Y-93160498D01*
X94665506Y-93219463D01*
X94568815Y-93298815D01*
X94489463Y-93395506D01*
X94430498Y-93505820D01*
X94394188Y-93625518D01*
X94381928Y-93750000D01*
X93587379Y-93750000D01*
X93593806Y-93733532D01*
X93649999Y-93417000D01*
X93649999Y-92917000D01*
X104379999Y-92917000D01*
X104379999Y-93417000D01*
X104436192Y-93733532D01*
X104553057Y-94033020D01*
X104726104Y-94303954D01*
X104948682Y-94535922D01*
X105212238Y-94720010D01*
X105506644Y-94849144D01*
X105634565Y-94880124D01*
X105887999Y-94760777D01*
X105887999Y-92917000D01*
X106141999Y-92917000D01*
X106141999Y-94760777D01*
X106395433Y-94880124D01*
X106523354Y-94849144D01*
X106817760Y-94720010D01*
X107081316Y-94535922D01*
X107303894Y-94303954D01*
X107476941Y-94033020D01*
X107593806Y-93733532D01*
X107649999Y-93417000D01*
X107649999Y-93007000D01*
X113285000Y-93007000D01*
X113285000Y-93507000D01*
X113341193Y-93823532D01*
X113458058Y-94123020D01*
X113631105Y-94393954D01*
X113853683Y-94625922D01*
X114117239Y-94810010D01*
X114411645Y-94939144D01*
X114539566Y-94970124D01*
X114793000Y-94850777D01*
X114793000Y-93007000D01*
X115047000Y-93007000D01*
X115047000Y-94850777D01*
X115300434Y-94970124D01*
X115428355Y-94939144D01*
X115722761Y-94810010D01*
X115986317Y-94625922D01*
X116208895Y-94393954D01*
X116381942Y-94123020D01*
X116498807Y-93823532D01*
X116511860Y-93750000D01*
X117241928Y-93750000D01*
X117241928Y-96750000D01*
X117254188Y-96874482D01*
X117290498Y-96994180D01*
X117349463Y-97104494D01*
X117428815Y-97201185D01*
X117525506Y-97280537D01*
X117635820Y-97339502D01*
X117755518Y-97375812D01*
X117880000Y-97388072D01*
X120880000Y-97388072D01*
X121004482Y-97375812D01*
X121124180Y-97339502D01*
X121234494Y-97280537D01*
X121331185Y-97201185D01*
X121410537Y-97104494D01*
X121469502Y-96994180D01*
X121505812Y-96874482D01*
X121518072Y-96750000D01*
X121518072Y-96741653D01*
X123147952Y-96741653D01*
X123303962Y-97057214D01*
X123678745Y-97248020D01*
X124083551Y-97362044D01*
X124502824Y-97394902D01*
X124920451Y-97345334D01*
X125320383Y-97215243D01*
X125616038Y-97057214D01*
X125772048Y-96741653D01*
X124460000Y-95429605D01*
X123147952Y-96741653D01*
X121518072Y-96741653D01*
X121518072Y-95292824D01*
X122315098Y-95292824D01*
X122364666Y-95710451D01*
X122494757Y-96110383D01*
X122652786Y-96406038D01*
X122968347Y-96562048D01*
X124280395Y-95250000D01*
X124639605Y-95250000D01*
X125951653Y-96562048D01*
X126267214Y-96406038D01*
X126458020Y-96031255D01*
X126572044Y-95626449D01*
X126604902Y-95207176D01*
X126555334Y-94789549D01*
X126425243Y-94389617D01*
X126267214Y-94093962D01*
X125951653Y-93937952D01*
X124639605Y-95250000D01*
X124280395Y-95250000D01*
X122968347Y-93937952D01*
X122652786Y-94093962D01*
X122461980Y-94468745D01*
X122347956Y-94873551D01*
X122315098Y-95292824D01*
X121518072Y-95292824D01*
X121518072Y-93758347D01*
X123147952Y-93758347D01*
X124460000Y-95070395D01*
X125772048Y-93758347D01*
X125616038Y-93442786D01*
X125241255Y-93251980D01*
X124836449Y-93137956D01*
X124417176Y-93105098D01*
X123999549Y-93154666D01*
X123599617Y-93284757D01*
X123303962Y-93442786D01*
X123147952Y-93758347D01*
X121518072Y-93758347D01*
X121518072Y-93750000D01*
X121505812Y-93625518D01*
X121469502Y-93505820D01*
X121410537Y-93395506D01*
X121331185Y-93298815D01*
X121234494Y-93219463D01*
X121124180Y-93160498D01*
X121004482Y-93124188D01*
X120880000Y-93111928D01*
X117880000Y-93111928D01*
X117755518Y-93124188D01*
X117635820Y-93160498D01*
X117525506Y-93219463D01*
X117428815Y-93298815D01*
X117349463Y-93395506D01*
X117290498Y-93505820D01*
X117254188Y-93625518D01*
X117241928Y-93750000D01*
X116511860Y-93750000D01*
X116555000Y-93507000D01*
X116555000Y-93007000D01*
X127285000Y-93007000D01*
X127285000Y-93507000D01*
X127341193Y-93823532D01*
X127458058Y-94123020D01*
X127631105Y-94393954D01*
X127853683Y-94625922D01*
X128117239Y-94810010D01*
X128411645Y-94939144D01*
X128539566Y-94970124D01*
X128793000Y-94850777D01*
X128793000Y-93007000D01*
X129047000Y-93007000D01*
X129047000Y-94850777D01*
X129300434Y-94970124D01*
X129428355Y-94939144D01*
X129722761Y-94810010D01*
X129986317Y-94625922D01*
X130208895Y-94393954D01*
X130381942Y-94123020D01*
X130498807Y-93823532D01*
X130555000Y-93507000D01*
X130555000Y-93007000D01*
X136145000Y-93007000D01*
X136145000Y-93507000D01*
X136201193Y-93823532D01*
X136318058Y-94123020D01*
X136491105Y-94393954D01*
X136713683Y-94625922D01*
X136977239Y-94810010D01*
X137271645Y-94939144D01*
X137399566Y-94970124D01*
X137653000Y-94850777D01*
X137653000Y-93007000D01*
X137907000Y-93007000D01*
X137907000Y-94850777D01*
X138160434Y-94970124D01*
X138288355Y-94939144D01*
X138582761Y-94810010D01*
X138846317Y-94625922D01*
X139068895Y-94393954D01*
X139241942Y-94123020D01*
X139358807Y-93823532D01*
X139371860Y-93750000D01*
X140101928Y-93750000D01*
X140101928Y-96750000D01*
X140114188Y-96874482D01*
X140150498Y-96994180D01*
X140209463Y-97104494D01*
X140288815Y-97201185D01*
X140385506Y-97280537D01*
X140495820Y-97339502D01*
X140615518Y-97375812D01*
X140740000Y-97388072D01*
X143740000Y-97388072D01*
X143864482Y-97375812D01*
X143984180Y-97339502D01*
X144094494Y-97280537D01*
X144191185Y-97201185D01*
X144270537Y-97104494D01*
X144329502Y-96994180D01*
X144365812Y-96874482D01*
X144378072Y-96750000D01*
X144378072Y-96741653D01*
X146007952Y-96741653D01*
X146163962Y-97057214D01*
X146538745Y-97248020D01*
X146943551Y-97362044D01*
X147362824Y-97394902D01*
X147780451Y-97345334D01*
X148180383Y-97215243D01*
X148476038Y-97057214D01*
X148632048Y-96741653D01*
X147320000Y-95429605D01*
X146007952Y-96741653D01*
X144378072Y-96741653D01*
X144378072Y-95292824D01*
X145175098Y-95292824D01*
X145224666Y-95710451D01*
X145354757Y-96110383D01*
X145512786Y-96406038D01*
X145828347Y-96562048D01*
X147140395Y-95250000D01*
X147499605Y-95250000D01*
X148811653Y-96562048D01*
X149127214Y-96406038D01*
X149318020Y-96031255D01*
X149432044Y-95626449D01*
X149464902Y-95207176D01*
X149415334Y-94789549D01*
X149285243Y-94389617D01*
X149127214Y-94093962D01*
X148811653Y-93937952D01*
X147499605Y-95250000D01*
X147140395Y-95250000D01*
X145828347Y-93937952D01*
X145512786Y-94093962D01*
X145321980Y-94468745D01*
X145207956Y-94873551D01*
X145175098Y-95292824D01*
X144378072Y-95292824D01*
X144378072Y-93758347D01*
X146007952Y-93758347D01*
X147320000Y-95070395D01*
X148632048Y-93758347D01*
X148476038Y-93442786D01*
X148101255Y-93251980D01*
X147696449Y-93137956D01*
X147277176Y-93105098D01*
X146859549Y-93154666D01*
X146459617Y-93284757D01*
X146163962Y-93442786D01*
X146007952Y-93758347D01*
X144378072Y-93758347D01*
X144378072Y-93750000D01*
X144365812Y-93625518D01*
X144329502Y-93505820D01*
X144270537Y-93395506D01*
X144191185Y-93298815D01*
X144094494Y-93219463D01*
X143984180Y-93160498D01*
X143864482Y-93124188D01*
X143740000Y-93111928D01*
X140740000Y-93111928D01*
X140615518Y-93124188D01*
X140495820Y-93160498D01*
X140385506Y-93219463D01*
X140288815Y-93298815D01*
X140209463Y-93395506D01*
X140150498Y-93505820D01*
X140114188Y-93625518D01*
X140101928Y-93750000D01*
X139371860Y-93750000D01*
X139415000Y-93507000D01*
X139415000Y-93007000D01*
X150145000Y-93007000D01*
X150145000Y-93507000D01*
X150201193Y-93823532D01*
X150318058Y-94123020D01*
X150491105Y-94393954D01*
X150713683Y-94625922D01*
X150977239Y-94810010D01*
X151271645Y-94939144D01*
X151399566Y-94970124D01*
X151653000Y-94850777D01*
X151653000Y-93007000D01*
X151907000Y-93007000D01*
X151907000Y-94850777D01*
X152160434Y-94970124D01*
X152288355Y-94939144D01*
X152582761Y-94810010D01*
X152846317Y-94625922D01*
X153068895Y-94393954D01*
X153241942Y-94123020D01*
X153358807Y-93823532D01*
X153415000Y-93507000D01*
X153415000Y-93007000D01*
X159005000Y-93007000D01*
X159005000Y-93507000D01*
X159061193Y-93823532D01*
X159178058Y-94123020D01*
X159351105Y-94393954D01*
X159573683Y-94625922D01*
X159837239Y-94810010D01*
X160131645Y-94939144D01*
X160259566Y-94970124D01*
X160513000Y-94850777D01*
X160513000Y-93007000D01*
X160767000Y-93007000D01*
X160767000Y-94850777D01*
X161020434Y-94970124D01*
X161148355Y-94939144D01*
X161442761Y-94810010D01*
X161706317Y-94625922D01*
X161928895Y-94393954D01*
X162101942Y-94123020D01*
X162218807Y-93823532D01*
X162231860Y-93750000D01*
X162961928Y-93750000D01*
X162961928Y-96750000D01*
X162974188Y-96874482D01*
X163010498Y-96994180D01*
X163069463Y-97104494D01*
X163148815Y-97201185D01*
X163245506Y-97280537D01*
X163355820Y-97339502D01*
X163475518Y-97375812D01*
X163600000Y-97388072D01*
X166600000Y-97388072D01*
X166724482Y-97375812D01*
X166844180Y-97339502D01*
X166954494Y-97280537D01*
X167051185Y-97201185D01*
X167130537Y-97104494D01*
X167189502Y-96994180D01*
X167225812Y-96874482D01*
X167238072Y-96750000D01*
X167238072Y-96741653D01*
X168867952Y-96741653D01*
X169023962Y-97057214D01*
X169398745Y-97248020D01*
X169803551Y-97362044D01*
X170222824Y-97394902D01*
X170640451Y-97345334D01*
X171040383Y-97215243D01*
X171336038Y-97057214D01*
X171492048Y-96741653D01*
X170180000Y-95429605D01*
X168867952Y-96741653D01*
X167238072Y-96741653D01*
X167238072Y-95292824D01*
X168035098Y-95292824D01*
X168084666Y-95710451D01*
X168214757Y-96110383D01*
X168372786Y-96406038D01*
X168688347Y-96562048D01*
X170000395Y-95250000D01*
X170359605Y-95250000D01*
X171671653Y-96562048D01*
X171987214Y-96406038D01*
X172178020Y-96031255D01*
X172292044Y-95626449D01*
X172324902Y-95207176D01*
X172275334Y-94789549D01*
X172145243Y-94389617D01*
X171987214Y-94093962D01*
X171671653Y-93937952D01*
X170359605Y-95250000D01*
X170000395Y-95250000D01*
X168688347Y-93937952D01*
X168372786Y-94093962D01*
X168181980Y-94468745D01*
X168067956Y-94873551D01*
X168035098Y-95292824D01*
X167238072Y-95292824D01*
X167238072Y-93758347D01*
X168867952Y-93758347D01*
X170180000Y-95070395D01*
X171492048Y-93758347D01*
X171336038Y-93442786D01*
X170961255Y-93251980D01*
X170556449Y-93137956D01*
X170137176Y-93105098D01*
X169719549Y-93154666D01*
X169319617Y-93284757D01*
X169023962Y-93442786D01*
X168867952Y-93758347D01*
X167238072Y-93758347D01*
X167238072Y-93750000D01*
X167225812Y-93625518D01*
X167189502Y-93505820D01*
X167130537Y-93395506D01*
X167051185Y-93298815D01*
X166954494Y-93219463D01*
X166844180Y-93160498D01*
X166724482Y-93124188D01*
X166600000Y-93111928D01*
X163600000Y-93111928D01*
X163475518Y-93124188D01*
X163355820Y-93160498D01*
X163245506Y-93219463D01*
X163148815Y-93298815D01*
X163069463Y-93395506D01*
X163010498Y-93505820D01*
X162974188Y-93625518D01*
X162961928Y-93750000D01*
X162231860Y-93750000D01*
X162275000Y-93507000D01*
X162275000Y-93007000D01*
X173005000Y-93007000D01*
X173005000Y-93507000D01*
X173061193Y-93823532D01*
X173178058Y-94123020D01*
X173351105Y-94393954D01*
X173573683Y-94625922D01*
X173837239Y-94810010D01*
X174131645Y-94939144D01*
X174259566Y-94970124D01*
X174513000Y-94850777D01*
X174513000Y-93007000D01*
X174767000Y-93007000D01*
X174767000Y-94850777D01*
X175020434Y-94970124D01*
X175148355Y-94939144D01*
X175442761Y-94810010D01*
X175706317Y-94625922D01*
X175928895Y-94393954D01*
X176101942Y-94123020D01*
X176218807Y-93823532D01*
X176275000Y-93507000D01*
X176275000Y-93007000D01*
X181865000Y-93007000D01*
X181865000Y-93507000D01*
X181921193Y-93823532D01*
X182038058Y-94123020D01*
X182211105Y-94393954D01*
X182433683Y-94625922D01*
X182697239Y-94810010D01*
X182991645Y-94939144D01*
X183119566Y-94970124D01*
X183373000Y-94850777D01*
X183373000Y-93007000D01*
X183627000Y-93007000D01*
X183627000Y-94850777D01*
X183880434Y-94970124D01*
X184008355Y-94939144D01*
X184302761Y-94810010D01*
X184566317Y-94625922D01*
X184788895Y-94393954D01*
X184961942Y-94123020D01*
X185078807Y-93823532D01*
X185091860Y-93750000D01*
X185821928Y-93750000D01*
X185821928Y-96750000D01*
X185834188Y-96874482D01*
X185870498Y-96994180D01*
X185929463Y-97104494D01*
X186008815Y-97201185D01*
X186105506Y-97280537D01*
X186215820Y-97339502D01*
X186335518Y-97375812D01*
X186460000Y-97388072D01*
X189460000Y-97388072D01*
X189584482Y-97375812D01*
X189704180Y-97339502D01*
X189814494Y-97280537D01*
X189911185Y-97201185D01*
X189990537Y-97104494D01*
X190049502Y-96994180D01*
X190085812Y-96874482D01*
X190098072Y-96750000D01*
X190098072Y-96741653D01*
X191727952Y-96741653D01*
X191883962Y-97057214D01*
X192258745Y-97248020D01*
X192663551Y-97362044D01*
X193082824Y-97394902D01*
X193500451Y-97345334D01*
X193900383Y-97215243D01*
X194196038Y-97057214D01*
X194352048Y-96741653D01*
X193040000Y-95429605D01*
X191727952Y-96741653D01*
X190098072Y-96741653D01*
X190098072Y-95292824D01*
X190895098Y-95292824D01*
X190944666Y-95710451D01*
X191074757Y-96110383D01*
X191232786Y-96406038D01*
X191548347Y-96562048D01*
X192860395Y-95250000D01*
X193219605Y-95250000D01*
X194531653Y-96562048D01*
X194847214Y-96406038D01*
X195038020Y-96031255D01*
X195152044Y-95626449D01*
X195184902Y-95207176D01*
X195135334Y-94789549D01*
X195005243Y-94389617D01*
X194847214Y-94093962D01*
X194531653Y-93937952D01*
X193219605Y-95250000D01*
X192860395Y-95250000D01*
X191548347Y-93937952D01*
X191232786Y-94093962D01*
X191041980Y-94468745D01*
X190927956Y-94873551D01*
X190895098Y-95292824D01*
X190098072Y-95292824D01*
X190098072Y-93758347D01*
X191727952Y-93758347D01*
X193040000Y-95070395D01*
X194352048Y-93758347D01*
X194196038Y-93442786D01*
X193821255Y-93251980D01*
X193416449Y-93137956D01*
X192997176Y-93105098D01*
X192579549Y-93154666D01*
X192179617Y-93284757D01*
X191883962Y-93442786D01*
X191727952Y-93758347D01*
X190098072Y-93758347D01*
X190098072Y-93750000D01*
X190085812Y-93625518D01*
X190049502Y-93505820D01*
X189990537Y-93395506D01*
X189911185Y-93298815D01*
X189814494Y-93219463D01*
X189704180Y-93160498D01*
X189584482Y-93124188D01*
X189460000Y-93111928D01*
X186460000Y-93111928D01*
X186335518Y-93124188D01*
X186215820Y-93160498D01*
X186105506Y-93219463D01*
X186008815Y-93298815D01*
X185929463Y-93395506D01*
X185870498Y-93505820D01*
X185834188Y-93625518D01*
X185821928Y-93750000D01*
X185091860Y-93750000D01*
X185135000Y-93507000D01*
X185135000Y-93007000D01*
X195865000Y-93007000D01*
X195865000Y-93507000D01*
X195921193Y-93823532D01*
X196038058Y-94123020D01*
X196211105Y-94393954D01*
X196433683Y-94625922D01*
X196697239Y-94810010D01*
X196991645Y-94939144D01*
X197119566Y-94970124D01*
X197373000Y-94850777D01*
X197373000Y-93007000D01*
X197627000Y-93007000D01*
X197627000Y-94850777D01*
X197880434Y-94970124D01*
X198008355Y-94939144D01*
X198302761Y-94810010D01*
X198566317Y-94625922D01*
X198788895Y-94393954D01*
X198961942Y-94123020D01*
X199078807Y-93823532D01*
X199135000Y-93507000D01*
X199135000Y-93007000D01*
X204725000Y-93007000D01*
X204725000Y-93507000D01*
X204781193Y-93823532D01*
X204898058Y-94123020D01*
X205071105Y-94393954D01*
X205293683Y-94625922D01*
X205557239Y-94810010D01*
X205851645Y-94939144D01*
X205979566Y-94970124D01*
X206233000Y-94850777D01*
X206233000Y-93007000D01*
X206487000Y-93007000D01*
X206487000Y-94850777D01*
X206740434Y-94970124D01*
X206868355Y-94939144D01*
X207162761Y-94810010D01*
X207426317Y-94625922D01*
X207648895Y-94393954D01*
X207821942Y-94123020D01*
X207938807Y-93823532D01*
X207951860Y-93750000D01*
X208681928Y-93750000D01*
X208681928Y-96750000D01*
X208694188Y-96874482D01*
X208730498Y-96994180D01*
X208789463Y-97104494D01*
X208868815Y-97201185D01*
X208965506Y-97280537D01*
X209075820Y-97339502D01*
X209195518Y-97375812D01*
X209320000Y-97388072D01*
X212320000Y-97388072D01*
X212444482Y-97375812D01*
X212564180Y-97339502D01*
X212674494Y-97280537D01*
X212771185Y-97201185D01*
X212850537Y-97104494D01*
X212909502Y-96994180D01*
X212945812Y-96874482D01*
X212958072Y-96750000D01*
X212958072Y-96741653D01*
X214587952Y-96741653D01*
X214743962Y-97057214D01*
X215118745Y-97248020D01*
X215523551Y-97362044D01*
X215942824Y-97394902D01*
X216360451Y-97345334D01*
X216760383Y-97215243D01*
X217056038Y-97057214D01*
X217212048Y-96741653D01*
X215900000Y-95429605D01*
X214587952Y-96741653D01*
X212958072Y-96741653D01*
X212958072Y-95292824D01*
X213755098Y-95292824D01*
X213804666Y-95710451D01*
X213934757Y-96110383D01*
X214092786Y-96406038D01*
X214408347Y-96562048D01*
X215720395Y-95250000D01*
X216079605Y-95250000D01*
X217391653Y-96562048D01*
X217707214Y-96406038D01*
X217898020Y-96031255D01*
X218012044Y-95626449D01*
X218044902Y-95207176D01*
X217995334Y-94789549D01*
X217865243Y-94389617D01*
X217707214Y-94093962D01*
X217391653Y-93937952D01*
X216079605Y-95250000D01*
X215720395Y-95250000D01*
X214408347Y-93937952D01*
X214092786Y-94093962D01*
X213901980Y-94468745D01*
X213787956Y-94873551D01*
X213755098Y-95292824D01*
X212958072Y-95292824D01*
X212958072Y-93758347D01*
X214587952Y-93758347D01*
X215900000Y-95070395D01*
X217212048Y-93758347D01*
X217056038Y-93442786D01*
X216681255Y-93251980D01*
X216276449Y-93137956D01*
X215857176Y-93105098D01*
X215439549Y-93154666D01*
X215039617Y-93284757D01*
X214743962Y-93442786D01*
X214587952Y-93758347D01*
X212958072Y-93758347D01*
X212958072Y-93750000D01*
X212945812Y-93625518D01*
X212909502Y-93505820D01*
X212850537Y-93395506D01*
X212771185Y-93298815D01*
X212674494Y-93219463D01*
X212564180Y-93160498D01*
X212444482Y-93124188D01*
X212320000Y-93111928D01*
X209320000Y-93111928D01*
X209195518Y-93124188D01*
X209075820Y-93160498D01*
X208965506Y-93219463D01*
X208868815Y-93298815D01*
X208789463Y-93395506D01*
X208730498Y-93505820D01*
X208694188Y-93625518D01*
X208681928Y-93750000D01*
X207951860Y-93750000D01*
X207995000Y-93507000D01*
X207995000Y-93007000D01*
X218725000Y-93007000D01*
X218725000Y-93507000D01*
X218781193Y-93823532D01*
X218898058Y-94123020D01*
X219071105Y-94393954D01*
X219293683Y-94625922D01*
X219557239Y-94810010D01*
X219851645Y-94939144D01*
X219979566Y-94970124D01*
X220233000Y-94850777D01*
X220233000Y-93007000D01*
X220487000Y-93007000D01*
X220487000Y-94850777D01*
X220740434Y-94970124D01*
X220868355Y-94939144D01*
X221162761Y-94810010D01*
X221426317Y-94625922D01*
X221648895Y-94393954D01*
X221821942Y-94123020D01*
X221938807Y-93823532D01*
X221995000Y-93507000D01*
X221995000Y-93007000D01*
X220487000Y-93007000D01*
X220233000Y-93007000D01*
X218725000Y-93007000D01*
X207995000Y-93007000D01*
X206487000Y-93007000D01*
X206233000Y-93007000D01*
X204725000Y-93007000D01*
X199135000Y-93007000D01*
X197627000Y-93007000D01*
X197373000Y-93007000D01*
X195865000Y-93007000D01*
X185135000Y-93007000D01*
X183627000Y-93007000D01*
X183373000Y-93007000D01*
X181865000Y-93007000D01*
X176275000Y-93007000D01*
X174767000Y-93007000D01*
X174513000Y-93007000D01*
X173005000Y-93007000D01*
X162275000Y-93007000D01*
X160767000Y-93007000D01*
X160513000Y-93007000D01*
X159005000Y-93007000D01*
X153415000Y-93007000D01*
X151907000Y-93007000D01*
X151653000Y-93007000D01*
X150145000Y-93007000D01*
X139415000Y-93007000D01*
X137907000Y-93007000D01*
X137653000Y-93007000D01*
X136145000Y-93007000D01*
X130555000Y-93007000D01*
X129047000Y-93007000D01*
X128793000Y-93007000D01*
X127285000Y-93007000D01*
X116555000Y-93007000D01*
X115047000Y-93007000D01*
X114793000Y-93007000D01*
X113285000Y-93007000D01*
X107649999Y-93007000D01*
X107649999Y-92917000D01*
X106141999Y-92917000D01*
X105887999Y-92917000D01*
X104379999Y-92917000D01*
X93649999Y-92917000D01*
X92141999Y-92917000D01*
X91887999Y-92917000D01*
X90379999Y-92917000D01*
X89560000Y-92917000D01*
X89560000Y-92163000D01*
X90379999Y-92163000D01*
X90379999Y-92663000D01*
X91887999Y-92663000D01*
X91887999Y-90819223D01*
X92141999Y-90819223D01*
X92141999Y-92663000D01*
X93649999Y-92663000D01*
X93649999Y-92163000D01*
X104379999Y-92163000D01*
X104379999Y-92663000D01*
X105887999Y-92663000D01*
X105887999Y-90819223D01*
X106141999Y-90819223D01*
X106141999Y-92663000D01*
X107649999Y-92663000D01*
X107649999Y-92253000D01*
X113285000Y-92253000D01*
X113285000Y-92753000D01*
X114793000Y-92753000D01*
X114793000Y-90909223D01*
X115047000Y-90909223D01*
X115047000Y-92753000D01*
X116555000Y-92753000D01*
X116555000Y-92253000D01*
X127285000Y-92253000D01*
X127285000Y-92753000D01*
X128793000Y-92753000D01*
X128793000Y-90909223D01*
X129047000Y-90909223D01*
X129047000Y-92753000D01*
X130555000Y-92753000D01*
X130555000Y-92253000D01*
X136145000Y-92253000D01*
X136145000Y-92753000D01*
X137653000Y-92753000D01*
X137653000Y-90909223D01*
X137907000Y-90909223D01*
X137907000Y-92753000D01*
X139415000Y-92753000D01*
X139415000Y-92253000D01*
X150145000Y-92253000D01*
X150145000Y-92753000D01*
X151653000Y-92753000D01*
X151653000Y-90909223D01*
X151907000Y-90909223D01*
X151907000Y-92753000D01*
X153415000Y-92753000D01*
X153415000Y-92253000D01*
X159005000Y-92253000D01*
X159005000Y-92753000D01*
X160513000Y-92753000D01*
X160513000Y-90909223D01*
X160767000Y-90909223D01*
X160767000Y-92753000D01*
X162275000Y-92753000D01*
X162275000Y-92253000D01*
X173005000Y-92253000D01*
X173005000Y-92753000D01*
X174513000Y-92753000D01*
X174513000Y-90909223D01*
X174767000Y-90909223D01*
X174767000Y-92753000D01*
X176275000Y-92753000D01*
X176275000Y-92253000D01*
X181865000Y-92253000D01*
X181865000Y-92753000D01*
X183373000Y-92753000D01*
X183373000Y-90909223D01*
X183627000Y-90909223D01*
X183627000Y-92753000D01*
X185135000Y-92753000D01*
X185135000Y-92253000D01*
X195865000Y-92253000D01*
X195865000Y-92753000D01*
X197373000Y-92753000D01*
X197373000Y-90909223D01*
X197627000Y-90909223D01*
X197627000Y-92753000D01*
X199135000Y-92753000D01*
X199135000Y-92253000D01*
X204725000Y-92253000D01*
X204725000Y-92753000D01*
X206233000Y-92753000D01*
X206233000Y-90909223D01*
X206487000Y-90909223D01*
X206487000Y-92753000D01*
X207995000Y-92753000D01*
X207995000Y-92253000D01*
X218725000Y-92253000D01*
X218725000Y-92753000D01*
X220233000Y-92753000D01*
X220233000Y-90909223D01*
X220487000Y-90909223D01*
X220487000Y-92753000D01*
X221995000Y-92753000D01*
X221995000Y-92253000D01*
X221938807Y-91936468D01*
X221821942Y-91636980D01*
X221648895Y-91366046D01*
X221426317Y-91134078D01*
X221162761Y-90949990D01*
X220868355Y-90820856D01*
X220740434Y-90789876D01*
X220487000Y-90909223D01*
X220233000Y-90909223D01*
X219979566Y-90789876D01*
X219851645Y-90820856D01*
X219557239Y-90949990D01*
X219293683Y-91134078D01*
X219071105Y-91366046D01*
X218898058Y-91636980D01*
X218781193Y-91936468D01*
X218725000Y-92253000D01*
X207995000Y-92253000D01*
X207938807Y-91936468D01*
X207821942Y-91636980D01*
X207648895Y-91366046D01*
X207426317Y-91134078D01*
X207162761Y-90949990D01*
X206868355Y-90820856D01*
X206740434Y-90789876D01*
X206487000Y-90909223D01*
X206233000Y-90909223D01*
X205979566Y-90789876D01*
X205851645Y-90820856D01*
X205557239Y-90949990D01*
X205293683Y-91134078D01*
X205071105Y-91366046D01*
X204898058Y-91636980D01*
X204781193Y-91936468D01*
X204725000Y-92253000D01*
X199135000Y-92253000D01*
X199078807Y-91936468D01*
X198961942Y-91636980D01*
X198788895Y-91366046D01*
X198566317Y-91134078D01*
X198302761Y-90949990D01*
X198008355Y-90820856D01*
X197880434Y-90789876D01*
X197627000Y-90909223D01*
X197373000Y-90909223D01*
X197119566Y-90789876D01*
X196991645Y-90820856D01*
X196697239Y-90949990D01*
X196433683Y-91134078D01*
X196211105Y-91366046D01*
X196038058Y-91636980D01*
X195921193Y-91936468D01*
X195865000Y-92253000D01*
X185135000Y-92253000D01*
X185078807Y-91936468D01*
X184961942Y-91636980D01*
X184788895Y-91366046D01*
X184566317Y-91134078D01*
X184302761Y-90949990D01*
X184008355Y-90820856D01*
X183880434Y-90789876D01*
X183627000Y-90909223D01*
X183373000Y-90909223D01*
X183119566Y-90789876D01*
X182991645Y-90820856D01*
X182697239Y-90949990D01*
X182433683Y-91134078D01*
X182211105Y-91366046D01*
X182038058Y-91636980D01*
X181921193Y-91936468D01*
X181865000Y-92253000D01*
X176275000Y-92253000D01*
X176218807Y-91936468D01*
X176101942Y-91636980D01*
X175928895Y-91366046D01*
X175706317Y-91134078D01*
X175442761Y-90949990D01*
X175148355Y-90820856D01*
X175020434Y-90789876D01*
X174767000Y-90909223D01*
X174513000Y-90909223D01*
X174259566Y-90789876D01*
X174131645Y-90820856D01*
X173837239Y-90949990D01*
X173573683Y-91134078D01*
X173351105Y-91366046D01*
X173178058Y-91636980D01*
X173061193Y-91936468D01*
X173005000Y-92253000D01*
X162275000Y-92253000D01*
X162218807Y-91936468D01*
X162101942Y-91636980D01*
X161928895Y-91366046D01*
X161706317Y-91134078D01*
X161442761Y-90949990D01*
X161148355Y-90820856D01*
X161020434Y-90789876D01*
X160767000Y-90909223D01*
X160513000Y-90909223D01*
X160259566Y-90789876D01*
X160131645Y-90820856D01*
X159837239Y-90949990D01*
X159573683Y-91134078D01*
X159351105Y-91366046D01*
X159178058Y-91636980D01*
X159061193Y-91936468D01*
X159005000Y-92253000D01*
X153415000Y-92253000D01*
X153358807Y-91936468D01*
X153241942Y-91636980D01*
X153068895Y-91366046D01*
X152846317Y-91134078D01*
X152582761Y-90949990D01*
X152288355Y-90820856D01*
X152160434Y-90789876D01*
X151907000Y-90909223D01*
X151653000Y-90909223D01*
X151399566Y-90789876D01*
X151271645Y-90820856D01*
X150977239Y-90949990D01*
X150713683Y-91134078D01*
X150491105Y-91366046D01*
X150318058Y-91636980D01*
X150201193Y-91936468D01*
X150145000Y-92253000D01*
X139415000Y-92253000D01*
X139358807Y-91936468D01*
X139241942Y-91636980D01*
X139068895Y-91366046D01*
X138846317Y-91134078D01*
X138582761Y-90949990D01*
X138288355Y-90820856D01*
X138160434Y-90789876D01*
X137907000Y-90909223D01*
X137653000Y-90909223D01*
X137399566Y-90789876D01*
X137271645Y-90820856D01*
X136977239Y-90949990D01*
X136713683Y-91134078D01*
X136491105Y-91366046D01*
X136318058Y-91636980D01*
X136201193Y-91936468D01*
X136145000Y-92253000D01*
X130555000Y-92253000D01*
X130498807Y-91936468D01*
X130381942Y-91636980D01*
X130208895Y-91366046D01*
X129986317Y-91134078D01*
X129722761Y-90949990D01*
X129428355Y-90820856D01*
X129300434Y-90789876D01*
X129047000Y-90909223D01*
X128793000Y-90909223D01*
X128539566Y-90789876D01*
X128411645Y-90820856D01*
X128117239Y-90949990D01*
X127853683Y-91134078D01*
X127631105Y-91366046D01*
X127458058Y-91636980D01*
X127341193Y-91936468D01*
X127285000Y-92253000D01*
X116555000Y-92253000D01*
X116498807Y-91936468D01*
X116381942Y-91636980D01*
X116208895Y-91366046D01*
X115986317Y-91134078D01*
X115722761Y-90949990D01*
X115428355Y-90820856D01*
X115300434Y-90789876D01*
X115047000Y-90909223D01*
X114793000Y-90909223D01*
X114539566Y-90789876D01*
X114411645Y-90820856D01*
X114117239Y-90949990D01*
X113853683Y-91134078D01*
X113631105Y-91366046D01*
X113458058Y-91636980D01*
X113341193Y-91936468D01*
X113285000Y-92253000D01*
X107649999Y-92253000D01*
X107649999Y-92163000D01*
X107593806Y-91846468D01*
X107476941Y-91546980D01*
X107303894Y-91276046D01*
X107081316Y-91044078D01*
X106817760Y-90859990D01*
X106523354Y-90730856D01*
X106395433Y-90699876D01*
X106141999Y-90819223D01*
X105887999Y-90819223D01*
X105634565Y-90699876D01*
X105506644Y-90730856D01*
X105212238Y-90859990D01*
X104948682Y-91044078D01*
X104726104Y-91276046D01*
X104553057Y-91546980D01*
X104436192Y-91846468D01*
X104379999Y-92163000D01*
X93649999Y-92163000D01*
X93593806Y-91846468D01*
X93476941Y-91546980D01*
X93303894Y-91276046D01*
X93081316Y-91044078D01*
X92817760Y-90859990D01*
X92523354Y-90730856D01*
X92395433Y-90699876D01*
X92141999Y-90819223D01*
X91887999Y-90819223D01*
X91634565Y-90699876D01*
X91506644Y-90730856D01*
X91212238Y-90859990D01*
X90948682Y-91044078D01*
X90726104Y-91276046D01*
X90553057Y-91546980D01*
X90436192Y-91846468D01*
X90379999Y-92163000D01*
X89560000Y-92163000D01*
X89560000Y-89773376D01*
X94117999Y-89773376D01*
X94117999Y-90386625D01*
X94138213Y-90591860D01*
X94218095Y-90855195D01*
X94347816Y-91097887D01*
X94522392Y-91310608D01*
X94735113Y-91485183D01*
X94977805Y-91614904D01*
X95241140Y-91694786D01*
X95514999Y-91721759D01*
X95788859Y-91694786D01*
X96052194Y-91614904D01*
X96294886Y-91485183D01*
X96507607Y-91310608D01*
X96682182Y-91097887D01*
X96764999Y-90942946D01*
X96847816Y-91097887D01*
X97022392Y-91310608D01*
X97235113Y-91485183D01*
X97477805Y-91614904D01*
X97741140Y-91694786D01*
X98014999Y-91721759D01*
X98288859Y-91694786D01*
X98552194Y-91614904D01*
X98794886Y-91485183D01*
X99007607Y-91310608D01*
X99014999Y-91301600D01*
X99022392Y-91310608D01*
X99235113Y-91485183D01*
X99477805Y-91614904D01*
X99741140Y-91694786D01*
X100014999Y-91721759D01*
X100288859Y-91694786D01*
X100552194Y-91614904D01*
X100794886Y-91485183D01*
X101007607Y-91310608D01*
X101182182Y-91097887D01*
X101260092Y-90952127D01*
X101261573Y-90955917D01*
X101410109Y-91188191D01*
X101601105Y-91387024D01*
X101827221Y-91544775D01*
X102079768Y-91655382D01*
X102171929Y-91672220D01*
X102387999Y-91549720D01*
X102387999Y-90207000D01*
X102641999Y-90207000D01*
X102641999Y-91549720D01*
X102858069Y-91672220D01*
X102950230Y-91655382D01*
X103202777Y-91544775D01*
X103428893Y-91387024D01*
X103619889Y-91188191D01*
X103768425Y-90955917D01*
X103868792Y-90699128D01*
X103917134Y-90427693D01*
X103758281Y-90207000D01*
X102641999Y-90207000D01*
X102387999Y-90207000D01*
X102367999Y-90207000D01*
X102367999Y-89953000D01*
X102387999Y-89953000D01*
X102387999Y-88610280D01*
X102641999Y-88610280D01*
X102641999Y-89953000D01*
X103758281Y-89953000D01*
X103822791Y-89863376D01*
X117023000Y-89863376D01*
X117023000Y-90476625D01*
X117043214Y-90681860D01*
X117123096Y-90945195D01*
X117252817Y-91187887D01*
X117427393Y-91400608D01*
X117640114Y-91575183D01*
X117882806Y-91704904D01*
X118146141Y-91784786D01*
X118420000Y-91811759D01*
X118693860Y-91784786D01*
X118957195Y-91704904D01*
X119199887Y-91575183D01*
X119412608Y-91400608D01*
X119587183Y-91187887D01*
X119670000Y-91032946D01*
X119752817Y-91187887D01*
X119927393Y-91400608D01*
X120140114Y-91575183D01*
X120382806Y-91704904D01*
X120646141Y-91784786D01*
X120920000Y-91811759D01*
X121193860Y-91784786D01*
X121457195Y-91704904D01*
X121699887Y-91575183D01*
X121912608Y-91400608D01*
X121920000Y-91391600D01*
X121927393Y-91400608D01*
X122140114Y-91575183D01*
X122382806Y-91704904D01*
X122646141Y-91784786D01*
X122920000Y-91811759D01*
X123193860Y-91784786D01*
X123457195Y-91704904D01*
X123699887Y-91575183D01*
X123912608Y-91400608D01*
X124087183Y-91187887D01*
X124165093Y-91042127D01*
X124166574Y-91045917D01*
X124315110Y-91278191D01*
X124506106Y-91477024D01*
X124732222Y-91634775D01*
X124984769Y-91745382D01*
X125076930Y-91762220D01*
X125293000Y-91639720D01*
X125293000Y-90297000D01*
X125547000Y-90297000D01*
X125547000Y-91639720D01*
X125763070Y-91762220D01*
X125855231Y-91745382D01*
X126107778Y-91634775D01*
X126333894Y-91477024D01*
X126524890Y-91278191D01*
X126673426Y-91045917D01*
X126773793Y-90789128D01*
X126822135Y-90517693D01*
X126663282Y-90297000D01*
X125547000Y-90297000D01*
X125293000Y-90297000D01*
X125273000Y-90297000D01*
X125273000Y-90043000D01*
X125293000Y-90043000D01*
X125293000Y-88700280D01*
X125547000Y-88700280D01*
X125547000Y-90043000D01*
X126663282Y-90043000D01*
X126792573Y-89863376D01*
X139883000Y-89863376D01*
X139883000Y-90476625D01*
X139903214Y-90681860D01*
X139983096Y-90945195D01*
X140112817Y-91187887D01*
X140287393Y-91400608D01*
X140500114Y-91575183D01*
X140742806Y-91704904D01*
X141006141Y-91784786D01*
X141280000Y-91811759D01*
X141553860Y-91784786D01*
X141817195Y-91704904D01*
X142059887Y-91575183D01*
X142272608Y-91400608D01*
X142447183Y-91187887D01*
X142530000Y-91032946D01*
X142612817Y-91187887D01*
X142787393Y-91400608D01*
X143000114Y-91575183D01*
X143242806Y-91704904D01*
X143506141Y-91784786D01*
X143780000Y-91811759D01*
X144053860Y-91784786D01*
X144317195Y-91704904D01*
X144559887Y-91575183D01*
X144772608Y-91400608D01*
X144780000Y-91391600D01*
X144787393Y-91400608D01*
X145000114Y-91575183D01*
X145242806Y-91704904D01*
X145506141Y-91784786D01*
X145780000Y-91811759D01*
X146053860Y-91784786D01*
X146317195Y-91704904D01*
X146559887Y-91575183D01*
X146772608Y-91400608D01*
X146947183Y-91187887D01*
X147025093Y-91042127D01*
X147026574Y-91045917D01*
X147175110Y-91278191D01*
X147366106Y-91477024D01*
X147592222Y-91634775D01*
X147844769Y-91745382D01*
X147936930Y-91762220D01*
X148153000Y-91639720D01*
X148153000Y-90297000D01*
X148407000Y-90297000D01*
X148407000Y-91639720D01*
X148623070Y-91762220D01*
X148715231Y-91745382D01*
X148967778Y-91634775D01*
X149193894Y-91477024D01*
X149384890Y-91278191D01*
X149533426Y-91045917D01*
X149633793Y-90789128D01*
X149682135Y-90517693D01*
X149523282Y-90297000D01*
X148407000Y-90297000D01*
X148153000Y-90297000D01*
X148133000Y-90297000D01*
X148133000Y-90043000D01*
X148153000Y-90043000D01*
X148153000Y-88700280D01*
X148407000Y-88700280D01*
X148407000Y-90043000D01*
X149523282Y-90043000D01*
X149652573Y-89863376D01*
X162743000Y-89863376D01*
X162743000Y-90476625D01*
X162763214Y-90681860D01*
X162843096Y-90945195D01*
X162972817Y-91187887D01*
X163147393Y-91400608D01*
X163360114Y-91575183D01*
X163602806Y-91704904D01*
X163866141Y-91784786D01*
X164140000Y-91811759D01*
X164413860Y-91784786D01*
X164677195Y-91704904D01*
X164919887Y-91575183D01*
X165132608Y-91400608D01*
X165307183Y-91187887D01*
X165390000Y-91032946D01*
X165472817Y-91187887D01*
X165647393Y-91400608D01*
X165860114Y-91575183D01*
X166102806Y-91704904D01*
X166366141Y-91784786D01*
X166640000Y-91811759D01*
X166913860Y-91784786D01*
X167177195Y-91704904D01*
X167419887Y-91575183D01*
X167632608Y-91400608D01*
X167640000Y-91391600D01*
X167647393Y-91400608D01*
X167860114Y-91575183D01*
X168102806Y-91704904D01*
X168366141Y-91784786D01*
X168640000Y-91811759D01*
X168913860Y-91784786D01*
X169177195Y-91704904D01*
X169419887Y-91575183D01*
X169632608Y-91400608D01*
X169807183Y-91187887D01*
X169885093Y-91042127D01*
X169886574Y-91045917D01*
X170035110Y-91278191D01*
X170226106Y-91477024D01*
X170452222Y-91634775D01*
X170704769Y-91745382D01*
X170796930Y-91762220D01*
X171013000Y-91639720D01*
X171013000Y-90297000D01*
X171267000Y-90297000D01*
X171267000Y-91639720D01*
X171483070Y-91762220D01*
X171575231Y-91745382D01*
X171827778Y-91634775D01*
X172053894Y-91477024D01*
X172244890Y-91278191D01*
X172393426Y-91045917D01*
X172493793Y-90789128D01*
X172542135Y-90517693D01*
X172383282Y-90297000D01*
X171267000Y-90297000D01*
X171013000Y-90297000D01*
X170993000Y-90297000D01*
X170993000Y-90043000D01*
X171013000Y-90043000D01*
X171013000Y-88700280D01*
X171267000Y-88700280D01*
X171267000Y-90043000D01*
X172383282Y-90043000D01*
X172512573Y-89863376D01*
X185603000Y-89863376D01*
X185603000Y-90476625D01*
X185623214Y-90681860D01*
X185703096Y-90945195D01*
X185832817Y-91187887D01*
X186007393Y-91400608D01*
X186220114Y-91575183D01*
X186462806Y-91704904D01*
X186726141Y-91784786D01*
X187000000Y-91811759D01*
X187273860Y-91784786D01*
X187537195Y-91704904D01*
X187779887Y-91575183D01*
X187992608Y-91400608D01*
X188167183Y-91187887D01*
X188250000Y-91032946D01*
X188332817Y-91187887D01*
X188507393Y-91400608D01*
X188720114Y-91575183D01*
X188962806Y-91704904D01*
X189226141Y-91784786D01*
X189500000Y-91811759D01*
X189773860Y-91784786D01*
X190037195Y-91704904D01*
X190279887Y-91575183D01*
X190492608Y-91400608D01*
X190500000Y-91391600D01*
X190507393Y-91400608D01*
X190720114Y-91575183D01*
X190962806Y-91704904D01*
X191226141Y-91784786D01*
X191500000Y-91811759D01*
X191773860Y-91784786D01*
X192037195Y-91704904D01*
X192279887Y-91575183D01*
X192492608Y-91400608D01*
X192667183Y-91187887D01*
X192745093Y-91042127D01*
X192746574Y-91045917D01*
X192895110Y-91278191D01*
X193086106Y-91477024D01*
X193312222Y-91634775D01*
X193564769Y-91745382D01*
X193656930Y-91762220D01*
X193873000Y-91639720D01*
X193873000Y-90297000D01*
X194127000Y-90297000D01*
X194127000Y-91639720D01*
X194343070Y-91762220D01*
X194435231Y-91745382D01*
X194687778Y-91634775D01*
X194913894Y-91477024D01*
X195104890Y-91278191D01*
X195253426Y-91045917D01*
X195353793Y-90789128D01*
X195402135Y-90517693D01*
X195243282Y-90297000D01*
X194127000Y-90297000D01*
X193873000Y-90297000D01*
X193853000Y-90297000D01*
X193853000Y-90043000D01*
X193873000Y-90043000D01*
X193873000Y-88700280D01*
X194127000Y-88700280D01*
X194127000Y-90043000D01*
X195243282Y-90043000D01*
X195372573Y-89863376D01*
X208463000Y-89863376D01*
X208463000Y-90476625D01*
X208483214Y-90681860D01*
X208563096Y-90945195D01*
X208692817Y-91187887D01*
X208867393Y-91400608D01*
X209080114Y-91575183D01*
X209322806Y-91704904D01*
X209586141Y-91784786D01*
X209860000Y-91811759D01*
X210133860Y-91784786D01*
X210397195Y-91704904D01*
X210639887Y-91575183D01*
X210852608Y-91400608D01*
X211027183Y-91187887D01*
X211110000Y-91032946D01*
X211192817Y-91187887D01*
X211367393Y-91400608D01*
X211580114Y-91575183D01*
X211822806Y-91704904D01*
X212086141Y-91784786D01*
X212360000Y-91811759D01*
X212633860Y-91784786D01*
X212897195Y-91704904D01*
X213139887Y-91575183D01*
X213352608Y-91400608D01*
X213360000Y-91391600D01*
X213367393Y-91400608D01*
X213580114Y-91575183D01*
X213822806Y-91704904D01*
X214086141Y-91784786D01*
X214360000Y-91811759D01*
X214633860Y-91784786D01*
X214897195Y-91704904D01*
X215139887Y-91575183D01*
X215352608Y-91400608D01*
X215527183Y-91187887D01*
X215605093Y-91042127D01*
X215606574Y-91045917D01*
X215755110Y-91278191D01*
X215946106Y-91477024D01*
X216172222Y-91634775D01*
X216424769Y-91745382D01*
X216516930Y-91762220D01*
X216733000Y-91639720D01*
X216733000Y-90297000D01*
X216987000Y-90297000D01*
X216987000Y-91639720D01*
X217203070Y-91762220D01*
X217295231Y-91745382D01*
X217547778Y-91634775D01*
X217773894Y-91477024D01*
X217964890Y-91278191D01*
X218113426Y-91045917D01*
X218213793Y-90789128D01*
X218262135Y-90517693D01*
X218103282Y-90297000D01*
X216987000Y-90297000D01*
X216733000Y-90297000D01*
X216713000Y-90297000D01*
X216713000Y-90043000D01*
X216733000Y-90043000D01*
X216733000Y-88700280D01*
X216987000Y-88700280D01*
X216987000Y-90043000D01*
X218103282Y-90043000D01*
X218262135Y-89822307D01*
X218213793Y-89550872D01*
X218113426Y-89294083D01*
X217964890Y-89061809D01*
X217773894Y-88862976D01*
X217547778Y-88705225D01*
X217295231Y-88594618D01*
X217203070Y-88577780D01*
X216987000Y-88700280D01*
X216733000Y-88700280D01*
X216516930Y-88577780D01*
X216424769Y-88594618D01*
X216172222Y-88705225D01*
X215946106Y-88862976D01*
X215755110Y-89061809D01*
X215606574Y-89294083D01*
X215605093Y-89297873D01*
X215527183Y-89152113D01*
X215352607Y-88939392D01*
X215139886Y-88764817D01*
X214897194Y-88635096D01*
X214633859Y-88555214D01*
X214360000Y-88528241D01*
X214086140Y-88555214D01*
X213822805Y-88635096D01*
X213580113Y-88764817D01*
X213367392Y-88939393D01*
X213360000Y-88948400D01*
X213352607Y-88939392D01*
X213139886Y-88764817D01*
X212897194Y-88635096D01*
X212633859Y-88555214D01*
X212360000Y-88528241D01*
X212086140Y-88555214D01*
X211822805Y-88635096D01*
X211580113Y-88764817D01*
X211367392Y-88939393D01*
X211192817Y-89152114D01*
X211110000Y-89307054D01*
X211027183Y-89152113D01*
X210852607Y-88939392D01*
X210639886Y-88764817D01*
X210397194Y-88635096D01*
X210133859Y-88555214D01*
X209860000Y-88528241D01*
X209586140Y-88555214D01*
X209322805Y-88635096D01*
X209080113Y-88764817D01*
X208867392Y-88939393D01*
X208692817Y-89152114D01*
X208563096Y-89394806D01*
X208483214Y-89658141D01*
X208463000Y-89863376D01*
X195372573Y-89863376D01*
X195402135Y-89822307D01*
X195353793Y-89550872D01*
X195253426Y-89294083D01*
X195104890Y-89061809D01*
X194913894Y-88862976D01*
X194687778Y-88705225D01*
X194435231Y-88594618D01*
X194343070Y-88577780D01*
X194127000Y-88700280D01*
X193873000Y-88700280D01*
X193656930Y-88577780D01*
X193564769Y-88594618D01*
X193312222Y-88705225D01*
X193086106Y-88862976D01*
X192895110Y-89061809D01*
X192746574Y-89294083D01*
X192745093Y-89297873D01*
X192667183Y-89152113D01*
X192492607Y-88939392D01*
X192279886Y-88764817D01*
X192037194Y-88635096D01*
X191773859Y-88555214D01*
X191500000Y-88528241D01*
X191226140Y-88555214D01*
X190962805Y-88635096D01*
X190720113Y-88764817D01*
X190507392Y-88939393D01*
X190500000Y-88948400D01*
X190492607Y-88939392D01*
X190279886Y-88764817D01*
X190037194Y-88635096D01*
X189773859Y-88555214D01*
X189500000Y-88528241D01*
X189226140Y-88555214D01*
X188962805Y-88635096D01*
X188720113Y-88764817D01*
X188507392Y-88939393D01*
X188332817Y-89152114D01*
X188250000Y-89307054D01*
X188167183Y-89152113D01*
X187992607Y-88939392D01*
X187779886Y-88764817D01*
X187537194Y-88635096D01*
X187273859Y-88555214D01*
X187000000Y-88528241D01*
X186726140Y-88555214D01*
X186462805Y-88635096D01*
X186220113Y-88764817D01*
X186007392Y-88939393D01*
X185832817Y-89152114D01*
X185703096Y-89394806D01*
X185623214Y-89658141D01*
X185603000Y-89863376D01*
X172512573Y-89863376D01*
X172542135Y-89822307D01*
X172493793Y-89550872D01*
X172393426Y-89294083D01*
X172244890Y-89061809D01*
X172053894Y-88862976D01*
X171827778Y-88705225D01*
X171575231Y-88594618D01*
X171483070Y-88577780D01*
X171267000Y-88700280D01*
X171013000Y-88700280D01*
X170796930Y-88577780D01*
X170704769Y-88594618D01*
X170452222Y-88705225D01*
X170226106Y-88862976D01*
X170035110Y-89061809D01*
X169886574Y-89294083D01*
X169885093Y-89297873D01*
X169807183Y-89152113D01*
X169632607Y-88939392D01*
X169419886Y-88764817D01*
X169177194Y-88635096D01*
X168913859Y-88555214D01*
X168640000Y-88528241D01*
X168366140Y-88555214D01*
X168102805Y-88635096D01*
X167860113Y-88764817D01*
X167647392Y-88939393D01*
X167640000Y-88948400D01*
X167632607Y-88939392D01*
X167419886Y-88764817D01*
X167177194Y-88635096D01*
X166913859Y-88555214D01*
X166640000Y-88528241D01*
X166366140Y-88555214D01*
X166102805Y-88635096D01*
X165860113Y-88764817D01*
X165647392Y-88939393D01*
X165472817Y-89152114D01*
X165390000Y-89307054D01*
X165307183Y-89152113D01*
X165132607Y-88939392D01*
X164919886Y-88764817D01*
X164677194Y-88635096D01*
X164413859Y-88555214D01*
X164140000Y-88528241D01*
X163866140Y-88555214D01*
X163602805Y-88635096D01*
X163360113Y-88764817D01*
X163147392Y-88939393D01*
X162972817Y-89152114D01*
X162843096Y-89394806D01*
X162763214Y-89658141D01*
X162743000Y-89863376D01*
X149652573Y-89863376D01*
X149682135Y-89822307D01*
X149633793Y-89550872D01*
X149533426Y-89294083D01*
X149384890Y-89061809D01*
X149193894Y-88862976D01*
X148967778Y-88705225D01*
X148715231Y-88594618D01*
X148623070Y-88577780D01*
X148407000Y-88700280D01*
X148153000Y-88700280D01*
X147936930Y-88577780D01*
X147844769Y-88594618D01*
X147592222Y-88705225D01*
X147366106Y-88862976D01*
X147175110Y-89061809D01*
X147026574Y-89294083D01*
X147025093Y-89297873D01*
X146947183Y-89152113D01*
X146772607Y-88939392D01*
X146559886Y-88764817D01*
X146317194Y-88635096D01*
X146053859Y-88555214D01*
X145780000Y-88528241D01*
X145506140Y-88555214D01*
X145242805Y-88635096D01*
X145000113Y-88764817D01*
X144787392Y-88939393D01*
X144780000Y-88948400D01*
X144772607Y-88939392D01*
X144559886Y-88764817D01*
X144317194Y-88635096D01*
X144053859Y-88555214D01*
X143780000Y-88528241D01*
X143506140Y-88555214D01*
X143242805Y-88635096D01*
X143000113Y-88764817D01*
X142787392Y-88939393D01*
X142612817Y-89152114D01*
X142530000Y-89307054D01*
X142447183Y-89152113D01*
X142272607Y-88939392D01*
X142059886Y-88764817D01*
X141817194Y-88635096D01*
X141553859Y-88555214D01*
X141280000Y-88528241D01*
X141006140Y-88555214D01*
X140742805Y-88635096D01*
X140500113Y-88764817D01*
X140287392Y-88939393D01*
X140112817Y-89152114D01*
X139983096Y-89394806D01*
X139903214Y-89658141D01*
X139883000Y-89863376D01*
X126792573Y-89863376D01*
X126822135Y-89822307D01*
X126773793Y-89550872D01*
X126673426Y-89294083D01*
X126524890Y-89061809D01*
X126333894Y-88862976D01*
X126107778Y-88705225D01*
X125855231Y-88594618D01*
X125763070Y-88577780D01*
X125547000Y-88700280D01*
X125293000Y-88700280D01*
X125076930Y-88577780D01*
X124984769Y-88594618D01*
X124732222Y-88705225D01*
X124506106Y-88862976D01*
X124315110Y-89061809D01*
X124166574Y-89294083D01*
X124165093Y-89297873D01*
X124087183Y-89152113D01*
X123912607Y-88939392D01*
X123699886Y-88764817D01*
X123457194Y-88635096D01*
X123193859Y-88555214D01*
X122920000Y-88528241D01*
X122646140Y-88555214D01*
X122382805Y-88635096D01*
X122140113Y-88764817D01*
X121927392Y-88939393D01*
X121920000Y-88948400D01*
X121912607Y-88939392D01*
X121699886Y-88764817D01*
X121457194Y-88635096D01*
X121193859Y-88555214D01*
X120920000Y-88528241D01*
X120646140Y-88555214D01*
X120382805Y-88635096D01*
X120140113Y-88764817D01*
X119927392Y-88939393D01*
X119752817Y-89152114D01*
X119670000Y-89307054D01*
X119587183Y-89152113D01*
X119412607Y-88939392D01*
X119199886Y-88764817D01*
X118957194Y-88635096D01*
X118693859Y-88555214D01*
X118420000Y-88528241D01*
X118146140Y-88555214D01*
X117882805Y-88635096D01*
X117640113Y-88764817D01*
X117427392Y-88939393D01*
X117252817Y-89152114D01*
X117123096Y-89394806D01*
X117043214Y-89658141D01*
X117023000Y-89863376D01*
X103822791Y-89863376D01*
X103917134Y-89732307D01*
X103868792Y-89460872D01*
X103768425Y-89204083D01*
X103619889Y-88971809D01*
X103428893Y-88772976D01*
X103202777Y-88615225D01*
X102950230Y-88504618D01*
X102858069Y-88487780D01*
X102641999Y-88610280D01*
X102387999Y-88610280D01*
X102171929Y-88487780D01*
X102079768Y-88504618D01*
X101827221Y-88615225D01*
X101601105Y-88772976D01*
X101410109Y-88971809D01*
X101261573Y-89204083D01*
X101260092Y-89207873D01*
X101182182Y-89062113D01*
X101007606Y-88849392D01*
X100794885Y-88674817D01*
X100552193Y-88545096D01*
X100288858Y-88465214D01*
X100014999Y-88438241D01*
X99741139Y-88465214D01*
X99477804Y-88545096D01*
X99235112Y-88674817D01*
X99022391Y-88849393D01*
X99014999Y-88858400D01*
X99007606Y-88849392D01*
X98794885Y-88674817D01*
X98552193Y-88545096D01*
X98288858Y-88465214D01*
X98014999Y-88438241D01*
X97741139Y-88465214D01*
X97477804Y-88545096D01*
X97235112Y-88674817D01*
X97022391Y-88849393D01*
X96847816Y-89062114D01*
X96764999Y-89217054D01*
X96682182Y-89062113D01*
X96507606Y-88849392D01*
X96294885Y-88674817D01*
X96052193Y-88545096D01*
X95788858Y-88465214D01*
X95514999Y-88438241D01*
X95241139Y-88465214D01*
X94977804Y-88545096D01*
X94735112Y-88674817D01*
X94522391Y-88849393D01*
X94347816Y-89062114D01*
X94218095Y-89304806D01*
X94138213Y-89568141D01*
X94117999Y-89773376D01*
X89560000Y-89773376D01*
X89560000Y-75822285D01*
X90145000Y-75822285D01*
X90145000Y-76577715D01*
X90292377Y-77318628D01*
X90581467Y-78016554D01*
X91001161Y-78644670D01*
X91535330Y-79178839D01*
X92163446Y-79598533D01*
X92861372Y-79887623D01*
X93602285Y-80035000D01*
X94357715Y-80035000D01*
X95098628Y-79887623D01*
X95796554Y-79598533D01*
X96424670Y-79178839D01*
X96958839Y-78644670D01*
X97378533Y-78016554D01*
X97667623Y-77318628D01*
X97815000Y-76577715D01*
X97815000Y-76421653D01*
X152357952Y-76421653D01*
X152513962Y-76737214D01*
X152888745Y-76928020D01*
X153293551Y-77042044D01*
X153712824Y-77074902D01*
X154130451Y-77025334D01*
X154530383Y-76895243D01*
X154826038Y-76737214D01*
X154982048Y-76421653D01*
X153670000Y-75109605D01*
X152357952Y-76421653D01*
X97815000Y-76421653D01*
X97815000Y-75822285D01*
X97667623Y-75081372D01*
X97622662Y-74972824D01*
X151525098Y-74972824D01*
X151574666Y-75390451D01*
X151704757Y-75790383D01*
X151862786Y-76086038D01*
X152178347Y-76242048D01*
X153490395Y-74930000D01*
X153849605Y-74930000D01*
X155161653Y-76242048D01*
X155477214Y-76086038D01*
X155668020Y-75711255D01*
X155782044Y-75306449D01*
X155814902Y-74887176D01*
X155765334Y-74469549D01*
X155635243Y-74069617D01*
X155477214Y-73773962D01*
X155161653Y-73617952D01*
X153849605Y-74930000D01*
X153490395Y-74930000D01*
X152178347Y-73617952D01*
X151862786Y-73773962D01*
X151671980Y-74148745D01*
X151557956Y-74553551D01*
X151525098Y-74972824D01*
X97622662Y-74972824D01*
X97378533Y-74383446D01*
X96958839Y-73755330D01*
X96641856Y-73438347D01*
X152357952Y-73438347D01*
X153670000Y-74750395D01*
X154982048Y-73438347D01*
X154977922Y-73430000D01*
X156611928Y-73430000D01*
X156611928Y-76430000D01*
X156624188Y-76554482D01*
X156660498Y-76674180D01*
X156719463Y-76784494D01*
X156798815Y-76881185D01*
X156895506Y-76960537D01*
X157005820Y-77019502D01*
X157125518Y-77055812D01*
X157250000Y-77068072D01*
X160250000Y-77068072D01*
X160374482Y-77055812D01*
X160494180Y-77019502D01*
X160604494Y-76960537D01*
X160701185Y-76881185D01*
X160780537Y-76784494D01*
X160839502Y-76674180D01*
X160875812Y-76554482D01*
X160888072Y-76430000D01*
X160888072Y-75822285D01*
X214605000Y-75822285D01*
X214605000Y-76577715D01*
X214752377Y-77318628D01*
X215041467Y-78016554D01*
X215461161Y-78644670D01*
X215995330Y-79178839D01*
X216623446Y-79598533D01*
X217321372Y-79887623D01*
X218062285Y-80035000D01*
X218817715Y-80035000D01*
X219558628Y-79887623D01*
X220256554Y-79598533D01*
X220884670Y-79178839D01*
X221418839Y-78644670D01*
X221838533Y-78016554D01*
X222127623Y-77318628D01*
X222275000Y-76577715D01*
X222275000Y-75822285D01*
X222127623Y-75081372D01*
X221838533Y-74383446D01*
X221418839Y-73755330D01*
X220884670Y-73221161D01*
X220256554Y-72801467D01*
X219558628Y-72512377D01*
X218817715Y-72365000D01*
X218062285Y-72365000D01*
X217321372Y-72512377D01*
X216623446Y-72801467D01*
X215995330Y-73221161D01*
X215461161Y-73755330D01*
X215041467Y-74383446D01*
X214752377Y-75081372D01*
X214605000Y-75822285D01*
X160888072Y-75822285D01*
X160888072Y-73430000D01*
X160875812Y-73305518D01*
X160839502Y-73185820D01*
X160780537Y-73075506D01*
X160701185Y-72978815D01*
X160604494Y-72899463D01*
X160494180Y-72840498D01*
X160374482Y-72804188D01*
X160250000Y-72791928D01*
X157250000Y-72791928D01*
X157125518Y-72804188D01*
X157005820Y-72840498D01*
X156895506Y-72899463D01*
X156798815Y-72978815D01*
X156719463Y-73075506D01*
X156660498Y-73185820D01*
X156624188Y-73305518D01*
X156611928Y-73430000D01*
X154977922Y-73430000D01*
X154826038Y-73122786D01*
X154451255Y-72931980D01*
X154046449Y-72817956D01*
X153627176Y-72785098D01*
X153209549Y-72834666D01*
X152809617Y-72964757D01*
X152513962Y-73122786D01*
X152357952Y-73438347D01*
X96641856Y-73438347D01*
X96424670Y-73221161D01*
X95796554Y-72801467D01*
X95098628Y-72512377D01*
X94357715Y-72365000D01*
X93602285Y-72365000D01*
X92861372Y-72512377D01*
X92163446Y-72801467D01*
X91535330Y-73221161D01*
X91001161Y-73755330D01*
X90581467Y-74383446D01*
X90292377Y-75081372D01*
X90145000Y-75822285D01*
X89560000Y-75822285D01*
X89560000Y-71780000D01*
X222860001Y-71780000D01*
X222860000Y-100940000D01*
M02*
